<?xml version="1.0" encoding="UTF-8"?>
<svg id="_Слой_2" data-name="Слой 2" xmlns="http://www.w3.org/2000/svg" viewBox="0 0 425.45 400.93">
  <defs>
    <style>
      .cls-1 {
        fill: #fcaa6a;
      }

      .cls-2 {
        fill: #f96818;
      }

      .cls-3 {
        fill: #ffbc7f;
      }

      .cls-4 {
        fill: #fff;
      }

      .cls-5 {
        fill: #ff8f46;
      }

      .cls-6 {
        fill: #e98d30;
      }

      .cls-7 {
        fill: #a76b4b;
      }

      .cls-8 {
        fill: #ff9a54;
      }

      .cls-9 {
        fill: #ffdc93;
      }

      .cls-10 {
        fill: #ffcc76;
      }

      .cls-11 {
        fill: #ffc78a;
      }
    </style>
  </defs>
  <g id="OBJECTS">
    <g>
      <path class="cls-10" d="M228.36,16.09c-21.12-.2-149.05-2.18-152.81,33.47-3.6,34.15,45.97,21.64,46.45,36.8.51,15.92-8.94,20.52-35.33,19.51-11.43-.44-47.52,3.61-48.1,26.39-.58,22.65,39.72,19.79,37.73,38.59-1.16,21.36-31.76,26.01-43.82,31.66-13.1,6.85-37.21,18.15-31.67,42.4,7.29,28.12,53.59,23.06,71.03,26.53,11.65,1.89,48.68,5.16,43.41,30.08-2.77,14.98-33.17,15.85-27.36,35.06,5.88,17.96,58.89,21.51,69.63,22.1,44.58,2.41,142.46,6.35,186.06-12.04,16.03-6.69,30.18-14.75,28.54-38.79-.8-21.47-12.37-24.61,7.13-41.2,12.33-10.68,35.93-9.82,34.53-40.98-.75-16.81-43.76-23.79-42.8-41.39,1.5-27.65,54.29-4.17,54.48-53.07.12-30.52-95.92-13.45-94.94-43.64-1.29-12.25,19.84-17.45,18.94-31.02.5-21.72-24.38-37.79-121.09-40.46Z"/>
      <path class="cls-9" d="M144.56,237.5c-.1.06-.23.1-.38.1h-73.53c-.33,0-.65-.23-.73-.55-.8-3.5,3.24-6.24,5.97-4.9.38-1.78,2.14-3,3.98-2.78-1.01-3.19.39-6.42,3.74-7.98,3.08-1.43,5.96-.25,7.79,2.08,1.05-5.41,5.72-10.09,11.41-10.49,3.09-.21,6.36.66,8.77,2.69,2.4,2.01,3.18,4.22,3.78,6.93,1.8-2.58,4.7-3.8,8.05-2.76,3.3,1.02,3.72,4.39,3.57,7.42,2.66-2.21,5.86-3.28,9.33-1.19,2.88,1.73,3.51,4.52,3.62,7.55,2.37-1.41,4.82-.01,5.01,3.23.02.33-.15.55-.37.65Z"/>
      <path class="cls-10" d="M349.67,85.12c0,14.09,38.24,16.69,40.22,0,1.99-16.7-40.22-21.16-40.22,0Z"/>
      <path class="cls-10" d="M40.94,301.91c0,14.1,47.32,16.82,49.04,0,2.12-20.74-49.04-24.68-49.04,0Z"/>
      <path class="cls-10" d="M316.74,381.42c0,16.72,56.12,19.95,58.16,0,2.51-24.59-58.16-29.27-58.16,0Z"/>
      <path class="cls-10" d="M36.94,86.11c0,9.2,26.08,10.98,27.03,0,1.17-13.54-27.03-16.11-27.03,0Z"/>
      <path class="cls-4" d="M186.41,250.01c.78-3.91-5.01-7.51-9.47-6.07.73-2.68-.1-5.12-4.06-6.32-1.65-.5-3.63-.49-5.37-.02,3.12-6.22.22-13.3-9.42-14.76-10.48-1.59-22.11,3.55-24.19,11.83-8.52-8.38-26.58,1.66-21.25,11.3-3.29-.52-6.69,1.34-6.89,4.11-3.33-1.13-5.96,2.27-3.9,5.19.15.21.46.35.76.35h88.96c.23,0,.41-.06.54-.14.14-.08.25-.2.31-.37,1.01-2.88-2.72-5.62-6.02-5.09Z"/>
      <path class="cls-4" d="M187.33,316.36c.35-1.73-2.22-3.32-4.19-2.68.32-1.19-.04-2.26-1.79-2.79-.73-.22-1.6-.22-2.37-.01,1.38-2.75.09-5.88-4.17-6.53-4.63-.71-9.78,1.57-10.7,5.23-3.77-3.71-11.75.73-9.4,5-1.46-.23-2.96.59-3.05,1.82-1.47-.5-2.64,1-1.72,2.3.07.09.2.15.34.15h39.34c.1,0,.18-.02.24-.06.06-.04.11-.09.14-.17.45-1.27-1.2-2.49-2.66-2.25Z"/>
      <path class="cls-4" d="M346.13,155.97c.08.05.17.08.29.08h54.7c.24,0,.49-.17.54-.41.6-2.6-2.41-4.64-4.44-3.65-.29-1.32-1.6-2.23-2.96-2.06.75-2.37-.29-4.78-2.78-5.93-2.29-1.06-4.43-.19-5.79,1.55-.78-4.03-4.26-7.51-8.49-7.8-2.3-.16-4.73.49-6.52,2-1.79,1.5-2.37,3.14-2.81,5.15-1.34-1.92-3.5-2.82-5.99-2.05-2.46.76-2.77,3.27-2.65,5.52-1.98-1.64-4.36-2.44-6.94-.89-2.14,1.29-2.61,3.36-2.7,5.61-1.76-1.05-3.58,0-3.73,2.4-.01.25.11.41.28.49Z"/>
      <path class="cls-4" d="M203.56,57.75c.05.03.12.05.19.05h36.96c.16,0,.33-.11.37-.28.41-1.76-1.63-3.14-3-2.46-.19-.89-1.08-1.51-2-1.4.51-1.6-.19-3.23-1.88-4.01-1.55-.72-2.99-.13-3.91,1.05-.53-2.72-2.88-5.07-5.74-5.27-1.55-.11-3.2.33-4.41,1.35-1.21,1.01-1.6,2.12-1.9,3.48-.9-1.3-2.36-1.91-4.04-1.39-1.66.51-1.87,2.21-1.79,3.73-1.34-1.11-2.94-1.65-4.69-.6-1.45.87-1.76,2.27-1.82,3.79-1.19-.71-2.42,0-2.52,1.62,0,.17.07.28.19.33Z"/>
      <g>
        <path class="cls-5" d="M291.12,378.46c0-.14-.05-.26-.11-.35-.1-.21-.3-.37-.61-.36-9.31.15-18.61.3-27.92.45-.38,0-.73.32-.72.72.22,5.38-.23,10.93.66,16.26.83,4.97,6.28,5.35,10.49,5.59,5.4.31,13.1.5,16.2-2.35,3.59-3.31,2.19-14.68,2.01-19.95Z"/>
        <path class="cls-8" d="M266.62,388.97c-4.22,0-5.19-3.98-5.2-4.02-.05-.23.09-.46.32-.51.24-.05.46.09.52.32.04.16,1.02,4.07,5.6,3.24,3.05-.55,3.28-6.94,3.28-7,0-.21.17-.39.38-.41.2-.03.41.1.47.31.08.28.16.64.26,1.05.35,1.55.89,3.88,2,4.86,1.4,1.22,4.61,1.37,6.26.63,1.72-.67,2.55-3.08,2.49-5.26-.04-.31-.07-.64-.09-.96,0-.23.16-.42.39-.44.22-.02.43.14.47.36.05.32.08.64.09.96.36,2.34,1.73,4.29,3.48,4.82,1.39.41,2.73-.18,3.79-1.66.14-.19.41-.24.6-.1.19.14.24.41.1.6-1.27,1.78-3,2.51-4.73,1.98-1.48-.44-2.71-1.68-3.45-3.32-.4,1.73-1.33,3.25-2.79,3.82-1.91.85-5.47.7-7.16-.78-1.01-.88-1.58-2.53-1.96-4-.4,2.14-1.37,4.97-3.7,5.39-.5.09-.96.13-1.39.13Z"/>
        <path class="cls-2" d="M275.8,375.86c-2.96,0-13,.13-14.1,2.4-1.47,3.18,14.87,2.93,18.03,2.83,14.96-.49,16.74-5.98-3.92-5.23Z"/>
        <path class="cls-8" d="M275.8,375.29c-1.71,0-16.05-.25-14.74,3.63.64,1.89,3.67,2.06,5.28,2.29,3.55.49,7.17.51,10.75.5,3.17-.02,6.33-.18,9.46-.74,1.4-.25,4.43-.73,5.05-2.36,1.6-4.2-14.67-3.36-15.8-3.32-.74.02-.74,1.17,0,1.15,3.27-.1,6.52-.1,9.78.21.57.06,6.26.82,4.4,2.03-3.44,2.25-8.94,1.85-12.88,1.88-4.4.04-9.1.12-13.37-1.02-2.07-.55-.67-1.75.7-2.15,1.44-.42,2.98-.55,4.46-.69,2.29-.22,4.61-.26,6.92-.27.74,0,.74-1.15,0-1.15Z"/>
        <g>
          <path class="cls-5" d="M291.32,344.18c-.19,11.31-.59,22.62-.74,33.92,0,.55.85.55.86,0,.15-11.3.56-22.62.74-33.92.01-.55-.85-.55-.86,0h0Z"/>
          <path class="cls-5" d="M259.57,343.99c.35,11.45.5,22.86,1.7,34.26.06.54.92.55.86,0-1.2-11.4-1.35-22.81-1.7-34.26-.02-.55-.88-.55-.86,0h0Z"/>
          <path class="cls-5" d="M275.06,345.91c.96,11.54-.24,23.12.76,34.66.05.55.91.55.86,0-1.01-11.54.2-23.12-.76-34.66-.05-.55-.91-.55-.86,0h0Z"/>
        </g>
        <path class="cls-8" d="M335.61,245.67c-3.61-9.15-10.26-18.26-20.67-20.14-.08-.01-.15-.01-.22-.02-.06,0-.11-.03-.17-.03-7.77-.79-12.29,6.96-15.03,12.89-4.93,10.72-7.09,22.73-9.03,34.25-3.8,22.67-7.72,47.51-1.07,69.98.36,1.24,2.02,1.4,2.71.35,7.11-10.93,21.78-14.67,31.16-23.39,9.8-9.11,14.78-22.43,16.37-35.32,1.63-13.14.85-26.14-4.05-38.57Z"/>
        <path class="cls-3" d="M258.23,282.34c-3.45-18.65-11.6-37.3-21-53.83-.33-.57-.86-.76-1.37-.69-.21,0-.43.06-.66.17-9.45,4.86-14.53,14.17-17.71,23.79-3.42,10.32-5.21,22.9-3.62,33.7,2.05,13.98,9.95,26.33,20.36,35.88,8.52,7.84,19.13,12.91,26.75,21.87.85,1,2.54.16,2.53-1.03-.2-19.97-1.63-40.21-5.27-59.87Z"/>
        <path class="cls-3" d="M303.18,214.72c-8.35-4.56-18.11-5.33-27.33-3.5-.57.11-.89.45-1.01.86-5.58,7.96-6.4,19.09-7.21,28.4-1.29,14.64-.94,29.43-.29,44.09.88,19.76,2.54,39.57,5.06,59.2.1.78.6,1.45,1.48,1.45h16.99c.5,0,1.04-.27,1.28-.72,15.68-28.8,20.07-63.44,22.7-95.55.6-7.32,1.08-14.67,1.2-22.01.08-4.85-9.32-10.28-12.85-12.21Z"/>
        <path class="cls-8" d="M279.66,216.9c-2.66-15.33-29.72-3.1-36.88,2.14-6.62,4.84-8.41,9.42-8.84,16.82-.71,12.33-.04,24.73,1.52,36.97,2.15,16.81,6.41,33.54,13.25,49.13,2.08,4.75,4.36,9.39,6.86,13.94,1.13,2.06,3.62,8.6,6.06,9.26,3.59.97,8.52.05,12.24.05.74,0,1.19-.44,1.36-.97.06-.14.11-.3.12-.48,2.34-27.95,4.19-55.97,5.15-84,.48-14.06,1.58-28.91-.84-42.86Z"/>
        <path class="cls-5" d="M259.18,345.86c10.96,2.04,22.53,1.91,33.48,0,3.13-.54,1.8-4.74-1.32-4.19-10.03,1.74-20.8,1.87-30.84,0-3.12-.58-4.44,3.61-1.32,4.19h0Z"/>
      </g>
      <g>
        <path class="cls-6" d="M158.05,73.22c0-.06-.02-.11-.05-.15-.05-.09-.13-.16-.26-.16-4.03.07-8.06.13-12.1.2-.16,0-.32.14-.31.31.1,2.33-.1,4.73.29,7.04.36,2.15,2.72,2.32,4.54,2.42,2.34.14,5.68.22,7.02-1.02,1.56-1.43.95-6.36.87-8.64Z"/>
        <path class="cls-1" d="M147.44,77.78c-1.83,0-2.25-1.72-2.25-1.74-.02-.1.04-.2.14-.22.1-.02.2.04.22.14.02.07.44,1.76,2.43,1.4,1.32-.24,1.42-3,1.42-3.03,0-.09.07-.17.16-.18.09-.01.18.04.2.13.03.12.07.28.11.46.15.67.38,1.68.87,2.11.61.53,2,.59,2.71.27.74-.29,1.11-1.33,1.08-2.28-.02-.14-.03-.28-.04-.42,0-.1.07-.18.17-.19.09,0,.19.06.2.16.02.14.03.27.04.42.16,1.01.75,1.86,1.51,2.09.6.18,1.18-.08,1.64-.72.06-.08.18-.1.26-.04.08.06.1.18.04.26-.55.77-1.3,1.09-2.05.86-.64-.19-1.18-.73-1.5-1.44-.17.75-.58,1.41-1.21,1.65-.83.37-2.37.3-3.1-.34-.44-.38-.68-1.1-.85-1.73-.18.93-.6,2.15-1.61,2.34-.22.04-.42.06-.6.06Z"/>
        <path class="cls-7" d="M151.41,72.1c-1.28,0-5.63.06-6.11,1.04-.64,1.38,6.44,1.27,7.81,1.23,6.48-.21,7.25-2.59-1.7-2.26Z"/>
        <path class="cls-1" d="M151.41,71.85c-.74,0-6.95-.11-6.39,1.57.28.82,1.59.89,2.29.99,1.54.21,3.11.22,4.66.22,1.37,0,2.74-.08,4.1-.32.61-.11,1.92-.32,2.19-1.02.69-1.82-6.35-1.46-6.84-1.44-.32.01-.32.51,0,.5,1.41-.04,2.83-.05,4.24.09.25.03,2.71.35,1.91.88-1.49.97-3.87.8-5.58.82-1.91.02-3.94.05-5.79-.44-.89-.24-.29-.76.3-.93.62-.18,1.29-.24,1.93-.3.99-.1,2-.11,3-.12.32,0,.32-.5,0-.5Z"/>
        <g>
          <path class="cls-6" d="M158.14,58.37c-.08,4.9-.26,9.8-.32,14.7,0,.24.37.24.37,0,.07-4.9.24-9.8.33-14.7,0-.24-.37-.24-.37,0h0Z"/>
          <path class="cls-6" d="M144.38,58.29c.15,4.96.22,9.9.74,14.84.02.24.4.24.37,0-.52-4.94-.58-9.88-.74-14.84,0-.24-.38-.24-.37,0h0Z"/>
          <path class="cls-6" d="M151.09,59.12c.42,5-.11,10.02.33,15.02.02.24.39.24.37,0-.44-5,.09-10.02-.33-15.02-.02-.24-.39-.24-.37,0h0Z"/>
        </g>
        <path class="cls-1" d="M177.32,15.7c-1.56-3.96-4.44-7.91-8.96-8.73-.03,0-.06,0-.1,0-.03,0-.05-.01-.07-.02-3.37-.34-5.33,3.01-6.51,5.59-2.13,4.64-3.07,9.84-3.91,14.84-1.64,9.82-3.34,20.58-.46,30.32.16.53.87.61,1.17.15,3.08-4.73,9.44-6.36,13.5-10.13,4.25-3.95,6.4-9.72,7.09-15.3.7-5.69.37-11.33-1.76-16.71Z"/>
        <path class="cls-11" d="M143.8,31.58c-1.5-8.08-5.02-16.16-9.1-23.32-.14-.25-.37-.33-.59-.3-.09,0-.19.02-.29.08-4.09,2.11-6.3,6.14-7.67,10.31-1.48,4.47-2.25,9.92-1.57,14.6.89,6.06,4.31,11.4,8.82,15.54,3.69,3.4,8.29,5.6,11.58,9.48.37.43,1.1.07,1.1-.44-.09-8.65-.71-17.42-2.29-25.94Z"/>
        <path class="cls-11" d="M163.27,2.29c-3.62-1.97-7.84-2.31-11.84-1.52-.25.05-.39.2-.44.37-2.42,3.45-2.77,8.27-3.12,12.3-.56,6.34-.41,12.75-.12,19.1.38,8.56,1.1,17.14,2.19,25.65.04.34.26.63.64.63h7.36c.22,0,.45-.12.55-.31,6.79-12.48,8.7-27.49,9.83-41.4.26-3.17.47-6.35.52-9.54.03-2.1-4.04-4.46-5.57-5.29Z"/>
        <path class="cls-1" d="M153.08,3.23c-1.15-6.64-12.88-1.34-15.98.93-2.87,2.1-3.65,4.08-3.83,7.29-.31,5.34-.02,10.71.66,16.01.93,7.28,2.78,14.53,5.74,21.28.9,2.06,1.89,4.07,2.97,6.04.49.89,1.57,3.73,2.62,4.01,1.56.42,3.69.02,5.31.02.32,0,.52-.19.59-.42.03-.06.05-.13.05-.21,1.01-12.11,1.81-24.25,2.23-36.39.21-6.09.68-12.53-.36-18.57Z"/>
        <path class="cls-6" d="M144.21,59.1c4.75.89,9.76.83,14.5,0,1.36-.23.78-2.05-.57-1.82-4.34.76-9.01.81-13.36,0-1.35-.25-1.92,1.57-.57,1.82h0Z"/>
      </g>
      <g>
        <path class="cls-4" d="M171.02,171.01c-.7,0-1.3-.25-1.81-.76-.51-.51-.76-1.11-.76-1.81v-11.54h-29.56c-.7,0-1.3-.25-1.81-.76-.51-.51-.76-1.11-.76-1.81v-6.77c0-.89.21-1.67.62-2.34.41-.67.91-1.38,1.48-2.15l29.18-36.42c1.27-1.59,2.58-2.38,3.91-2.38h7.25c.7,0,1.3.25,1.81.76.51.51.76,1.11.76,1.81v38.14h8.2c.7,0,1.3.25,1.81.76.51.51.76,1.11.76,1.81v6.77c0,.7-.25,1.3-.76,1.81-.51.51-1.11.76-1.81.76h-8.2v11.54c0,.7-.25,1.3-.76,1.81-.51.51-1.11.76-1.81.76h-7.72ZM168.45,144.98v-20.4l-16.3,20.4h16.3Z"/>
        <path class="cls-4" d="M251.88,129.15c.06,1.21.09,2.54.09,4v8.96c0,1.46-.03,2.8-.09,4-.19,3.69-.75,7.1-1.67,10.25s-2.38,5.88-4.38,8.2c-2,2.32-4.61,4.13-7.82,5.44-3.21,1.3-7.13,1.95-11.78,1.95s-8.64-.65-11.82-1.95c-3.18-1.3-5.77-3.11-7.77-5.44-2-2.32-3.46-5.05-4.39-8.2-.92-3.15-1.48-6.56-1.67-10.25-.13-2.42-.19-5.16-.19-8.25s.06-5.83.19-8.25c.19-3.69.75-7.13,1.67-10.35.92-3.21,2.38-5.99,4.39-8.34,2-2.35,4.59-4.21,7.77-5.58,3.18-1.37,7.12-2.05,11.82-2.05s8.57.65,11.78,1.95c3.21,1.3,5.82,3.12,7.82,5.44,2,2.32,3.46,5.05,4.38,8.2s1.48,6.56,1.67,10.25ZM213.45,145.64c.32,4.58,1.41,8.12,3.29,10.63,1.87,2.51,5.04,3.77,9.49,3.77s7.61-1.25,9.49-3.77c1.87-2.51,2.97-6.05,3.29-10.63.13-2.42.19-5.08.19-8.01s-.06-5.59-.19-8.01c-.32-4.58-1.42-8.12-3.29-10.63-1.88-2.51-5.04-3.77-9.49-3.77s-7.61,1.26-9.49,3.77c-1.88,2.51-2.97,6.05-3.29,10.63-.13,2.42-.19,5.09-.19,8.01s.06,5.59.19,8.01Z"/>
        <path class="cls-4" d="M294.88,171.01c-.7,0-1.3-.25-1.81-.76-.51-.51-.76-1.11-.76-1.81v-11.54h-29.56c-.7,0-1.3-.25-1.81-.76-.51-.51-.76-1.11-.76-1.81v-6.77c0-.89.21-1.67.62-2.34.41-.67.9-1.38,1.48-2.15l29.18-36.42c1.27-1.59,2.57-2.38,3.91-2.38h7.25c.7,0,1.3.25,1.81.76.51.51.76,1.11.76,1.81v38.14h8.2c.7,0,1.3.25,1.81.76.51.51.76,1.11.76,1.81v6.77c0,.7-.25,1.3-.76,1.81-.51.51-1.11.76-1.81.76h-8.2v11.54c0,.7-.26,1.3-.76,1.81-.51.51-1.11.76-1.81.76h-7.72ZM292.3,144.98v-20.4l-16.3,20.4h16.3Z"/>
      </g>
    </g>
  </g>
</svg>