<svg width="30" height="30" viewBox="0 0 30 30" fill="none" xmlns="http://www.w3.org/2000/svg">
<g clip-path="url(#clip0_1_109)">
<path fill-rule="evenodd" clip-rule="evenodd" d="M22.0116 3.48298C20.7092 3.05682 18.9357 3.03738 15 3.03738C12.8901 3.03738 11.3813 3.03738 10.1925 3.11962C9.01722 3.19887 8.26358 3.35289 7.65348 3.6071C6.74609 3.98267 5.92158 4.53332 5.22704 5.22761C4.5325 5.92189 3.98154 6.7462 3.60563 7.65345C3.35143 8.26504 3.19741 9.01719 3.11815 10.1925C3.03741 11.3813 3.03741 12.8886 3.03741 15C3.03741 17.1114 3.03741 18.6187 3.11965 19.8075C3.1989 20.9828 3.35292 21.7364 3.60713 22.3465C3.98286 23.2537 4.53359 24.0779 5.22787 24.7722C5.92214 25.4664 6.74637 26.0172 7.65348 26.3929C8.26507 26.6471 9.01722 26.8011 10.1925 26.8804C11.3813 26.9626 12.8916 26.9626 15 26.9626C17.1084 26.9626 18.6187 26.9626 19.8075 26.8804C20.9828 26.8011 21.7365 26.6471 22.3466 26.3929C23.2537 26.0172 24.0779 25.4664 24.7722 24.7722C25.4665 24.0779 26.0172 23.2537 26.3929 22.3465C26.6471 21.7349 26.8011 20.9828 26.8804 19.8075C26.9626 18.6187 26.9626 17.1114 26.9626 15C26.9626 13.8546 26.9626 12.8826 26.9477 12.0333C26.9413 11.6367 27.0928 11.2538 27.3687 10.9689C27.6447 10.684 28.0225 10.5204 28.4191 10.514C28.8157 10.5077 29.1985 10.6591 29.4835 10.9351C29.7684 11.211 29.932 11.5888 29.9383 11.9854C29.9533 12.8602 29.9533 13.8561 29.9533 14.991V15.0553C29.9533 17.0994 29.9533 18.7084 29.8636 20.0108C29.7739 21.3387 29.5854 22.4542 29.1563 23.492C28.0939 26.0564 26.0565 28.0939 23.492 29.1563C22.4542 29.5854 21.3387 29.7738 20.0109 29.865C18.7099 29.9533 17.098 29.9533 15.0554 29.9533H14.9447C12.9006 29.9533 11.2916 29.9533 9.98918 29.8635C8.66133 29.7738 7.54582 29.5854 6.50806 29.1563C3.9436 28.0939 1.90612 26.0564 0.843762 23.492C0.414603 22.4542 0.226192 21.3387 0.134977 20.0108C0.046753 18.7099 0.0467529 17.0994 0.0467529 15.0553V14.9447C0.0467529 12.9021 0.0467528 11.2916 0.136472 9.98915C0.226192 8.6613 0.414603 7.54579 0.843762 6.50803C1.90577 3.94385 3.94267 1.90642 6.50657 0.843732C7.54432 0.414573 8.65984 0.226162 9.98769 0.134947C11.2901 0.0467224 12.9006 0.0467224 14.9447 0.0467224H15.3215C18.8355 0.0467224 21.1249 0.0467225 22.9417 0.640367C23.3082 0.771786 23.609 1.04098 23.7801 1.39071C23.9513 1.74045 23.9792 2.14314 23.8581 2.51317C23.737 2.88321 23.4763 3.1914 23.1315 3.37223C22.7866 3.55305 22.3849 3.59375 22.0116 3.48298ZM29.7499 4.52672C29.849 4.69637 29.9136 4.88387 29.9401 5.0785C29.9666 5.27314 29.9546 5.47109 29.9046 5.66106C29.8546 5.85102 29.7677 6.02928 29.6488 6.18564C29.5299 6.342 29.3813 6.4734 29.2116 6.57233L28.8797 6.76523C23.5042 9.90089 19.1852 14.5676 16.4744 20.1693C16.3705 20.3841 16.2168 20.5709 16.0261 20.7141C15.8353 20.8573 15.613 20.9528 15.3778 20.9926C15.1426 21.0324 14.9013 21.0154 14.6741 20.9429C14.4468 20.8704 14.2402 20.7447 14.0714 20.5761L8.07068 14.5798C7.92452 14.4427 7.8074 14.2777 7.72627 14.0945C7.64514 13.9113 7.60166 13.7137 7.5984 13.5133C7.59515 13.313 7.63219 13.114 7.70733 12.9283C7.78247 12.7425 7.89417 12.5738 8.0358 12.4321C8.17743 12.2903 8.3461 12.1785 8.53179 12.1032C8.71749 12.028 8.91641 11.9908 9.11675 11.9939C9.31709 11.997 9.51477 12.0403 9.69803 12.1213C9.8813 12.2023 10.0464 12.3194 10.1836 12.4654L14.7443 17.0217C17.7346 11.693 22.0943 7.26004 27.3724 4.1813L27.7043 3.98841C27.874 3.88938 28.0615 3.82476 28.2561 3.79822C28.4507 3.77169 28.6487 3.78376 28.8387 3.83375C29.0286 3.88374 29.2069 3.97067 29.3632 4.08957C29.5196 4.20848 29.651 4.35702 29.7499 4.52672Z" fill="white"/>
</g>
<defs>
<clipPath id="clip0_1_109">
<rect width="30" height="30" fill="white"/>
</clipPath>
</defs>
</svg>
