<svg width="27" height="27" viewBox="0 0 27 27" fill="none" xmlns="http://www.w3.org/2000/svg">
<g clip-path="url(#clip0_79_891)">
<path fill-rule="evenodd" clip-rule="evenodd" d="M19.8104 3.13469C18.6382 2.75114 17.0421 2.73364 13.4999 2.73364C11.601 2.73364 10.2431 2.73364 9.17321 2.80766C8.11541 2.87899 7.43713 3.0176 6.88805 3.24639C6.0714 3.58441 5.32933 4.07999 4.70425 4.70485C4.07916 5.3297 3.5833 6.07158 3.24498 6.88811C3.0162 7.43854 2.87758 8.11547 2.80625 9.17327C2.73358 10.2432 2.73358 11.5997 2.73358 13.5C2.73358 15.4003 2.73358 16.7568 2.8076 17.8267C2.87893 18.8845 3.01754 19.5628 3.24633 20.1119C3.58449 20.9283 4.08015 21.6701 4.70499 22.2949C5.32984 22.9198 6.07164 23.4154 6.88805 23.7536C7.43848 23.9824 8.11541 24.121 9.17321 24.1923C10.2431 24.2664 11.6024 24.2664 13.4999 24.2664C15.3975 24.2664 16.7568 24.2664 17.8267 24.1923C18.8845 24.121 19.5627 23.9824 20.1118 23.7536C20.9282 23.4154 21.67 22.9198 22.2949 22.2949C22.9197 21.6701 23.4154 20.9283 23.7535 20.1119C23.9823 19.5615 24.1209 18.8845 24.1923 17.8267C24.2663 16.7568 24.2663 15.4003 24.2663 13.5C24.2663 12.4691 24.2663 11.5944 24.2528 10.8299C24.2471 10.473 24.3834 10.1284 24.6318 9.87201C24.8801 9.61559 25.2202 9.46832 25.5771 9.46261C25.934 9.4569 26.2786 9.59322 26.535 9.84156C26.7914 10.0899 26.9387 10.4299 26.9444 10.7869C26.9579 11.5742 26.9579 12.4705 26.9579 13.4919V13.5498C26.9579 15.3895 26.9579 16.8376 26.8771 18.0098C26.7964 19.2048 26.6268 20.2088 26.2406 21.1428C25.2844 23.4508 23.4507 25.2845 21.1427 26.2406C20.2087 26.6269 19.2048 26.7964 18.0097 26.8785C16.8389 26.9579 15.3881 26.9579 13.5497 26.9579H13.4501C11.6104 26.9579 10.1624 26.9579 8.99018 26.8772C7.79511 26.7964 6.79115 26.6269 5.85717 26.2406C3.54915 25.2845 1.71542 23.4508 0.759301 21.1428C0.373058 20.2088 0.203488 19.2048 0.121394 18.0098C0.0419922 16.8389 0.0419922 15.3895 0.0419922 13.5498V13.4502C0.0419922 11.6118 0.0419921 10.1624 0.12274 8.99024C0.203487 7.79518 0.373058 6.79121 0.759301 5.85723C1.71511 3.54947 3.54832 1.71578 5.85582 0.759362C6.7898 0.373119 7.79377 0.203549 8.98883 0.121455C10.161 0.0420532 11.6104 0.0420532 13.4501 0.0420532H13.7893C16.9519 0.0420532 19.0123 0.0420533 20.6474 0.576334C20.9773 0.69461 21.248 0.936883 21.402 1.25164C21.5561 1.5664 21.5812 1.92883 21.4722 2.26186C21.3632 2.59489 21.1286 2.87226 20.8182 3.03501C20.5079 3.19775 20.1463 3.23438 19.8104 3.13469ZM26.7749 4.07405C26.864 4.22674 26.9221 4.39549 26.946 4.57066C26.9699 4.74583 26.959 4.92398 26.914 5.09495C26.869 5.26592 26.7908 5.42635 26.6838 5.56708C26.5768 5.7078 26.4431 5.82606 26.2904 5.9151L25.9916 6.08871C21.1537 8.91081 17.2666 13.1108 14.8269 18.1524C14.7334 18.3457 14.595 18.5138 14.4234 18.6427C14.2517 18.7715 14.0516 18.8575 13.84 18.8933C13.6283 18.9292 13.4111 18.9138 13.2066 18.8486C13.002 18.7834 12.8161 18.6702 12.6642 18.5185L7.26352 13.1218C7.13198 12.9985 7.02657 12.8499 6.95356 12.6851C6.88054 12.5202 6.8414 12.3423 6.83848 12.162C6.83555 11.9817 6.86889 11.8026 6.93651 11.6355C7.00414 11.4683 7.10467 11.3164 7.23214 11.1889C7.3596 11.0613 7.51141 10.9607 7.67853 10.8929C7.84565 10.8252 8.02468 10.7917 8.20499 10.7945C8.3853 10.7973 8.56321 10.8363 8.72814 10.9092C8.89308 10.9821 9.04169 11.0874 9.16513 11.2189L13.2698 15.3195C15.9611 10.5237 19.8848 6.53404 24.635 3.76317L24.9338 3.58957C25.0865 3.50045 25.2552 3.44229 25.4304 3.4184C25.6056 3.39452 25.7837 3.40539 25.9547 3.45038C26.1257 3.49537 26.2861 3.57361 26.4268 3.68062C26.5675 3.78763 26.6858 3.92132 26.7749 4.07405Z" fill="#FC573B"/>
</g>
<defs>
<clipPath id="clip0_79_891">
<rect width="27" height="27" fill="white"/>
</clipPath>
</defs>
</svg>
