<svg width="124" height="124" viewBox="0 0 124 124" fill="none" xmlns="http://www.w3.org/2000/svg">
<path d="M41.3647 3.43213L82.0541 3.43213C75.686 1.21296 68.8425 0 61.7094 0C54.5764 0 47.7397 1.21296 41.3647 3.43213Z" fill="#FD6844"/>
<path d="M31.3784 7.95312C28.8353 9.39352 26.4025 11.0062 24.0938 12.7774L99.318 12.7774C97.0162 11.0062 94.5834 9.39352 92.0334 7.95312L31.3784 7.95312Z" fill="#FD6844"/>
<path d="M14.356 22.1227L109.063 22.1227C107.651 20.4342 106.148 18.8284 104.563 17.2985L18.8563 17.2985C17.2712 18.8284 15.7688 20.4342 14.356 22.1227Z" fill="#FD6844"/>
<path d="M10.9098 26.637C9.82777 28.1945 8.82157 29.8072 7.88428 31.4612L115.528 31.4612C114.59 29.8072 113.584 28.1945 112.502 26.637L10.9098 26.637Z" fill="#FD6844"/>
<path d="M5.57561 35.9822C4.85197 37.5535 4.19035 39.1662 3.59766 40.8065L119.808 40.8065C119.215 39.1662 118.553 37.5535 117.83 35.9822L5.57561 35.9822Z" fill="#FD6844"/>
<path d="M2.17117 45.3275C1.73698 46.9126 1.36482 48.5184 1.05469 50.1518L122.372 50.1518C122.061 48.5184 121.689 46.9126 121.248 45.3275L2.17117 45.3275Z" fill="#FD6844"/>
<path d="M0.365209 54.666C0.186021 56.258 0.0619705 57.8638 0.00683594 59.4903L123.419 59.4903C123.364 57.8638 123.24 56.258 123.06 54.666L0.365209 54.666Z" fill="#FD6844"/>
<path d="M0 64.0112C0.0551346 65.6377 0.17919 67.2435 0.358378 68.8355L123.047 68.8355C123.226 67.2435 123.35 65.6377 123.405 64.0112L0 64.0112Z" fill="#FD6844"/>
<path d="M1.04736 73.3566C1.3575 74.9899 1.72965 76.5957 2.17073 78.1808L121.248 78.1808C121.682 76.5957 122.054 74.9899 122.371 73.3566L1.04736 73.3566Z" fill="#FD6844"/>
<path d="M3.60449 82.7019C4.19719 84.3422 4.8588 85.9548 5.58244 87.5262L117.843 87.5262C118.567 85.9548 119.229 84.3422 119.821 82.7019L3.60449 82.7019Z" fill="#FD6844"/>
<path d="M7.88428 92.0404C8.82157 93.6944 9.82777 95.3071 10.9098 96.8647L112.509 96.8647C113.591 95.3071 114.597 93.6944 115.535 92.0404L7.88428 92.0404Z" fill="#FD6844"/>
<path d="M14.356 101.386C15.7688 103.074 17.2712 104.68 18.8563 106.21L104.563 106.21C106.148 104.68 107.651 103.074 109.063 101.386L14.356 101.386Z" fill="#FD6844"/>
<path d="M24.0938 110.731C26.3956 112.502 28.8284 114.115 31.3784 115.555L92.0334 115.555C94.5765 114.115 97.0093 112.502 99.318 110.731L24.0938 110.731Z" fill="#FD6844"/>
<path d="M82.0472 120.069H41.3647C47.7328 122.289 54.5764 123.501 61.7094 123.501C68.8425 123.501 75.6792 122.289 82.0541 120.069H82.0472Z" fill="#FD6844"/>
</svg>
