<svg width="92" height="65" viewBox="0 0 92 65" fill="none" xmlns="http://www.w3.org/2000/svg">
<g clip-path="url(#clip0_1_249)">
<path d="M46 43.1386C45.1729 43.1386 44.3458 42.8334 43.7106 42.2161L32.2304 31.1527L20.7503 42.2161C19.4666 43.4506 17.4485 43.4506 16.1648 42.2161L0 26.6464L4.58544 21.8613L18.4543 35.2277L29.9344 24.1643C31.2181 22.9298 33.2362 22.9298 34.5198 24.1643L46 35.2277L57.4802 24.1643C58.7638 22.9298 60.7819 22.9298 62.0656 24.1643L73.5457 35.2277L87.4146 21.8613L92 26.6464L75.8418 42.2161C74.5647 43.4506 72.54 43.4506 71.2563 42.2161L59.7762 31.1527L48.296 42.2161C47.6542 42.8334 46.8271 43.1386 46.0066 43.1386H46Z" fill="#FFE137"/>
<path d="M46 21.2839C45.1729 21.2839 44.3458 20.9787 43.7106 20.3614L32.2304 9.29804L20.7503 20.3614C19.4666 21.5959 17.4485 21.5959 16.1648 20.3614L0 4.78507L4.58544 0L18.4543 13.3663L29.9278 2.2963C31.2115 1.06187 33.2296 1.06187 34.5132 2.2963L45.9934 13.3597L57.4802 2.2963C58.7638 1.06187 60.7819 1.06187 62.0656 2.2963L73.5457 13.3597L87.4146 0L92 4.78507L75.8418 20.3548C74.5647 21.5892 72.54 21.5892 71.2563 20.3548L59.7762 9.2914L48.296 20.3548C47.6542 20.972 46.8271 21.2773 46.0066 21.2773L46 21.2839Z" fill="#FFE137"/>
<path d="M46 65C45.1729 65 44.3458 64.6947 43.7106 64.0775L32.2304 53.0141L20.7503 64.0775C19.4666 65.3119 17.4485 65.3119 16.1648 64.0775L0 48.5011L4.58544 43.7161L18.4543 57.0824L29.9344 46.019C31.2181 44.7846 33.2362 44.7846 34.5198 46.019L46 57.0824L57.4802 46.019C58.7638 44.7846 60.7819 44.7846 62.0656 46.019L73.5457 57.0824L87.4146 43.7161L92 48.5011L75.8418 64.0709C74.5647 65.3053 72.54 65.3053 71.2563 64.0709L59.7762 53.0075L48.296 64.0709C47.6542 64.6881 46.8271 64.9934 46.0066 64.9934L46 65Z" fill="#FFE137"/>
</g>
<defs>
<clipPath id="clip0_1_249">
<rect width="92" height="65" fill="white"/>
</clipPath>
</defs>
</svg>
