<svg width="141" height="74" viewBox="0 0 141 74" fill="none" xmlns="http://www.w3.org/2000/svg">
<path d="M130.236 4.72355C130.236 2.1147 132.341 0 134.939 0C137.536 0 139.641 2.1147 139.641 4.72355C139.641 7.3324 137.536 9.4471 134.939 9.4471C132.341 9.4471 130.236 7.3324 130.236 4.72355ZM108.53 4.72355C108.53 2.1147 110.635 0 113.233 0C115.83 0 117.936 2.1147 117.936 4.72355C117.936 7.3324 115.83 9.4471 113.233 9.4471C110.635 9.4471 108.53 7.3324 108.53 4.72355ZM86.8237 4.72355C86.8237 2.1147 88.9292 0 91.5266 0C94.1241 0 96.2296 2.1147 96.2296 4.72355C96.2296 7.3324 94.1241 9.4471 91.5266 9.4471C88.9292 9.4471 86.8237 7.3324 86.8237 4.72355ZM65.1178 4.72355C65.1178 2.1147 67.2233 0 69.8207 0C72.4182 0 74.5237 2.1147 74.5237 4.72355C74.5237 7.3324 72.4182 9.4471 69.8207 9.4471C67.2233 9.4471 65.1178 7.3324 65.1178 4.72355ZM43.4118 4.72355C43.4118 2.1147 45.5173 0 48.1148 0C50.7123 0 52.8177 2.1147 52.8177 4.72355C52.8177 7.3324 50.7123 9.4471 48.1148 9.4471C45.5173 9.4471 43.4118 7.3324 43.4118 4.72355ZM21.7059 4.72355C21.7059 2.1147 23.8114 0 26.4089 0C29.0064 0 31.1118 2.1147 31.1118 4.72355C31.1118 7.3324 29.0064 9.4471 26.4089 9.4471C23.8114 9.4471 21.7059 7.3324 21.7059 4.72355ZM0 4.72355C0 2.1147 2.10547 0 4.70295 0C7.30043 0 9.4059 2.1147 9.4059 4.72355C9.4059 7.3324 7.30043 9.4471 4.70295 9.4471C2.10547 9.4471 0 7.3324 0 4.72355Z" fill="#FFB6A4"/>
<path d="M130.359 26.074C130.359 23.4651 132.464 21.3504 135.062 21.3504C137.659 21.3504 139.764 23.4651 139.764 26.074C139.764 28.6828 137.659 30.7975 135.062 30.7975C132.464 30.7975 130.359 28.6828 130.359 26.074ZM108.653 26.074C108.653 23.4651 110.758 21.3504 113.356 21.3504C115.953 21.3504 118.059 23.4651 118.059 26.074C118.059 28.6828 115.953 30.7975 113.356 30.7975C110.758 30.7975 108.653 28.6828 108.653 26.074ZM86.9467 26.074C86.9467 23.4651 89.0522 21.3504 91.6497 21.3504C94.2472 21.3504 96.3526 23.4651 96.3526 26.074C96.3526 28.6828 94.2472 30.7975 91.6497 30.7975C89.0522 30.7975 86.9467 28.6828 86.9467 26.074ZM65.2408 26.074C65.2408 23.4651 67.3463 21.3504 69.9438 21.3504C72.5412 21.3504 74.6467 23.4651 74.6467 26.074C74.6467 28.6828 72.5412 30.7975 69.9438 30.7975C67.3463 30.7975 65.2408 28.6828 65.2408 26.074ZM43.5349 26.074C43.5349 23.4651 45.6404 21.3504 48.2378 21.3504C50.8353 21.3504 52.9408 23.4651 52.9408 26.074C52.9408 28.6828 50.8353 30.7975 48.2378 30.7975C45.6404 30.7975 43.5349 28.6828 43.5349 26.074ZM21.829 26.074C21.829 23.4651 23.9344 21.3504 26.5319 21.3504C29.1294 21.3504 31.2349 23.4651 31.2349 26.074C31.2349 28.6828 29.1294 30.7975 26.5319 30.7975C23.9344 30.7975 21.829 28.6828 21.829 26.074ZM0.123047 26.074C0.123047 23.4651 2.22852 21.3504 4.826 21.3504C7.42347 21.3504 9.52895 23.4651 9.52895 26.074C9.52895 28.6828 7.42347 30.7975 4.826 30.7975C2.22852 30.7975 0.123047 28.6828 0.123047 26.074Z" fill="#FFB6A4"/>
<path d="M130.482 47.4244C130.482 44.8156 132.587 42.7009 135.185 42.7009C137.782 42.7009 139.888 44.8156 139.888 47.4244C139.888 50.0333 137.782 52.148 135.185 52.148C132.587 52.148 130.482 50.0333 130.482 47.4244ZM108.776 47.4244C108.776 44.8156 110.881 42.7009 113.479 42.7009C116.076 42.7009 118.182 44.8156 118.182 47.4244C118.182 50.0333 116.076 52.148 113.479 52.148C110.881 52.148 108.776 50.0333 108.776 47.4244ZM87.0698 47.4244C87.0698 44.8156 89.1753 42.7009 91.7727 42.7009C94.3702 42.7009 96.4757 44.8156 96.4757 47.4244C96.4757 50.0333 94.3702 52.148 91.7727 52.148C89.1753 52.148 87.0698 50.0333 87.0698 47.4244ZM65.3639 47.4244C65.3639 44.8156 67.4693 42.7009 70.0668 42.7009C72.6643 42.7009 74.7698 44.8156 74.7698 47.4244C74.7698 50.0333 72.6643 52.148 70.0668 52.148C67.4693 52.148 65.3639 50.0333 65.3639 47.4244ZM43.6579 47.4244C43.6579 44.8156 45.7634 42.7009 48.3609 42.7009C50.9584 42.7009 53.0638 44.8156 53.0638 47.4244C53.0638 50.0333 50.9584 52.148 48.3609 52.148C45.7634 52.148 43.6579 50.0333 43.6579 47.4244ZM21.952 47.4244C21.952 44.8156 24.0575 42.7009 26.655 42.7009C29.2524 42.7009 31.3579 44.8156 31.3579 47.4244C31.3579 50.0333 29.2524 52.148 26.655 52.148C24.0575 52.148 21.952 50.0333 21.952 47.4244ZM0.246094 47.4244C0.246094 44.8156 2.35157 42.7009 4.94904 42.7009C7.54652 42.7009 9.65199 44.8156 9.65199 47.4244C9.65199 50.0333 7.54652 52.148 4.94904 52.148C2.35157 52.148 0.246094 50.0333 0.246094 47.4244Z" fill="#FFB6A4"/>
<path d="M130.605 68.7748C130.605 66.166 132.71 64.0513 135.308 64.0513C137.905 64.0513 140.011 66.166 140.011 68.7748C140.011 71.3837 137.905 73.4984 135.308 73.4984C132.71 73.4984 130.605 71.3837 130.605 68.7748ZM108.899 68.7748C108.899 66.166 111.004 64.0513 113.602 64.0513C116.199 64.0513 118.305 66.166 118.305 68.7748C118.305 71.3837 116.199 73.4984 113.602 73.4984C111.004 73.4984 108.899 71.3837 108.899 68.7748ZM87.1928 68.7748C87.1928 66.166 89.2983 64.0513 91.8958 64.0513C94.4933 64.0513 96.5987 66.166 96.5987 68.7748C96.5987 71.3837 94.4933 73.4984 91.8958 73.4984C89.2983 73.4984 87.1928 71.3837 87.1928 68.7748ZM65.4869 68.7748C65.4869 66.166 67.5924 64.0513 70.1899 64.0513C72.7873 64.0513 74.8928 66.166 74.8928 68.7748C74.8928 71.3837 72.7873 73.4984 70.1899 73.4984C67.5924 73.4984 65.4869 71.3837 65.4869 68.7748ZM43.781 68.7748C43.781 66.166 45.8865 64.0513 48.4839 64.0513C51.0814 64.0513 53.1869 66.166 53.1869 68.7748C53.1869 71.3837 51.0814 73.4984 48.4839 73.4984C45.8865 73.4984 43.781 71.3837 43.781 68.7748ZM22.0751 68.7748C22.0751 66.166 24.1805 64.0513 26.778 64.0513C29.3755 64.0513 31.481 66.166 31.481 68.7748C31.481 71.3837 29.3755 73.4984 26.778 73.4984C24.1805 73.4984 22.0751 71.3837 22.0751 68.7748ZM0.369141 68.7748C0.369141 66.166 2.47462 64.0513 5.07209 64.0513C7.66957 64.0513 9.77504 66.166 9.77504 68.7748C9.77504 71.3837 7.66957 73.4984 5.07209 73.4984C2.47462 73.4984 0.369141 71.3837 0.369141 68.7748Z" fill="#FFB6A4"/>
</svg>
