<svg width="134" height="70" viewBox="0 0 134 70" fill="none" xmlns="http://www.w3.org/2000/svg">
<path d="M124.053 4.47969C124.053 2.00552 126.058 0 128.533 0C131.007 0 133.012 2.00552 133.012 4.47969C133.012 6.95385 131.007 8.95937 128.533 8.95937C126.058 8.95937 124.053 6.95385 124.053 4.47969ZM103.377 4.47969C103.377 2.00552 105.383 0 107.857 0C110.331 0 112.337 2.00552 112.337 4.47969C112.337 6.95385 110.331 8.95937 107.857 8.95937C105.383 8.95937 103.377 6.95385 103.377 4.47969ZM82.7019 4.47969C82.7019 2.00552 84.7074 0 87.1816 0C89.6558 0 91.6613 2.00552 91.6613 4.47969C91.6613 6.95385 89.6558 8.95937 87.1816 8.95937C84.7074 8.95937 82.7019 6.95385 82.7019 4.47969ZM62.0264 4.47969C62.0264 2.00552 64.032 0 66.5061 0C68.9803 0 70.9858 2.00552 70.9858 4.47969C70.9858 6.95385 68.9803 8.95937 66.5061 8.95937C64.032 8.95937 62.0264 6.95385 62.0264 4.47969ZM41.351 4.47969C41.351 2.00552 43.3565 0 45.8306 0C48.3048 0 50.3103 2.00552 50.3103 4.47969C50.3103 6.95385 48.3048 8.95937 45.8306 8.95937C43.3565 8.95937 41.351 6.95385 41.351 4.47969ZM20.6755 4.47969C20.6755 2.00552 22.681 0 25.1552 0C27.6293 0 29.6349 2.00552 29.6349 4.47969C29.6349 6.95385 27.6293 8.95937 25.1552 8.95937C22.681 8.95937 20.6755 6.95385 20.6755 4.47969ZM0 4.47969C0 2.00552 2.00552 0 4.47969 0C6.95385 0 8.95937 2.00552 8.95937 4.47969C8.95937 6.95385 6.95385 8.95937 4.47969 8.95937C2.00552 8.95937 0 6.95385 0 4.47969Z" fill="#FFB846"/>
<path d="M124.17 24.7279C124.17 22.2537 126.176 20.2482 128.65 20.2482C131.124 20.2482 133.129 22.2537 133.129 24.7279C133.129 27.202 131.124 29.2075 128.65 29.2075C126.176 29.2075 124.17 27.202 124.17 24.7279ZM103.495 24.7279C103.495 22.2537 105.5 20.2482 107.974 20.2482C110.448 20.2482 112.454 22.2537 112.454 24.7279C112.454 27.202 110.448 29.2075 107.974 29.2075C105.5 29.2075 103.495 27.202 103.495 24.7279ZM82.8191 24.7279C82.8191 22.2537 84.8246 20.2482 87.2988 20.2482C89.773 20.2482 91.7785 22.2537 91.7785 24.7279C91.7785 27.202 89.773 29.2075 87.2988 29.2075C84.8246 29.2075 82.8191 27.202 82.8191 24.7279ZM62.1436 24.7279C62.1436 22.2537 64.1491 20.2482 66.6233 20.2482C69.0975 20.2482 71.103 22.2537 71.103 24.7279C71.103 27.202 69.0975 29.2075 66.6233 29.2075C64.1491 29.2075 62.1436 27.202 62.1436 24.7279ZM41.4681 24.7279C41.4681 22.2537 43.4737 20.2482 45.9478 20.2482C48.422 20.2482 50.4275 22.2537 50.4275 24.7279C50.4275 27.202 48.422 29.2075 45.9478 29.2075C43.4737 29.2075 41.4681 27.202 41.4681 24.7279ZM20.7927 24.7279C20.7927 22.2537 22.7982 20.2482 25.2724 20.2482C27.7465 20.2482 29.752 22.2537 29.752 24.7279C29.752 27.202 27.7465 29.2075 25.2724 29.2075C22.7982 29.2075 20.7927 27.202 20.7927 24.7279ZM0.117188 24.7279C0.117188 22.2537 2.12271 20.2482 4.59687 20.2482C7.07104 20.2482 9.07656 22.2537 9.07656 24.7279C9.07656 27.202 7.07104 29.2075 4.59687 29.2075C2.12271 29.2075 0.117188 27.202 0.117188 24.7279Z" fill="#FFB846"/>
<path d="M124.287 44.976C124.287 42.5019 126.293 40.4963 128.767 40.4963C131.241 40.4963 133.247 42.5019 133.247 44.976C133.247 47.4502 131.241 49.4557 128.767 49.4557C126.293 49.4557 124.287 47.4502 124.287 44.976ZM103.612 44.976C103.612 42.5019 105.617 40.4963 108.091 40.4963C110.566 40.4963 112.571 42.5019 112.571 44.976C112.571 47.4502 110.566 49.4557 108.091 49.4557C105.617 49.4557 103.612 47.4502 103.612 44.976ZM82.9363 44.976C82.9363 42.5019 84.9418 40.4963 87.416 40.4963C89.8901 40.4963 91.8957 42.5019 91.8957 44.976C91.8957 47.4502 89.8901 49.4557 87.416 49.4557C84.9418 49.4557 82.9363 47.4502 82.9363 44.976ZM62.2608 44.976C62.2608 42.5019 64.2663 40.4963 66.7405 40.4963C69.2147 40.4963 71.2202 42.5019 71.2202 44.976C71.2202 47.4502 69.2147 49.4557 66.7405 49.4557C64.2663 49.4557 62.2608 47.4502 62.2608 44.976ZM41.5853 44.976C41.5853 42.5019 43.5909 40.4963 46.065 40.4963C48.5392 40.4963 50.5447 42.5019 50.5447 44.976C50.5447 47.4502 48.5392 49.4557 46.065 49.4557C43.5909 49.4557 41.5853 47.4502 41.5853 44.976ZM20.9099 44.976C20.9099 42.5019 22.9154 40.4963 25.3895 40.4963C27.8637 40.4963 29.8692 42.5019 29.8692 44.976C29.8692 47.4502 27.8637 49.4557 25.3895 49.4557C22.9154 49.4557 20.9099 47.4502 20.9099 44.976ZM0.234375 44.976C0.234375 42.5019 2.2399 40.4963 4.71406 40.4963C7.18823 40.4963 9.19375 42.5019 9.19375 44.976C9.19375 47.4502 7.18823 49.4557 4.71406 49.4557C2.2399 49.4557 0.234375 47.4502 0.234375 44.976Z" fill="#FFB846"/>
<path d="M124.404 65.2243C124.404 62.7502 126.41 60.7446 128.884 60.7446C131.358 60.7446 133.364 62.7502 133.364 65.2243C133.364 67.6985 131.358 69.704 128.884 69.704C126.41 69.704 124.404 67.6985 124.404 65.2243ZM103.729 65.2243C103.729 62.7502 105.734 60.7446 108.209 60.7446C110.683 60.7446 112.688 62.7502 112.688 65.2243C112.688 67.6985 110.683 69.704 108.209 69.704C105.734 69.704 103.729 67.6985 103.729 65.2243ZM83.0535 65.2243C83.0535 62.7502 85.059 60.7446 87.5332 60.7446C90.0073 60.7446 92.0129 62.7502 92.0129 65.2243C92.0129 67.6985 90.0073 69.704 87.5332 69.704C85.059 69.704 83.0535 67.6985 83.0535 65.2243ZM62.378 65.2243C62.378 62.7502 64.3835 60.7446 66.8577 60.7446C69.3319 60.7446 71.3374 62.7502 71.3374 65.2243C71.3374 67.6985 69.3319 69.704 66.8577 69.704C64.3835 69.704 62.378 67.6985 62.378 65.2243ZM41.7025 65.2243C41.7025 62.7502 43.708 60.7446 46.1822 60.7446C48.6564 60.7446 50.6619 62.7502 50.6619 65.2243C50.6619 67.6985 48.6564 69.704 46.1822 69.704C43.708 69.704 41.7025 67.6985 41.7025 65.2243ZM21.027 65.2243C21.027 62.7502 23.0326 60.7446 25.5067 60.7446C27.9809 60.7446 29.9864 62.7502 29.9864 65.2243C29.9864 67.6985 27.9809 69.704 25.5067 69.704C23.0326 69.704 21.027 67.6985 21.027 65.2243ZM0.351563 65.2243C0.351563 62.7502 2.35708 60.7446 4.83125 60.7446C7.30542 60.7446 9.31094 62.7502 9.31094 65.2243C9.31094 67.6985 7.30542 69.704 4.83125 69.704C2.35708 69.704 0.351563 67.6985 0.351563 65.2243Z" fill="#FFB846"/>
</svg>
