<svg width="85" height="15" viewBox="0 0 85 15" fill="none" xmlns="http://www.w3.org/2000/svg">
<g clip-path="url(#clip0_1_295)">
<path d="M69.8726 1.5414C69.8726 1.14504 70.0236 0.753084 70.3256 0.453612C70.9341 -0.149735 71.9156 -0.149735 72.5241 0.453612L84.5471 12.3664C85.1555 12.9698 85.1555 13.943 84.5471 14.5464C83.9386 15.1497 82.957 15.1497 82.3486 14.5464L70.3301 2.62919C70.028 2.32971 69.877 1.93335 69.877 1.5414L69.8726 1.5414Z" fill="white"/>
<path d="M69.8725 13.4586C69.8725 13.0622 70.0235 12.6703 70.3255 12.3708L82.3485 0.453613C82.9525 -0.149735 83.9385 -0.149734 84.547 0.453613C85.151 1.05256 85.151 2.03024 84.547 2.62919L72.5285 14.5464C71.92 15.1497 70.9384 15.1497 70.33 14.5464C70.028 14.2469 69.8769 13.8506 69.8769 13.4586L69.8725 13.4586Z" fill="white"/>
<path d="M34.9361 1.5414C34.9361 1.14504 35.0871 0.753084 35.3891 0.453612C35.9976 -0.149735 36.9792 -0.149735 37.5876 0.453612L49.6061 12.3708C50.2146 12.9742 50.2146 13.9475 49.6061 14.5508C48.9977 15.1541 48.0161 15.1541 47.4076 14.5508L35.3891 2.63359C35.0871 2.33412 34.9361 1.93776 34.9361 1.5458L34.9361 1.5414Z" fill="white"/>
<path d="M34.9361 13.4586C34.9361 13.0622 35.0871 12.6703 35.3891 12.3708L47.4076 0.453613C48.0161 -0.149735 48.9977 -0.149734 49.6061 0.453613C50.2146 1.05696 50.2146 2.03024 49.6061 2.63359L37.5876 14.5508C36.9792 15.1541 35.9976 15.1541 35.3891 14.5508C35.0871 14.2513 34.9361 13.855 34.9361 13.463L34.9361 13.4586Z" fill="white"/>
<path d="M8.16507e-05 1.5414C8.1668e-05 1.14504 0.151092 0.753084 0.453109 0.453612C1.06158 -0.149735 2.04314 -0.149735 2.65161 0.453612L14.6701 12.3708C15.2786 12.9742 15.2786 13.9475 14.6701 14.5508C14.0616 15.1541 13.0801 15.1541 12.4716 14.5508L0.453109 2.63359C0.151092 2.33412 8.16333e-05 1.93776 8.16505e-05 1.5458L8.16507e-05 1.5414Z" fill="white"/>
<path d="M8.11297e-05 13.4586C8.11471e-05 13.0622 0.151092 12.6703 0.453109 12.3708L12.4716 0.453613C13.0801 -0.149735 14.0616 -0.149734 14.6701 0.453613C15.2786 1.05696 15.2786 2.03024 14.6701 2.63359L2.65161 14.5508C2.04314 15.1541 1.06158 15.1541 0.453109 14.5508C0.151092 14.2513 8.11124e-05 13.855 8.11295e-05 13.463L8.11297e-05 13.4586Z" fill="white"/>
</g>
<defs>
<clipPath id="clip0_1_295">
<rect width="15" height="85" fill="white" transform="translate(85 3.71547e-06) rotate(90)"/>
</clipPath>
</defs>
</svg>
