<svg width="128" height="128" viewBox="0 0 128 128" fill="none" xmlns="http://www.w3.org/2000/svg">
<g clip-path="url(#clip0_65_1055)">
<path d="M104 128H24C17.6348 128 11.5303 125.471 7.02944 120.971C2.52856 116.47 0 110.365 0 104L0 24C0 17.6348 2.52856 11.5303 7.02944 7.02944C11.5303 2.52856 17.6348 0 24 0L104 0C110.365 0 116.47 2.52856 120.971 7.02944C125.471 11.5303 128 17.6348 128 24V104C128 110.365 125.471 116.47 120.971 120.971C116.47 125.471 110.365 128 104 128Z" fill="white"/>
<path d="M84.8279 43.6V43.708C84.8279 44.856 84.6399 45.976 84.2679 47.04C84.108 47.4962 83.8276 47.9007 83.4565 48.2105C83.0854 48.5204 82.6374 48.724 82.1599 48.8C82.0279 48.8 81.8679 48.8 81.7319 48.828C81.4423 48.8352 81.1538 48.7905 80.8799 48.696C80.212 48.4652 79.6629 47.9788 79.3532 47.3436C79.0435 46.7085 78.9984 45.9764 79.2279 45.308C79.3599 44.856 79.4679 44.376 79.4679 43.896C79.4959 43.788 79.4959 43.708 79.4959 43.604C79.4959 40.136 76.2959 37.336 72.3759 37.336C69.8679 37.336 67.4959 38.536 66.2439 40.484C66.1639 40.592 66.1119 40.696 66.0039 40.776V33.656C67.9481 32.5637 70.1419 31.9932 72.3719 32C79.2519 32 84.8279 37.2 84.8279 43.6Z" fill="#FD907E"/>
<path d="M91.7599 65.628C92.7199 67.468 93.1999 69.52 93.1999 71.656C93.1999 77.096 89.9199 81.924 84.8279 84.296V84.4C84.8279 90.8 79.2559 96 72.3759 96C70.0839 96 67.8959 95.412 66.0039 94.348V87.256C66.1119 87.336 66.1919 87.416 66.2439 87.524C67.4959 89.472 69.8719 90.672 72.3759 90.672C76.2959 90.672 79.4959 87.872 79.4959 84.404C79.4959 84.004 79.4439 83.576 79.3359 83.176C79.1781 82.5122 79.2809 81.8132 79.6233 81.223C79.9656 80.6329 80.5214 80.1965 81.1759 80.004C85.1759 78.776 87.8679 75.444 87.8679 71.656C87.8679 69.816 87.2559 68.084 86.0799 66.616C85.8439 66.3148 85.6749 65.9668 85.5842 65.5951C85.4936 65.2234 85.4833 64.8366 85.5541 64.4606C85.6249 64.0846 85.7752 63.728 85.9948 63.4147C86.2145 63.1015 86.4985 62.8387 86.8279 62.644C89.2279 61.232 90.6679 58.884 90.6679 56.352C90.6679 52.192 86.8559 48.804 82.1599 48.804C82.0279 48.804 81.8679 48.804 81.7319 48.832C80.3439 49.02 79.2239 50.06 79.2239 51.26C79.2239 52.568 80.5839 53.688 82.1559 53.688C83.6239 53.688 84.8239 54.888 84.8239 56.356C84.8239 57.824 83.6239 59.024 82.1559 59.024C77.5959 59.024 73.8879 55.532 73.8879 51.264C73.8879 47.852 76.2079 44.972 79.4599 43.904C80.3119 43.636 81.2199 43.476 82.1519 43.476C83.0599 43.476 83.9639 43.556 84.8199 43.716C91.1999 44.88 95.9999 50.108 95.9999 56.348C95.9999 59.892 94.4519 63.228 91.7599 65.628Z" fill="#FD907E"/>
<path d="M75.332 71.68C75.332 75.332 72.344 78.348 68.664 78.348C67.704 78.348 66.824 78.16 65.996 77.788V71.68C65.996 73.148 67.196 74.348 68.664 74.348C70.132 74.348 71.332 73.148 71.332 71.68C71.332 70.56 72.24 69.652 73.332 69.652C74.428 69.652 75.332 70.56 75.332 71.68Z" fill="#FD907E"/>
<path d="M39.788 56.188C39.788 57.68 39.388 59.12 38.56 60.456L32.508 70.936C32.1945 71.4364 32.0207 72.0116 32.0046 72.6019C31.9886 73.1921 32.1308 73.7759 32.4165 74.2927C32.7022 74.8094 33.121 75.2403 33.6295 75.5405C34.1379 75.8407 34.7175 75.9994 35.308 76H40V82.08C39.9966 82.9996 40.2081 83.9072 40.6178 84.7304C41.0275 85.5537 41.6239 86.2698 42.3595 86.8216C43.0951 87.3734 43.9495 87.7456 44.8545 87.9085C45.7595 88.0715 46.6901 88.0206 47.572 87.76L53.332 86.188V94C53.332 95.092 54.24 96 55.332 96H62V32.08C49.6 33.04 39.788 43.492 39.788 56.188Z" fill="#FC573B"/>
</g>
<defs>
<clipPath id="clip0_65_1055">
<rect width="128" height="128" fill="white"/>
</clipPath>
</defs>
</svg>
