<svg width="61" height="54" viewBox="0 0 61 54" fill="none" xmlns="http://www.w3.org/2000/svg">
<g clip-path="url(#clip0_3_2184)">
<path d="M54.8622 41.3807C54.6967 41.381 54.5328 41.3488 54.3798 41.2858C54.2268 41.2228 54.0877 41.1302 53.9704 41.0135C53.8532 40.8967 53.7601 40.758 53.6965 40.6053C53.6328 40.4525 53.5999 40.2887 53.5996 40.1233V16.1627C53.5996 15.4684 54.164 14.9053 54.8622 14.9053C55.5603 14.9053 56.1247 15.4684 56.1247 16.1627V40.1233C56.1244 40.2887 56.0915 40.4525 56.0278 40.6053C55.9642 40.758 55.8711 40.8967 55.7539 41.0135C55.6366 41.1302 55.4975 41.2228 55.3445 41.2858C55.1915 41.3488 55.0276 41.381 54.8622 41.3807ZM4.52131 41.3807C4.35584 41.381 4.19193 41.3488 4.03893 41.2858C3.88593 41.2228 3.74684 41.1302 3.6296 41.0135C3.51236 40.8967 3.41926 40.758 3.35563 40.6053C3.292 40.4525 3.25907 40.2887 3.25873 40.1233V11.0404C3.2618 10.0381 3.66229 9.07791 4.37237 8.37049C5.08245 7.66306 6.04412 7.26616 7.04645 7.26685H40.5136C41.2117 7.26685 41.7762 7.82999 41.7762 8.52427C41.7762 9.21856 41.2117 9.7817 40.5136 9.7817H7.04773C6.71377 9.7817 6.3934 9.91401 6.15677 10.1497C5.92014 10.3853 5.78652 10.7052 5.78516 11.0391V40.1207C5.78448 40.4553 5.65098 40.776 5.414 41.0123C5.17702 41.2485 4.85594 41.3811 4.52131 41.3807ZM52.2612 54H7.1223C3.20602 54 0.0200195 50.8256 0.0200195 46.9247V46.1751C0.0200195 44.919 1.04602 43.8956 2.30859 43.8956H57.0749C58.3362 43.8956 59.3634 44.919 59.3634 46.1751V46.9247C59.3634 50.8256 56.1774 54 52.2612 54ZM2.54516 46.4117V46.9247C2.54891 48.1358 3.03292 49.296 3.891 50.1507C4.74909 51.0054 5.91117 51.4849 7.1223 51.4838H52.2612C53.4723 51.4849 54.6344 51.0054 55.4925 50.1507C56.3505 49.296 56.8346 48.1358 56.8383 46.9247V46.4117H2.54516Z" fill="black"/>
<path d="M34.7421 50.2058H24.6415C23.9447 50.2058 23.3789 49.6427 23.3789 48.9484C23.3789 48.2541 23.9447 47.691 24.6415 47.691H34.7421C35.4402 47.691 36.0047 48.2541 36.0047 48.9484C36.0047 49.6427 35.4402 50.2058 34.7421 50.2058ZM26.4094 37.4374C24.4448 37.4374 22.5072 36.6775 20.9567 35.6271C20.7171 35.4669 20.5326 35.2368 20.4282 34.9682C20.3238 34.6996 20.3045 34.4054 20.3729 34.1254C20.5131 33.5455 20.9888 33.1225 21.5828 33.0493C23.1539 32.859 23.7428 31.4575 23.9549 30.6398C24.1349 29.9215 24.4223 29.2345 24.8074 28.602C26.1317 26.4574 28.0641 25.7413 30.2498 26.5963C31.4237 27.0527 32.3584 27.8781 32.8829 28.9195C34.6135 32.3524 31.5998 35.1823 31.4699 35.3005C29.9297 36.8344 28.1579 37.4374 26.4094 37.4374ZM24.3548 34.56C25.9157 35.1154 27.9471 35.2543 29.7201 33.4864C29.8229 33.39 31.4982 31.7803 30.6239 30.0458C30.3809 29.5624 29.9207 29.169 29.3292 28.9375C28.5899 28.6508 27.7915 28.5698 26.9558 29.9198C26.7167 30.3055 26.5302 30.7581 26.3991 31.2647C26.1972 32.0477 25.6585 33.5494 24.3548 34.56ZM35.4261 29.1844C35.1708 29.1854 34.9213 29.1087 34.7107 28.9644C34.5001 28.8202 34.3384 28.6153 34.2471 28.377C34.0464 27.8591 33.7393 27.389 33.3458 26.9971C32.9523 26.6051 32.481 26.2999 31.9624 26.1013C31.7883 26.0354 31.631 25.9317 31.502 25.7976C31.373 25.6635 31.2754 25.5023 31.2163 25.3258C31.1572 25.1494 31.1381 24.9619 31.1604 24.7772C31.1827 24.5924 31.2459 24.4149 31.3452 24.2575C37.9757 13.7507 51.8177 4.01654 57.4594 0.320111C58.2321 -0.185175 59.2259 -0.0823175 59.8791 0.566968C60.5322 1.21625 60.6351 2.20754 60.1285 2.9764C56.4167 8.59883 46.6478 22.3843 36.0985 28.9915C35.8968 29.1174 35.6638 29.1842 35.4261 29.1844ZM34.2265 24.4684C34.8745 24.9145 35.4377 25.4751 35.8864 26.1218C44.2602 20.4261 52.0722 10.2201 56.2932 4.13997C50.1887 8.34554 39.9415 16.128 34.2265 24.4684ZM27.1152 24.336H12.5699C12.4045 24.3363 12.2406 24.3041 12.0876 24.241C11.9346 24.178 11.7955 24.0855 11.6782 23.9687C11.561 23.852 11.4679 23.7133 11.4043 23.5605C11.3406 23.4078 11.3077 23.244 11.3074 23.0785V15.8464C11.3074 15.1521 11.8731 14.589 12.5699 14.589H33.4281C34.1262 14.589 34.6907 15.1521 34.6907 15.8464C34.6907 16.5407 34.1262 17.1038 33.4281 17.1038H13.8325V21.8211H27.1152C27.8121 21.8211 28.3778 22.3843 28.3778 23.0785C28.3778 23.7728 27.8121 24.336 27.1152 24.336ZM19.5797 31.5694H12.6111C12.4456 31.5697 12.2817 31.5375 12.1287 31.4745C11.9757 31.4115 11.8366 31.3189 11.7194 31.2022C11.6021 31.0854 11.509 30.9467 11.4454 30.794C11.3818 30.6412 11.3489 30.4774 11.3485 30.312C11.3489 30.1465 11.3818 29.9827 11.4454 29.83C11.509 29.6772 11.6021 29.5385 11.7194 29.4218C11.8366 29.305 11.9757 29.2125 12.1287 29.1495C12.2817 29.0865 12.4456 29.0542 12.6111 29.0545H19.5797C20.2765 29.0545 20.8422 29.6177 20.8422 30.312C20.8422 31.0063 20.2765 31.5694 19.5797 31.5694ZM17.0532 38.8015H12.6098C12.4443 38.8019 12.2804 38.7696 12.1274 38.7066C11.9744 38.6436 11.8353 38.5511 11.7181 38.4343C11.6009 38.3176 11.5078 38.1788 11.4441 38.0261C11.3805 37.8734 11.3476 37.7096 11.3472 37.5441C11.3476 37.3786 11.3805 37.2149 11.4441 37.0621C11.5078 36.9094 11.6009 36.7707 11.7181 36.6539C11.8353 36.5371 11.9744 36.4446 12.1274 36.3816C12.2804 36.3186 12.4443 36.2863 12.6098 36.2867H17.0532C17.2231 36.279 17.3928 36.3058 17.5521 36.3656C17.7114 36.4253 17.8569 36.5167 17.9798 36.6342C18.1028 36.7517 18.2006 36.8929 18.2675 37.0493C18.3344 37.2057 18.3688 37.374 18.3688 37.5441C18.3688 37.7142 18.3344 37.8825 18.2675 38.0389C18.2006 38.1953 18.1028 38.3365 17.9798 38.454C17.8569 38.5716 17.7114 38.6629 17.5521 38.7227C17.3928 38.7824 17.2231 38.8092 17.0532 38.8015Z" fill="black"/>
</g>
<defs>
<clipPath id="clip0_3_2184">
<rect width="60.4687" height="54" fill="white"/>
</clipPath>
</defs>
</svg>
