<svg width="128" height="128" viewBox="0 0 128 128" fill="none" xmlns="http://www.w3.org/2000/svg">
<g clip-path="url(#clip0_65_1046)">
<path d="M24 0H104C110.365 0 116.47 2.52856 120.971 7.02944C125.471 11.5303 128 17.6348 128 24V104C128 110.365 125.471 116.47 120.971 120.971C116.47 125.471 110.365 128 104 128H24C17.6348 128 11.5303 125.471 7.02944 120.971C2.52856 116.47 0 110.365 0 104L0 24C0 17.6348 2.52856 11.5303 7.02944 7.02944C11.5303 2.52856 17.6348 0 24 0Z" fill="white"/>
<path d="M90.668 85.336C89.428 85.336 88.3 85.78 87.392 86.492L77.256 80.772C77.368 80 77.352 79.948 77.264 79.288L87.396 73.512C88.304 74.224 89.428 74.664 90.668 74.664C93.608 74.664 96 72.272 96 69.332C96 66.392 93.608 64 90.668 64C87.728 64 85.336 66.392 85.336 69.332C85.336 69.576 85.376 69.808 85.408 70.044L75.276 75.82C74.3464 75.0782 73.1933 74.6722 72.004 74.668C69.064 74.668 66.672 77.06 66.672 80C66.672 82.94 69.064 85.332 72.004 85.332C73.22 85.332 74.332 84.908 75.228 84.216L85.408 89.96C85.376 90.192 85.336 90.424 85.336 90.664C85.3352 91.7187 85.6473 92.75 86.2327 93.6274C86.8181 94.5048 87.6505 95.1888 88.6248 95.593C89.599 95.9972 90.6712 96.1033 91.7058 95.898C92.7403 95.6927 93.6908 95.1852 94.4369 94.4397C95.183 93.6942 95.6912 92.7441 95.8973 91.7097C96.1033 90.6753 95.998 89.603 95.5945 88.6285C95.1911 87.6539 94.5076 86.821 93.6307 86.2349C92.7538 85.6488 91.7227 85.336 90.668 85.336Z" fill="#FD907E"/>
<path d="M79.948 32.296C73.04 31.284 66.936 32.936 61.336 37.336C55.736 32.936 49.628 31.284 42.724 32.296C40.404 32.616 38.672 34.616 38.672 36.908V66.16C38.672 67.468 39.232 68.72 40.22 69.6C41.208 70.508 42.568 70.932 43.9 70.772C48.1143 70.2929 52.3705 71.191 56.032 73.332C57.42 74.08 58.752 75.04 60.032 76.16C60.2815 76.3933 60.59 76.5539 60.9242 76.6244C61.2584 76.6949 61.6055 76.6726 61.928 76.56C62.6368 74.4496 63.9918 72.6158 65.801 71.3185C67.6101 70.0212 69.7818 69.3262 72.008 69.332C73.076 69.332 74.088 69.492 75.1 69.784L80.3 66.824C80.86 64.476 82.192 62.476 84.008 61.012V36.908C83.9949 35.7807 83.5781 34.6954 82.8331 33.8492C82.0882 33.003 81.0645 32.4519 79.948 32.296ZM80 66.16C80 66.348 79.92 66.508 79.788 66.612C79.7243 66.6734 79.6491 66.7216 79.5667 66.7539C79.4844 66.7861 79.3964 66.8018 79.308 66.8H79.2C72.828 66.08 66.692 67.892 61.332 72.08C56.744 68.508 51.572 66.64 46.16 66.64C45.252 66.64 44.372 66.692 43.44 66.8C43.3385 66.8122 43.2357 66.8017 43.1388 66.7692C43.0419 66.7366 42.9535 66.6829 42.88 66.612C42.813 66.5574 42.7592 66.4884 42.7225 66.4102C42.6858 66.3319 42.6672 66.2464 42.668 66.16V36.908C42.668 36.588 42.936 36.296 43.28 36.24C49.6 35.308 54.908 36.988 60.028 41.44C60.3865 41.7627 60.8517 41.9412 61.334 41.9412C61.8163 41.9412 62.2815 41.7627 62.64 41.44C67.76 36.988 73.068 35.332 79.388 36.24C79.732 36.296 80 36.588 80 36.908V66.16Z" fill="#FC573B"/>
<path d="M63.68 73.336C62.9091 74.3008 62.3134 75.3933 61.92 76.564C61.8113 76.8115 61.7308 77.0705 61.68 77.336H36.668C34.108 77.336 32 75.228 32 72.668V42C32 39.44 34.08 37.36 36.64 37.332H40C40.5304 37.332 41.0391 37.5427 41.4142 37.9178C41.7893 38.2928 42 38.8015 42 39.332C42 39.8624 41.7893 40.3711 41.4142 40.7462C41.0391 41.1213 40.5304 41.332 40 41.332H36.668C36.4918 41.3351 36.3237 41.4064 36.1991 41.531C36.0745 41.6556 36.0031 41.8238 36 42V72.668C36 73.04 36.292 73.336 36.668 73.336H63.68ZM90.668 42V58.668C89.256 58.668 87.896 58.936 86.668 59.44V42C86.6691 41.9119 86.6525 41.8246 86.6193 41.7431C86.5861 41.6615 86.537 41.5875 86.4747 41.5252C86.4125 41.463 86.3384 41.4138 86.2569 41.3806C86.1754 41.3474 86.088 41.3309 86 41.332H82.668C81.576 41.332 80.668 40.424 80.668 39.332C80.668 38.24 81.576 37.332 82.668 37.332H86C88.56 37.336 90.668 39.44 90.668 42Z" fill="#FC573B"/>
<path d="M61.332 74C60.8016 74 60.2929 73.7893 59.9178 73.4142C59.5427 73.0391 59.332 72.5304 59.332 72V40C59.332 39.4696 59.5427 38.9609 59.9178 38.5858C60.2929 38.2107 60.8016 38 61.332 38C61.8625 38 62.3712 38.2107 62.7462 38.5858C63.1213 38.9609 63.332 39.4696 63.332 40V72C63.332 72.5304 63.1213 73.0391 62.7462 73.4142C62.3712 73.7893 61.8625 74 61.332 74Z" fill="#FC573B"/>
</g>
<defs>
<clipPath id="clip0_65_1046">
<rect width="128" height="128" fill="white"/>
</clipPath>
</defs>
</svg>
