<svg width="43" height="54" viewBox="0 0 43 54" fill="none" xmlns="http://www.w3.org/2000/svg">
<path d="M11.6986 42.9748C11.5365 42.9752 11.376 42.9416 11.2277 42.8762C11.0793 42.8108 10.9464 42.7149 10.8373 42.5949C6.46808 37.8096 4.70824 33.3855 5.60448 29.4498C6.79557 24.2216 12.2219 21.9804 12.4515 21.8872C12.637 21.8118 12.8389 21.7855 13.0375 21.811C13.2361 21.8365 13.4248 21.9129 13.5852 22.0326C13.7457 22.1524 13.8725 22.3116 13.9534 22.4948C14.0343 22.678 14.0666 22.879 14.047 23.0783C13.1461 32.5289 14.9502 37.087 15.8185 39.2769C15.8748 39.4192 15.9025 39.5712 15.9001 39.7243C15.8977 39.8773 15.8651 40.0284 15.8043 40.1689C15.7435 40.3094 15.6556 40.4365 15.5456 40.543C15.4357 40.6495 15.3058 40.7333 15.1635 40.7896C15.0212 40.8459 14.8691 40.8737 14.7161 40.8712C14.563 40.8688 14.4119 40.8362 14.2715 40.7754C14.131 40.7146 14.0039 40.6267 13.8974 40.5168C13.7909 40.4068 13.7071 40.277 13.6507 40.1346C12.3489 36.8492 11.1159 32.5033 11.5564 25.0432C10.1765 25.9861 8.40622 27.613 7.87244 29.9812C7.16385 33.1256 8.7407 36.8411 12.5587 41.0239C12.711 41.1907 12.8114 41.3983 12.8479 41.6212C12.8844 41.8441 12.8553 42.0728 12.7642 42.2795C12.6731 42.4862 12.5238 42.662 12.3347 42.7854C12.1455 42.9089 11.9245 42.9747 11.6986 42.9748ZM31.2281 42.9748C31.0017 42.9757 30.7801 42.9105 30.5902 42.7873C30.4004 42.664 30.2506 42.488 30.1593 42.2809C30.068 42.0738 30.0391 41.8446 30.0762 41.6213C30.1133 41.398 30.2147 41.1904 30.368 41.0239C34.1848 36.8411 35.7617 33.1268 35.0542 29.9812C34.5205 27.613 32.749 25.9872 31.3703 25.0444C31.8108 32.4998 30.5766 36.8481 29.2759 40.1346C29.2196 40.277 29.1358 40.4068 29.0293 40.5168C28.9228 40.6267 28.7957 40.7146 28.6552 40.7754C28.5147 40.8362 28.3637 40.8688 28.2106 40.8712C28.0576 40.8737 27.9055 40.8459 27.7632 40.7896C27.6209 40.7333 27.491 40.6495 27.3811 40.543C27.2711 40.4365 27.1832 40.3094 27.1224 40.1689C27.0616 40.0284 27.029 39.8773 27.0266 39.7243C27.0242 39.5712 27.0519 39.4192 27.1082 39.2769C27.9753 37.0858 29.7806 32.5266 28.8797 23.0794C28.8608 22.8803 28.8935 22.6797 28.9746 22.4969C29.0557 22.3141 29.1825 22.1552 29.3427 22.0355C29.503 21.9159 29.6914 21.8395 29.8897 21.8137C30.088 21.788 30.2897 21.8136 30.4752 21.8883C30.7048 21.9816 36.1323 24.2227 37.3222 29.4509C38.2196 33.3878 36.4586 37.8107 32.0893 42.5961C31.98 42.7156 31.8469 42.811 31.6986 42.8762C31.5503 42.9414 31.3901 42.975 31.2281 42.9748ZM16.3126 47.3546C14.8313 47.3546 13.6263 46.1495 13.6263 44.6682C13.6263 43.1869 14.8313 41.9807 16.3126 41.9807C17.7939 41.9807 18.999 43.1858 18.999 44.6682C18.9984 45.3805 18.7152 46.0634 18.2115 46.5671C17.7078 47.0708 17.0249 47.354 16.3126 47.3546ZM16.3126 44.3116C16.2217 44.3168 16.1363 44.3566 16.0737 44.4228C16.0112 44.489 15.9764 44.5766 15.9764 44.6677C15.9764 44.7587 16.0112 44.8463 16.0737 44.9125C16.1363 44.9787 16.2217 45.0185 16.3126 45.0237C16.4035 45.0185 16.489 44.9787 16.5515 44.9125C16.6141 44.8463 16.6489 44.7587 16.6489 44.6677C16.6489 44.5766 16.6141 44.489 16.5515 44.4228C16.489 44.3566 16.4035 44.3168 16.3126 44.3116ZM26.3099 47.3546C24.8286 47.3546 23.6235 46.1495 23.6235 44.6682C23.6235 43.1869 24.8286 41.9807 26.3099 41.9807C27.7912 41.9807 28.9974 43.1858 28.9974 44.6682C28.9965 45.3806 28.713 46.0635 28.2092 46.5672C27.7053 47.0708 27.0223 47.354 26.3099 47.3546ZM26.3099 44.3116C26.2153 44.3119 26.1247 44.3498 26.058 44.4169C25.9914 44.484 25.9541 44.5748 25.9544 44.6694C25.9547 44.764 25.9926 44.8546 26.0597 44.9212C26.1268 44.9879 26.2176 45.0252 26.3122 45.0249C26.359 45.0247 26.4054 45.0153 26.4486 44.9973C26.4918 44.9792 26.531 44.9528 26.564 44.9196C26.597 44.8864 26.6232 44.847 26.641 44.8036C26.6587 44.7603 26.6678 44.7139 26.6677 44.6671C26.6675 44.6202 26.6581 44.5739 26.6401 44.5307C26.622 44.4875 26.5956 44.4482 26.5624 44.4152C26.5292 44.3822 26.4898 44.3561 26.4464 44.3383C26.4031 44.3205 26.3567 44.3115 26.3099 44.3116ZM36.1976 47.2217H31.467C31.1579 47.2217 30.8615 47.0989 30.6429 46.8804C30.4243 46.6618 30.3015 46.3654 30.3015 46.0563C30.3015 45.7472 30.4243 45.4508 30.6429 45.2322C30.8615 45.0136 31.1579 44.8908 31.467 44.8908H36.1976C36.5067 44.8908 36.8031 45.0136 37.0217 45.2322C37.2402 45.4508 37.363 45.7472 37.363 46.0563C37.363 46.3654 37.2402 46.6618 37.0217 46.8804C36.8031 47.0989 36.5067 47.2217 36.1976 47.2217ZM21.7355 47.2217H20.8882C20.5791 47.2217 20.2827 47.0989 20.0641 46.8804C19.8455 46.6618 19.7227 46.3654 19.7227 46.0563C19.7227 45.7472 19.8455 45.4508 20.0641 45.2322C20.2827 45.0136 20.5791 44.8908 20.8882 44.8908H21.7355C22.0446 44.8908 22.341 45.0136 22.5596 45.2322C22.7781 45.4508 22.9009 45.7472 22.9009 46.0563C22.9009 46.3654 22.7781 46.6618 22.5596 46.8804C22.341 47.0989 22.0446 47.2217 21.7355 47.2217Z" fill="black"/>
<path d="M36.1978 54H5.52312C5.21402 54 4.91758 53.8772 4.69902 53.6587C4.48045 53.4401 4.35767 53.1437 4.35767 52.8346V46.0563C4.35767 45.7472 4.48045 45.4508 4.69902 45.2322C4.91758 45.0137 5.21402 44.8909 5.52312 44.8909H11.1557C11.4648 44.8909 11.7613 45.0137 11.9798 45.2322C12.1984 45.4508 12.3212 45.7472 12.3212 46.0563C12.3212 46.3654 12.1984 46.6618 11.9798 46.8804C11.7613 47.099 11.4648 47.2218 11.1557 47.2218H6.68857V51.6691H36.199C36.508 51.6693 36.8044 51.7922 37.0229 52.0109C37.2413 52.2296 37.364 52.5261 37.3638 52.8352C37.3637 53.1443 37.2407 53.4406 37.0221 53.6591C36.8034 53.8775 36.5069 54.0002 36.1978 54Z" fill="black"/>
<path d="M36.1989 54C35.9521 53.9989 35.7121 53.9197 35.5131 53.7737C35.3142 53.6278 35.1665 53.4225 35.0915 53.1875C35.0164 52.9524 35.0177 52.6996 35.0952 52.4654C35.1727 52.2311 35.3225 52.0274 35.5229 51.8835L38.9575 49.4442L35.5229 47.0049C35.2709 46.8258 35.1003 46.5539 35.0487 46.249C34.9971 45.9441 35.0688 45.6312 35.2479 45.3791C35.427 45.1271 35.6989 44.9565 36.0038 44.9049C36.3087 44.8533 36.6216 44.925 36.8737 45.1041L41.6462 48.4932C41.7978 48.601 41.9213 48.7434 42.0066 48.9086C42.0918 49.0739 42.1363 49.2571 42.1363 49.4431C42.1363 49.629 42.0918 49.8122 42.0066 49.9775C41.9213 50.1427 41.7978 50.2851 41.6462 50.3929L36.8737 53.782C36.6774 53.9241 36.4412 54.0004 36.1989 54ZM5.52307 53.4534H2.93111C2.15401 53.4524 1.40901 53.1433 0.859524 52.5938C0.310034 52.0444 0.000925297 51.2994 0 50.5223V48.365C0.000925843 47.588 0.310072 46.8431 0.859595 46.2938C1.40912 45.7445 2.15412 45.4357 2.93111 45.4351H5.52307V47.766H2.93111C2.77213 47.766 2.61964 47.829 2.50711 47.9414C2.39458 48.0537 2.33121 48.206 2.3309 48.365V50.5223C2.3309 50.8532 2.60012 51.1225 2.93111 51.1225H5.52307V53.4534ZM8.42971 46.0563H10.7606V52.8345H8.42971V46.0563Z" fill="black"/>
<path d="M31.3109 50.6108H10.1941C9.88496 50.6108 9.58852 50.4881 9.36996 50.2695C9.15139 50.0509 9.0286 49.7545 9.0286 49.4454C9.0286 49.1363 9.15139 48.8399 9.36996 48.6213C9.58852 48.4027 9.88496 48.2799 10.1941 48.2799H31.3109C31.62 48.2799 31.9164 48.4027 32.135 48.6213C32.3535 48.8399 32.4763 49.1363 32.4763 49.4454C32.4763 49.7545 32.3535 50.0509 32.135 50.2695C31.9164 50.4881 31.62 50.6108 31.3109 50.6108ZM15.1973 20.266C13.2469 20.2638 11.3769 19.4881 9.9976 18.1091C8.6183 16.73 7.84231 14.8601 7.83984 12.9097C7.842 10.959 8.61786 9.08886 9.99719 7.70953C11.3765 6.3302 13.2467 5.55434 15.1973 5.55219C19.2531 5.55219 22.5537 8.85274 22.5537 12.9097C22.5537 16.9666 19.2543 20.266 15.1973 20.266ZM15.1973 7.88425C13.8647 7.88579 12.587 8.41587 11.6447 9.35821C10.7024 10.3005 10.1723 11.5782 10.1707 12.9108C10.1726 14.2433 10.7028 15.5206 11.6451 16.4627C12.5874 17.4048 13.8649 17.9347 15.1973 17.9363C16.5296 17.9344 17.8068 17.4044 18.7488 16.4623C19.6909 15.5203 20.2209 14.2431 20.2228 12.9108C20.2215 11.5783 19.6917 10.3006 18.7496 9.35828C17.8074 8.41591 16.5299 7.88579 15.1973 7.88425Z" fill="black"/>
<path d="M27.8321 20.266C25.8816 20.2638 24.0117 19.4881 22.6324 18.1091C21.2531 16.73 20.4771 14.8601 20.4746 12.9097C20.4746 8.85274 23.7752 5.55219 27.8321 5.55219C31.889 5.55219 35.1896 8.85274 35.1896 12.9097C35.1871 14.8601 34.4111 16.73 33.0318 18.1091C31.6525 19.4881 29.7826 20.2638 27.8321 20.266ZM27.8321 7.88425C26.4994 7.88579 25.2218 8.41587 24.2795 9.35821C23.3371 10.3005 22.8071 11.5782 22.8055 12.9108C22.8055 15.6811 25.0607 17.9363 27.8321 17.9363C30.6035 17.9363 32.8587 15.6811 32.8587 12.9108C32.8571 11.5782 32.3271 10.3005 31.3847 9.35821C30.4424 8.41587 29.1648 7.88579 27.8321 7.88425Z" fill="black"/>
<path d="M27.8319 15.7604C26.2598 15.7604 24.9813 14.4819 24.9813 12.9097C24.9813 11.3375 26.2609 10.059 27.8319 10.059C29.403 10.059 30.6826 11.3375 30.6826 12.9097C30.6826 14.4819 29.403 15.7604 27.8319 15.7604ZM27.8319 12.3899C27.6939 12.3899 27.5616 12.4447 27.464 12.5423C27.3664 12.6399 27.3116 12.7723 27.3116 12.9103C27.3116 13.0483 27.3664 13.1807 27.464 13.2782C27.5616 13.3758 27.6939 13.4307 27.8319 13.4307C27.97 13.4307 28.1023 13.3758 28.1999 13.2782C28.2975 13.1807 28.3523 13.0483 28.3523 12.9103C28.3523 12.7723 28.2975 12.6399 28.1999 12.5423C28.1023 12.4447 27.97 12.3899 27.8319 12.3899ZM15.1973 15.7604C13.6251 15.7604 12.3466 14.4819 12.3466 12.9097C12.3466 11.3375 13.6251 10.059 15.1973 10.059C16.7695 10.059 18.048 11.3375 18.048 12.9097C18.048 14.4819 16.7707 15.7604 15.1973 15.7604ZM15.1973 12.3899C15.0593 12.3899 14.9269 12.4447 14.8293 12.5423C14.7317 12.6399 14.6769 12.7723 14.6769 12.9103C14.6769 13.0483 14.7317 13.1807 14.8293 13.2782C14.9269 13.3758 15.0593 13.4307 15.1973 13.4307C15.3353 13.4307 15.4677 13.3758 15.5653 13.2782C15.6628 13.1807 15.7177 13.0483 15.7177 12.9103C15.7177 12.7723 15.6628 12.6399 15.5653 12.5423C15.4677 12.4447 15.3353 12.3899 15.1973 12.3899ZM21.3998 23.2426C21.2468 23.2427 21.0952 23.2127 20.9538 23.1541C20.8124 23.0955 20.6839 23.0095 20.5758 22.9011L17.0935 19.4176L18.7414 17.7696L21.3998 20.4292L24.1853 17.6438L25.8332 19.2917L22.2238 22.9011C22.1157 23.0095 21.9873 23.0955 21.8459 23.1541C21.7045 23.2127 21.5529 23.2427 21.3998 23.2426ZM9.6311 1.29715H11.962V8.54043H9.6311V1.29715ZM32.2036 5.0196C31.8945 5.0196 31.598 4.89681 31.3795 4.67825C31.1609 4.45968 31.0381 4.16325 31.0381 3.85415V1.89037C31.0381 1.58127 31.1609 1.28483 31.3795 1.06627C31.598 0.847703 31.8945 0.724915 32.2036 0.724915C32.5126 0.724915 32.8091 0.847703 33.0277 1.06627C33.2462 1.28483 33.369 1.58127 33.369 1.89037V3.85415C33.369 4.16325 33.2462 4.45968 33.0277 4.67825C32.8091 4.89681 32.5126 5.0196 32.2036 5.0196Z" fill="black"/>
<path d="M37.327 2.3309H5.70134C5.39224 2.3309 5.09581 2.20811 4.87724 1.98955C4.65868 1.77098 4.53589 1.47455 4.53589 1.16545C4.53589 0.856354 4.65868 0.559917 4.87724 0.341352C5.09581 0.122788 5.39224 0 5.70134 0H37.327C37.6361 0 37.9325 0.122788 38.1511 0.341352C38.3697 0.559917 38.4925 0.856354 38.4925 1.16545C38.4925 1.47455 38.3697 1.77098 38.1511 1.98955C37.9325 2.20811 37.6361 2.3309 37.327 2.3309Z" fill="black"/>
<path d="M7.03361 7.3458C6.72452 7.3458 6.42808 7.22302 6.20952 7.00445C5.99095 6.78589 5.86816 6.48945 5.86816 6.18035V1.79942C5.86816 1.49033 5.99095 1.19389 6.20952 0.975325C6.42808 0.756761 6.72452 0.633972 7.03361 0.633972C7.34271 0.633972 7.63915 0.756761 7.85771 0.975325C8.07628 1.19389 8.19907 1.49033 8.19907 1.79942V6.18035C8.19907 6.48945 8.07628 6.78589 7.85771 7.00445C7.63915 7.22302 7.34271 7.3458 7.03361 7.3458ZM37.3516 53.0058L35.0452 52.662C35.1548 51.9021 35.0557 50.6574 34.6513 50.4488C34.462 50.3502 34.3034 50.2015 34.1927 50.019C34.0821 49.8364 34.0236 49.627 34.0237 49.4136C34.0238 49.2001 34.0825 48.9908 34.1934 48.8083C34.3043 48.6259 34.463 48.4774 34.6525 48.379C35.0615 48.1669 35.1583 46.9653 35.0464 46.2311L37.3505 45.8779C37.3924 46.1483 37.6453 48.055 36.8167 49.4174C37.6442 50.7961 37.3924 52.7308 37.3516 53.0058Z" fill="black"/>
</svg>
