<svg width="56" height="54" viewBox="0 0 56 54" fill="none" xmlns="http://www.w3.org/2000/svg">
<g clip-path="url(#clip0_3_2172)">
<path d="M34.6472 53.9519C32.747 53.9591 30.9009 53.3191 29.4129 52.1373C28.7039 51.5406 28.0406 50.9849 27.5118 50.3239C26.9888 50.9791 26.3348 51.5289 25.6387 52.1139C24.1452 53.3081 22.2885 53.9561 20.3763 53.9507C16.6337 53.9507 13.5193 51.5711 12.5108 48.0577C8.29082 47.5886 4.99745 43.9992 4.99745 39.6552C4.99745 39.3148 5.01733 38.9767 5.05828 38.6409C2.03048 37.3095 0.0603027 34.3273 0.0603027 30.9251C0.0603027 29.5434 0.393736 28.198 1.03135 26.9895C0.393279 25.7485 0.0603857 24.3732 0.0603027 22.9777C0.0644228 21.4162 0.498922 19.8861 1.31605 18.5554C2.13318 17.2248 3.30132 16.1451 4.69209 15.4351C4.62963 15.07 4.5921 14.701 4.57978 14.3307C4.57978 9.96217 7.91293 6.35408 12.1785 5.8978C12.7332 4.199 13.8102 2.71873 15.2558 1.66809C16.7014 0.617446 18.4418 0.0500916 20.2289 0.046936C23.5164 0.046936 26.1043 1.29526 27.5118 3.37424C28.9192 1.29526 31.5094 0.046936 34.7958 0.046936C36.5829 0.0499132 38.3234 0.617199 39.7691 1.66786C41.2147 2.71853 42.2916 4.19891 42.8461 5.8978C47.1117 6.35291 50.4437 9.961 50.4437 14.3307C50.4437 14.6068 50.3958 15.0069 50.3314 15.4351C51.7222 16.1451 52.8903 17.2248 53.7075 18.5554C54.5246 19.8861 54.9591 21.4162 54.9632 22.9777C54.9628 24.373 54.6304 25.7481 53.9933 26.9895C54.6317 28.2035 54.9646 29.5547 54.9632 30.9263C54.9632 34.3285 52.993 37.3107 49.9664 38.6421C50.0062 38.9778 50.0272 39.3171 50.0272 39.6564C50.0272 44.0004 46.735 47.5886 42.5139 48.0589C41.5042 51.5722 38.3899 53.9519 34.6472 53.9519ZM27.5106 45.6687C27.8187 45.6687 28.1143 45.7902 28.3333 46.0068C28.5524 46.2235 28.6771 46.5177 28.6805 46.8258C28.6981 48.4812 29.386 49.058 30.8905 50.3227C31.9611 51.1647 33.2853 51.6192 34.6472 51.612C37.5475 51.612 39.9213 49.6091 40.4185 46.7416C40.4656 46.4701 40.6071 46.2239 40.8179 46.0465C41.0287 45.8691 41.2954 45.7717 41.5709 45.7717C42.5004 45.7708 43.4175 45.5583 44.2527 45.1503C45.0878 44.7423 45.8191 44.1495 46.3911 43.4169C46.9631 42.6842 47.3607 41.831 47.5539 40.9218C47.7471 40.0126 47.7307 39.0713 47.506 38.1694C47.4326 37.8774 47.4749 37.5682 47.624 37.3066C47.7731 37.045 48.0176 36.8511 48.3063 36.7655C50.8895 35.9933 52.6245 33.6464 52.6245 30.9275C52.6265 29.7569 52.2909 28.6107 51.6581 27.6259C51.5372 27.4372 51.473 27.2177 51.473 26.9936C51.473 26.7694 51.5372 26.55 51.6581 26.3612C52.2817 25.3902 52.6245 24.1886 52.6245 22.9789C52.6212 21.7292 52.2367 20.5103 51.5224 19.485C50.8081 18.4596 49.7979 17.6765 48.6268 17.2404C48.371 17.1458 48.1562 16.9649 48.0195 16.7289C47.8828 16.4929 47.8328 16.2165 47.8781 15.9476C47.9459 15.5556 48.1039 14.622 48.1039 14.3319C48.1039 10.9449 45.3358 8.19088 41.9324 8.19088C41.6628 8.19111 41.4014 8.09802 41.1926 7.92741C40.9839 7.7568 40.8405 7.51919 40.7871 7.25493C40.2103 4.43421 37.6914 2.38798 34.797 2.38798C31.8546 2.38798 28.7039 3.69013 28.6805 7.34268C28.6804 7.65296 28.557 7.95048 28.3374 8.16978C28.1179 8.38907 27.8203 8.51219 27.51 8.51203C27.1997 8.51188 26.9022 8.38847 26.6829 8.16895C26.4636 7.94943 26.3405 7.65179 26.3406 7.34151C26.3231 3.68896 23.1725 2.38798 20.2301 2.38798C17.3356 2.38798 14.8167 4.43538 14.2388 7.2561C14.1849 7.52005 14.0414 7.75726 13.8327 7.9276C13.624 8.09794 13.3628 8.19094 13.0934 8.19088C9.69007 8.19088 6.922 10.9449 6.922 14.3319C6.922 14.6138 7.0776 15.5287 7.1279 15.8306L7.14896 15.9488C7.19416 16.2176 7.14409 16.4937 7.00738 16.7295C6.87068 16.9653 6.65593 17.146 6.4002 17.2404C5.22921 17.6767 4.21915 18.4597 3.50486 19.4851C2.79056 20.5105 2.406 21.7293 2.40252 22.9789C2.40252 24.1898 2.74531 25.3913 3.36889 26.3612C3.61575 26.7473 3.61575 27.241 3.36889 27.6271C2.73582 28.6113 2.40026 29.7573 2.40252 30.9275C2.40252 33.6464 4.13871 35.9921 6.72194 36.7655C7.01029 36.8516 7.25435 37.0456 7.40339 37.3071C7.55242 37.5685 7.59496 37.8774 7.52217 38.1694C7.29751 39.0712 7.28111 40.0124 7.47422 40.9215C7.66733 41.8306 8.06488 42.6838 8.63673 43.4164C9.20859 44.1491 9.93974 44.7419 10.7747 45.15C11.6098 45.558 12.5267 45.7706 13.4561 45.7717C13.7316 45.7717 13.9983 45.8691 14.2091 46.0465C14.42 46.2239 14.5614 46.4701 14.6085 46.7416C15.1057 49.6091 17.4795 51.612 20.3798 51.612C21.7537 51.6172 23.0885 51.1547 24.1646 50.3005C25.641 49.058 26.3278 48.4812 26.343 46.827C26.3448 46.5187 26.4688 46.2238 26.6876 46.0067C26.9064 45.7896 27.2023 45.6681 27.5106 45.6687Z" fill="black"/>
<path d="M33.5066 34.2805H21.5171C21.2068 34.2805 20.9092 34.1573 20.6898 33.9379C20.4704 33.7185 20.3472 33.4209 20.3472 33.1106V21.121C20.3472 20.8108 20.4704 20.5132 20.6898 20.2938C20.9092 20.0744 21.2068 19.9511 21.5171 19.9511H33.5066C33.8169 19.9511 34.1145 20.0744 34.3339 20.2938C34.5533 20.5132 34.6766 20.8108 34.6766 21.121V33.1106C34.6766 33.4209 34.5533 33.7185 34.3339 33.9379C34.1145 34.1573 33.8169 34.2805 33.5066 34.2805ZM22.687 31.9406H32.3367V22.291H22.687V31.9406Z" fill="black"/>
<path d="M27.5117 21.9786C27.2014 21.9786 26.9038 21.8553 26.6844 21.6359C26.465 21.4165 26.3417 21.1189 26.3417 20.8087V18.7753C26.3417 18.465 26.465 18.1674 26.6844 17.948C26.9038 17.7286 27.2014 17.6054 27.5117 17.6054C27.8219 17.6054 28.1195 17.7286 28.3389 17.948C28.5583 18.1674 28.6816 18.465 28.6816 18.7753V20.8098C28.6813 21.1199 28.5579 21.4172 28.3385 21.6363C28.1191 21.8555 27.8217 21.9786 27.5117 21.9786ZM23.4379 21.9786C23.1276 21.9786 22.8301 21.8553 22.6107 21.6359C22.3912 21.4165 22.268 21.1189 22.268 20.8087V18.7753C22.268 18.465 22.3912 18.1674 22.6107 17.948C22.8301 17.7286 23.1276 17.6054 23.4379 17.6054C23.7482 17.6054 24.0458 17.7286 24.2652 17.948C24.4846 18.1674 24.6079 18.465 24.6079 18.7753V20.8098C24.6076 21.1199 24.4842 21.4172 24.2648 21.6363C24.0454 21.8555 23.748 21.9786 23.4379 21.9786ZM31.5854 21.9786C31.2751 21.9786 30.9775 21.8553 30.7581 21.6359C30.5387 21.4165 30.4154 21.1189 30.4154 20.8087V18.7753C30.4154 18.465 30.5387 18.1674 30.7581 17.948C30.9775 17.7286 31.2751 17.6054 31.5854 17.6054C31.8957 17.6054 32.1932 17.7286 32.4127 17.948C32.6321 18.1674 32.7553 18.465 32.7553 18.7753V20.8098C32.7553 20.9634 32.7251 21.1155 32.6662 21.2574C32.6074 21.3992 32.5212 21.5281 32.4126 21.6367C32.3039 21.7452 32.1749 21.8313 32.033 21.89C31.8911 21.9486 31.739 21.9787 31.5854 21.9786ZM27.5117 36.6262C27.2014 36.6262 26.9038 36.503 26.6844 36.2836C26.465 36.0642 26.3417 35.7666 26.3417 35.4563V33.3375C26.3417 33.0272 26.465 32.7297 26.6844 32.5103C26.9038 32.2908 27.2014 32.1676 27.5117 32.1676C27.8219 32.1676 28.1195 32.2908 28.3389 32.5103C28.5583 32.7297 28.6816 33.0272 28.6816 33.3375V35.4563C28.6816 35.7666 28.5583 36.0642 28.3389 36.2836C28.1195 36.503 27.8219 36.6262 27.5117 36.6262ZM23.4379 36.6262C23.1276 36.6262 22.8301 36.503 22.6107 36.2836C22.3912 36.0642 22.268 35.7666 22.268 35.4563V33.3375C22.268 33.0272 22.3912 32.7297 22.6107 32.5103C22.8301 32.2908 23.1276 32.1676 23.4379 32.1676C23.7482 32.1676 24.0458 32.2908 24.2652 32.5103C24.4846 32.7297 24.6079 33.0272 24.6079 33.3375V35.4563C24.6079 35.7666 24.4846 36.0642 24.2652 36.2836C24.0458 36.503 23.7482 36.6262 23.4379 36.6262ZM31.5854 36.6262C31.2751 36.6262 30.9775 36.503 30.7581 36.2836C30.5387 36.0642 30.4154 35.7666 30.4154 35.4563V33.3375C30.4154 33.0272 30.5387 32.7297 30.7581 32.5103C30.9775 32.2908 31.2751 32.1676 31.5854 32.1676C31.8957 32.1676 32.1932 32.2908 32.4127 32.5103C32.6321 32.7297 32.7553 33.0272 32.7553 33.3375V35.4563C32.7553 35.7666 32.6321 36.0642 32.4127 36.2836C32.1932 36.503 31.8957 36.6262 31.5854 36.6262ZM15.2811 18.0031C13.4771 18.0031 12.0088 16.5349 12.0088 14.7308C12.0088 12.9268 13.4771 11.4585 15.2811 11.4585C17.0852 11.4585 18.5534 12.9268 18.5534 14.7308C18.5534 16.5349 17.0852 18.0031 15.2811 18.0031ZM15.2811 13.7984C15.1585 13.7985 15.0371 13.8228 14.9239 13.8699C14.8107 13.9169 14.7079 13.9858 14.6213 14.0727C14.5347 14.1595 14.4661 14.2625 14.4193 14.3758C14.3725 14.4891 14.3485 14.6106 14.3487 14.7332C14.3488 14.8558 14.3731 14.9771 14.4202 15.0903C14.4672 15.2036 14.5361 15.3064 14.6229 15.393C14.7097 15.4796 14.8128 15.5482 14.9261 15.595C15.0394 15.6418 15.1608 15.6658 15.2834 15.6656C15.5311 15.6653 15.7684 15.5666 15.9433 15.3913C16.1181 15.216 16.2162 14.9784 16.2159 14.7308C16.2156 14.4832 16.1169 14.2459 15.9416 14.071C15.7663 13.8961 15.5287 13.7981 15.2811 13.7984Z" fill="black"/>
<path d="M17.4106 24.3337H15.2824C14.9722 24.3337 14.6746 24.2105 14.4552 23.9911C14.2358 23.7716 14.1125 23.4741 14.1125 23.1638V17.2954C14.1125 16.9851 14.2358 16.6875 14.4552 16.4681C14.6746 16.2487 14.9722 16.1254 15.2824 16.1254C15.5927 16.1254 15.8903 16.2487 16.1097 16.4681C16.3291 16.6875 16.4524 16.9851 16.4524 17.2954V21.9938H17.4106C17.7208 21.9938 18.0184 22.1171 18.2378 22.3365C18.4572 22.5559 18.5805 22.8535 18.5805 23.1638C18.5805 23.4741 18.4572 23.7716 18.2378 23.9911C18.0184 24.2105 17.7208 24.3337 17.4106 24.3337ZM16.4512 36.9351H14.1113V31.0667C14.1113 30.7564 14.2346 30.4589 14.454 30.2394C14.6734 30.02 14.971 29.8968 15.2813 29.8968H21.3486V32.2367H16.4512V36.9351Z" fill="black"/>
<path d="M15.2811 42.7707C13.4771 42.7707 12.0088 41.3025 12.0088 39.4984C12.0088 37.6944 13.4771 36.2273 15.2811 36.2273C17.0852 36.2273 18.5534 37.6944 18.5534 39.4984C18.5534 41.3025 17.0852 42.7707 15.2811 42.7707ZM15.2811 38.5683C15.1558 38.564 15.0309 38.5849 14.9139 38.6299C14.7968 38.6748 14.69 38.7429 14.5999 38.83C14.5097 38.9172 14.438 39.0216 14.3891 39.137C14.3401 39.2525 14.315 39.3766 14.315 39.502C14.3151 39.6273 14.3405 39.7514 14.3895 39.8668C14.4386 39.9822 14.5104 40.0865 14.6007 40.1735C14.691 40.2605 14.7978 40.3285 14.9149 40.3733C15.032 40.4181 15.157 40.4389 15.2823 40.4344C15.524 40.4257 15.7529 40.3235 15.9208 40.1493C16.0887 39.9752 16.1824 39.7427 16.1823 39.5008C16.1821 39.2589 16.0881 39.0265 15.92 38.8526C15.7519 38.6786 15.5229 38.5767 15.2811 38.5683ZM39.741 18.0031C37.937 18.0031 36.4699 16.5349 36.4699 14.7308C36.4699 12.9268 37.937 11.4585 39.741 11.4585C41.5451 11.4585 43.0133 12.9268 43.0133 14.7308C43.0133 16.5349 41.5451 18.0031 39.741 18.0031ZM39.741 13.7984C39.5018 13.8104 39.2763 13.9138 39.1113 14.0874C38.9462 14.2609 38.8541 14.4913 38.8541 14.7308C38.8541 14.9703 38.9462 15.2007 39.1113 15.3742C39.2763 15.5478 39.5018 15.6513 39.741 15.6633C39.9802 15.6513 40.2057 15.5478 40.3708 15.3742C40.5359 15.2007 40.6279 14.9703 40.6279 14.7308C40.6279 14.4913 40.5359 14.2609 40.3708 14.0874C40.2057 13.9138 39.9802 13.8104 39.741 13.7984Z" fill="black"/>
<path d="M39.7411 24.3337H33.6738V21.9938H38.5712V17.2953H40.9111V23.1638C40.9111 23.4741 40.7878 23.7716 40.5684 23.991C40.349 24.2104 40.0514 24.3337 39.7411 24.3337ZM39.7692 38.1051C39.4589 38.1051 39.1613 37.9818 38.9419 37.7624C38.7225 37.543 38.5993 37.2454 38.5993 36.9351V32.2366H37.6411C37.3308 32.2366 37.0332 32.1134 36.8138 31.894C36.5944 31.6746 36.4712 31.377 36.4712 31.0667C36.4712 30.7564 36.5944 30.4588 36.8138 30.2394C37.0332 30.02 37.3308 29.8968 37.6411 29.8968H39.7692C40.0795 29.8968 40.3771 30.02 40.5965 30.2394C40.8159 30.4588 40.9392 30.7564 40.9392 31.0667V36.9351C40.9392 37.2454 40.8159 37.543 40.5965 37.7624C40.3771 37.9818 40.0795 38.1051 39.7692 38.1051Z" fill="black"/>
<path d="M39.7411 42.7708C37.9371 42.7708 36.47 41.3025 36.47 39.4985C36.47 37.6944 37.9371 36.2273 39.7411 36.2273C41.5452 36.2273 43.0135 37.6944 43.0135 39.4985C43.0135 41.3025 41.5452 42.7708 39.7411 42.7708ZM39.7411 38.5684C39.4997 38.5769 39.271 38.6788 39.1032 38.8527C38.9355 39.0265 38.8417 39.2586 38.8417 39.5002C38.8417 39.7418 38.9355 39.9739 39.1032 40.1478C39.271 40.3216 39.4997 40.4235 39.7411 40.4321C39.9826 40.4235 40.2112 40.3216 40.379 40.1478C40.5468 39.9739 40.6406 39.7418 40.6406 39.5002C40.6406 39.2586 40.5468 39.0265 40.379 38.8527C40.2112 38.6788 39.9826 38.5769 39.7411 38.5684ZM10.9454 30.3881C9.14137 30.3881 7.6731 28.9199 7.6731 27.1158C7.6731 25.3118 9.14137 23.8435 10.9454 23.8435C12.7495 23.8435 14.2166 25.3118 14.2166 27.1158C14.2166 28.9199 12.7495 30.3881 10.9454 30.3881ZM10.9454 26.1834C10.7062 26.1954 10.4807 26.2988 10.3157 26.4724C10.1506 26.6459 10.0585 26.8763 10.0585 27.1158C10.0585 27.3553 10.1506 27.5857 10.3157 27.7593C10.4807 27.9328 10.7062 28.0363 10.9454 28.0483C11.1927 28.0483 11.4299 27.95 11.6048 27.7752C11.7796 27.6003 11.8779 27.3631 11.8779 27.1158C11.8779 26.8685 11.7796 26.6314 11.6048 26.4565C11.4299 26.2816 11.1927 26.1834 10.9454 26.1834Z" fill="black"/>
<path d="M13.4829 25.9459H21.1811V28.2858H13.4829V25.9459ZM44.078 30.3881C42.2739 30.3881 40.8057 28.9199 40.8057 27.1158C40.8057 25.3118 42.2739 23.8435 44.078 23.8435C45.882 23.8435 47.3503 25.3118 47.3503 27.1158C47.3503 28.9199 45.882 30.3881 44.078 30.3881ZM44.078 26.1834C43.9554 26.1835 43.834 26.2078 43.7208 26.2549C43.6076 26.302 43.5048 26.3709 43.4182 26.4577C43.3316 26.5445 43.2629 26.6475 43.2162 26.7608C43.1694 26.8741 43.1454 26.9956 43.1455 27.1182C43.1457 27.2408 43.17 27.3621 43.2171 27.4754C43.2641 27.5886 43.333 27.6914 43.4198 27.778C43.5066 27.8646 43.6096 27.9332 43.723 27.98C43.8363 28.0268 43.9577 28.0508 44.0803 28.0506C44.3279 28.0503 44.5653 27.9516 44.7402 27.7763C44.915 27.601 45.0131 27.3634 45.0128 27.1158C45.0125 26.8682 44.9138 26.6309 44.7385 26.456C44.5632 26.2811 44.3256 26.1831 44.078 26.1834Z" fill="black"/>
<path d="M33.6751 25.9459H41.5417V28.2858H33.6751V25.9459ZM27.5118 14.6326C25.7078 14.6326 24.2395 13.1643 24.2395 11.3603C24.2395 9.55621 25.7078 8.08911 27.5118 8.08911C29.3159 8.08911 30.7841 9.55621 30.7841 11.3603C30.7841 13.1643 29.3159 14.6326 27.5118 14.6326ZM27.5118 10.429C27.3865 10.4246 27.2616 10.4456 27.1446 10.4905C27.0275 10.5355 26.9207 10.6036 26.8306 10.6907C26.7404 10.7778 26.6687 10.8822 26.6198 10.9977C26.5709 11.1131 26.5457 11.2372 26.5458 11.3626C26.5458 11.488 26.5712 11.6121 26.6202 11.7275C26.6693 11.8429 26.7411 11.9472 26.8314 12.0342C26.9217 12.1212 27.0286 12.1892 27.1457 12.234C27.2628 12.2788 27.3877 12.2996 27.513 12.295C27.7547 12.2863 27.9836 12.1841 28.1515 12.01C28.3194 11.8358 28.4131 11.6033 28.413 11.3615C28.4128 11.1196 28.3188 10.8872 28.1507 10.7132C27.9826 10.5393 27.7536 10.4374 27.5118 10.429ZM27.5118 45.9109C25.7078 45.9109 24.2395 44.4426 24.2395 42.6386C24.2395 40.8345 25.7078 39.3674 27.5118 39.3674C29.3159 39.3674 30.7841 40.8345 30.7841 42.6386C30.7841 44.4426 29.3159 45.9109 27.5118 45.9109ZM27.5118 41.7073C27.3865 41.7029 27.2616 41.7239 27.1446 41.7688C27.0275 41.8138 26.9207 41.8819 26.8306 41.969C26.7404 42.0562 26.6687 42.1606 26.6198 42.276C26.5709 42.3914 26.5457 42.5156 26.5458 42.6409C26.5458 42.7663 26.5712 42.8904 26.6202 43.0058C26.6693 43.1212 26.7411 43.2255 26.8314 43.3125C26.9217 43.3995 27.0286 43.4675 27.1457 43.5123C27.2628 43.5571 27.3877 43.5779 27.513 43.5734C27.7547 43.5647 27.9836 43.4625 28.1515 43.2883C28.3194 43.1142 28.4131 42.8817 28.413 42.6398C28.4128 42.3979 28.3188 42.1655 28.1507 41.9916C27.9826 41.8176 27.7536 41.7157 27.5118 41.7073Z" fill="black"/>
<path d="M27.5117 10.085C27.2014 10.085 26.9039 9.96178 26.6845 9.74238C26.4651 9.52297 26.3418 9.22539 26.3418 8.9151V7.38014C26.3418 7.06986 26.4651 6.77228 26.6845 6.55287C26.9039 6.33347 27.2014 6.21021 27.5117 6.21021C27.822 6.21021 28.1196 6.33347 28.339 6.55287C28.5584 6.77228 28.6817 7.06986 28.6817 7.38014V8.91394C28.6818 9.06767 28.6517 9.21993 28.593 9.36201C28.5342 9.50409 28.4481 9.6332 28.3394 9.74196C28.2308 9.85073 28.1017 9.93701 27.9597 9.99588C27.8177 10.0547 27.6655 10.085 27.5117 10.085ZM27.5117 48.0086C27.2014 48.0086 26.9039 47.8854 26.6845 47.666C26.4651 47.4465 26.3418 47.149 26.3418 46.8387V45.0849C26.3418 44.7747 26.4651 44.4771 26.6845 44.2577C26.9039 44.0383 27.2014 43.915 27.5117 43.915C27.822 43.915 28.1196 44.0383 28.339 44.2577C28.5584 44.4771 28.6817 44.7747 28.6817 45.0849V46.8387C28.6817 47.149 28.5584 47.4465 28.339 47.666C28.1196 47.8854 27.822 48.0086 27.5117 48.0086Z" fill="black"/>
</g>
<defs>
<clipPath id="clip0_3_2172">
<rect width="55.0237" height="54" fill="white"/>
</clipPath>
</defs>
</svg>
