<svg width="128" height="128" viewBox="0 0 128 128" fill="none" xmlns="http://www.w3.org/2000/svg">
<g clip-path="url(#clip0_67_1072)">
<path d="M24 0H104C110.365 0 116.47 2.52856 120.971 7.02944C125.471 11.5303 128 17.6348 128 24V104C128 110.365 125.471 116.47 120.971 120.971C116.47 125.471 110.365 128 104 128H24C17.6348 128 11.5303 125.471 7.02944 120.971C2.52856 116.47 0 110.365 0 104L0 24C0 17.6348 2.52856 11.5303 7.02944 7.02944C11.5303 2.52856 17.6348 0 24 0Z" fill="white"/>
<path d="M92.588 60.748L85.336 53.496L78.084 60.748C77.8043 61.0284 77.4476 61.2195 77.0591 61.297C76.6707 61.3744 76.268 61.3348 75.9021 61.1831C75.5362 61.0315 75.2236 60.7746 75.0039 60.445C74.7842 60.1155 74.6673 59.7281 74.668 59.332V36.668C74.668 34.092 76.76 32 79.332 32H91.332C93.908 32 96 34.092 96 36.668V59.336C95.9991 59.7309 95.8813 60.1167 95.6615 60.4448C95.4417 60.7729 95.1297 61.0286 94.7647 61.1796C94.3998 61.3306 93.9984 61.3702 93.611 61.2934C93.2236 61.2166 92.8677 61.0268 92.588 60.748Z" fill="#FD907E"/>
<path d="M64.668 32H58C55.44 32 53.332 34.108 53.332 36.668V91.336C53.332 93.896 55.44 96.004 58 96.004H64.668C67.228 96.004 69.336 93.896 69.336 91.336V36.668C69.3297 35.4319 68.8359 34.2483 67.9618 33.3742C67.0877 32.5001 65.9041 32.0063 64.668 32ZM64 85.332C64 86.8 62.8 88 61.332 88C59.864 88 58.664 86.8 58.664 85.332V42.668C58.664 41.2 59.864 40 61.332 40C62.8 40 64 41.2 64 42.668V85.332ZM32 88V91.332C32 93.892 34.108 96 36.668 96H43.336C45.892 96 48 93.892 48 91.332V88H32ZM48 82.668V52.668C48 50.108 45.892 48 43.332 48H36.668C34.108 48 32 50.108 32 52.668V82.668H48ZM74.668 88V91.332C74.668 93.892 76.776 96 79.336 96H86C88.56 96 90.668 93.892 90.668 91.332V88H74.668ZM90.668 65.84V82.668H74.668V66.376C75.9207 66.7419 77.2491 66.7614 78.512 66.4324C79.7748 66.1035 80.925 65.4385 81.84 64.508L85.332 61.04L88.824 64.508C89.388 65.068 90 65.492 90.668 65.84Z" fill="#FC573B"/>
</g>
<defs>
<clipPath id="clip0_67_1072">
<rect width="128" height="128" fill="white"/>
</clipPath>
</defs>
</svg>
