<svg width="54" height="54" viewBox="0 0 54 54" fill="none" xmlns="http://www.w3.org/2000/svg">
<g clip-path="url(#clip0_3_2164)">
<path d="M19.1332 41.148C18.8649 41.148 18.5953 41.1376 18.3247 41.1178C12.9438 40.7066 8.72803 35.9832 8.72803 30.3618V25.6106C8.72803 25.1052 8.98127 24.6475 9.40645 24.3838C9.75495 24.1689 11.5474 22.991 12.8915 20.7117C13.0143 20.4961 13.1902 20.3154 13.4025 20.1867C13.6147 20.058 13.8563 19.9857 14.1043 19.9765C14.3523 19.9673 14.5986 20.0216 14.8198 20.1342C15.041 20.2468 15.2297 20.414 15.3682 20.62C15.4321 20.7152 16.9341 22.912 21.2335 23.9284C21.3845 23.9611 21.5274 24.0235 21.654 24.112C21.7805 24.2005 21.8881 24.3134 21.9705 24.444C22.053 24.5746 22.1085 24.7203 22.1339 24.8726C22.1594 25.025 22.1542 25.1808 22.1186 25.3311C22.0831 25.4814 22.018 25.6231 21.927 25.748C21.8361 25.8728 21.7212 25.9782 21.589 26.0581C21.4568 26.138 21.3101 26.1907 21.1573 26.2132C21.0045 26.2357 20.8487 26.2275 20.6991 26.1891C17.6648 25.4723 15.496 24.1097 14.2507 22.8783C13.3705 24.117 12.2887 25.1993 11.0502 26.0799V30.3618C11.0502 34.7762 14.3227 38.482 18.5001 38.8014C19.9634 38.9164 21.4304 38.6322 22.7449 37.979C23.9845 37.3768 25.0463 36.4627 25.8259 35.3262C26.6056 34.1898 27.0762 32.8701 27.1918 31.4968C27.2035 31.3441 27.2457 31.1953 27.3159 31.0592C27.3861 30.9231 27.4829 30.8024 27.6005 30.7043C27.7181 30.6062 27.8541 30.5327 28.0006 30.488C28.1471 30.4434 28.301 30.4285 28.4534 30.4443C28.6053 30.458 28.7531 30.5015 28.8882 30.5724C29.0233 30.6432 29.1432 30.74 29.2409 30.8571C29.3386 30.9743 29.4123 31.1095 29.4578 31.2552C29.5033 31.4008 29.5196 31.5539 29.5058 31.7059C29.1794 35.3396 27.0373 38.4622 23.7753 40.0607C22.3333 40.7785 20.744 41.1507 19.1332 41.148Z" fill="black"/>
<path d="M5.57633 29.0922C5.29235 29.0919 5.0183 28.9876 4.80597 28.7991C4.59364 28.6105 4.45774 28.3507 4.42394 28.0687C4.1068 25.4073 3.78967 18.7265 7.70685 14.168C10.0534 11.4369 13.4874 9.98019 17.9134 9.8373C18.0662 9.83093 18.2188 9.85508 18.3621 9.90833C18.5055 9.96159 18.6369 10.0429 18.7485 10.1475C18.8601 10.252 18.9497 10.3778 19.0122 10.5174C19.0747 10.6571 19.1087 10.8077 19.1122 10.9606C19.1172 11.1131 19.0921 11.2651 19.0383 11.4079C18.9845 11.5506 18.9032 11.6814 18.7989 11.7927C18.6945 11.9041 18.5693 11.9938 18.4304 12.0567C18.2914 12.1196 18.1414 12.1545 17.9889 12.1595C14.2401 12.2803 11.3743 13.4652 9.46912 15.6817C6.06075 19.6489 6.51265 25.9545 6.7322 27.7922C6.75158 27.9555 6.73613 28.1209 6.68688 28.2778C6.63762 28.4346 6.55568 28.5792 6.44646 28.702C6.33724 28.8249 6.20321 28.9231 6.05323 28.9904C5.90324 29.0576 5.7407 29.0923 5.57633 29.0922ZM1.18634 53.9603C0.878242 53.9603 0.582764 53.8379 0.364907 53.62C0.147049 53.4022 0.0246582 53.1067 0.0246582 52.7986V51.8809C0.0246582 48.4295 2.23185 45.3987 5.51592 44.3392L10.4693 43.0985C10.6183 43.0586 10.7737 43.0487 10.9265 43.0694C11.0794 43.0902 11.2265 43.1411 11.3595 43.2193C11.4924 43.2975 11.6084 43.4014 11.7008 43.525C11.7931 43.6485 11.8599 43.7892 11.8973 43.9388C11.9348 44.0884 11.942 44.244 11.9186 44.3965C11.8953 44.5489 11.8418 44.6952 11.7613 44.8267C11.6808 44.9583 11.575 45.0725 11.4499 45.1628C11.3248 45.253 11.183 45.3174 11.0327 45.3522L6.15369 46.5731C3.907 47.3015 2.34686 49.4436 2.34686 51.882V52.7997C2.34716 52.9522 2.31736 53.1033 2.25914 53.2442C2.20093 53.3852 2.11546 53.5132 2.00763 53.621C1.89981 53.7289 1.77175 53.8143 1.63081 53.8725C1.48987 53.9308 1.33883 53.9606 1.18634 53.9603ZM12.6998 38.453H15.0231V43.2205H12.6998V38.453ZM37.0544 53.9603C36.7463 53.9603 36.4508 53.8379 36.233 53.62C36.0151 53.4022 35.8927 53.1067 35.8927 52.7986V51.8809C35.8927 49.4413 34.3326 47.3004 32.0115 46.5511L27.1383 45.3208C26.8395 45.2452 26.583 45.0541 26.4251 44.7894C26.2672 44.5248 26.2208 44.2082 26.2961 43.9094C26.3728 43.6113 26.5641 43.3556 26.8285 43.1978C27.0928 43.0401 27.4087 42.9931 27.7075 43.0672L32.6528 44.3172C36.01 45.3975 38.2161 48.4283 38.2161 51.8797V52.7974C38.2162 52.9501 38.1863 53.1013 38.128 53.2423C38.0697 53.3834 37.9841 53.5116 37.8762 53.6196C37.7683 53.7276 37.6402 53.8133 37.4992 53.8717C37.3582 53.9302 37.207 53.9603 37.0544 53.9603ZM23.2188 38.453H25.5421V43.0811H23.2188V38.453Z" fill="black"/>
<path d="M14.2413 52.967C14.0196 52.9673 13.8025 52.904 13.6157 52.7845C13.4289 52.6651 13.2804 52.4946 13.1876 52.2932L10.0813 45.5775C9.81874 45.0091 9.7518 44.3697 9.89092 43.7592C10.03 43.1487 10.3674 42.6014 10.8503 42.2028L12.0016 41.2537C12.2208 41.0722 12.4993 40.9776 12.7838 40.9881C13.0683 40.9986 13.339 41.1134 13.5443 41.3107L19.9347 47.4269C20.0578 47.5445 20.1535 47.6878 20.215 47.8465C20.2765 48.0052 20.3024 48.1755 20.2908 48.3453C20.2791 48.5152 20.2303 48.6804 20.1476 48.8292C20.065 48.9781 19.9507 49.1069 19.8127 49.2066L14.9243 52.7474C14.7249 52.8895 14.4862 52.9662 14.2413 52.967ZM12.6823 43.7014L12.3268 43.9941C12.24 44.0657 12.1793 44.164 12.1543 44.2738C12.1293 44.3835 12.1413 44.4984 12.1886 44.6005L14.7036 50.036L17.3209 48.1402L12.6823 43.7014Z" fill="black"/>
<path d="M24.0203 52.967C23.7758 52.9671 23.5375 52.8899 23.3395 52.7463L18.45 49.2055C18.312 49.1058 18.1977 48.9769 18.1151 48.8281C18.0325 48.6792 17.9836 48.514 17.972 48.3442C17.9603 48.1744 17.9862 48.004 18.0477 47.8453C18.1093 47.6866 18.205 47.5434 18.328 47.4258L24.7196 41.3095C24.9254 41.1132 25.1959 40.999 25.4802 40.9885C25.7644 40.978 26.0426 41.072 26.2623 41.2526L27.4135 42.2017C27.8965 42.6003 28.2338 43.1475 28.373 43.758C28.5121 44.3685 28.4451 45.0079 28.1826 45.5764L25.0762 52.292C24.9829 52.4935 24.834 52.6642 24.6468 52.7838C24.4597 52.9034 24.2423 52.9669 24.0203 52.967ZM20.9395 48.1402L23.5579 50.0361L26.0718 44.6006C26.1191 44.4984 26.1311 44.3835 26.1061 44.2738C26.0811 44.1641 26.0204 44.0657 25.9336 43.9942L25.5781 43.7014L20.9395 48.1402ZM37.0869 20.6188C36.801 20.6194 36.525 20.5144 36.312 20.3238C35.974 20.0264 32.8793 17.4683 29.3617 20.3493C29.0062 20.6397 28.5067 20.6955 28.0989 20.491C27.9052 20.3937 27.7423 20.2446 27.6283 20.0602C27.5143 19.8758 27.4536 19.6635 27.453 19.4467V10.1021C27.453 9.75478 27.6087 9.42486 27.8771 9.20531C31.455 6.26277 35.1132 7.33965 37.095 8.64886C40.9634 6.05483 44.7795 7.84033 46.3362 9.23783C46.4573 9.34686 46.5541 9.48016 46.6204 9.62907C46.6866 9.77797 46.7208 9.93915 46.7207 10.1021V19.4455C46.7205 19.6623 46.66 19.8747 46.546 20.059C46.432 20.2433 46.269 20.3924 46.0752 20.4894C45.8814 20.5864 45.6644 20.6276 45.4485 20.6084C45.2326 20.5892 45.0263 20.5104 44.8527 20.3807C44.4415 20.024 41.3293 17.4753 37.8257 20.3551C37.6172 20.5255 37.3562 20.6187 37.0869 20.6188ZM32.7793 16.6796C34.5103 16.6796 36.039 17.3092 37.0927 18.005C39.9806 16.0557 42.6745 16.6075 44.3973 17.3893V10.6667C43.4052 9.96969 40.7601 8.58613 37.8245 10.9989C37.6103 11.1743 37.3406 11.2676 37.0639 11.2621C36.7871 11.2565 36.5214 11.1525 36.3143 10.9687C35.9833 10.6783 33.1151 8.30965 29.7764 10.6748V17.3487C30.7164 16.9086 31.7415 16.6802 32.7793 16.6796Z" fill="black"/>
<path d="M35.9253 10.1022H38.2487V19.4595H35.9253V10.1022Z" fill="black"/>
<path d="M25.5293 29.6393C25.3495 29.6387 25.1717 29.6026 25.0059 29.5331C24.8402 29.4635 24.6898 29.362 24.5634 29.2342C24.437 29.1064 24.3371 28.9549 24.2694 28.7884C24.2017 28.6218 24.1676 28.4436 24.1689 28.2639L24.2259 23.1083C21.87 20.5968 20.5793 17.4579 20.5793 14.2157C20.5793 6.39871 27.9851 0.0396729 37.0857 0.0396729C43.1125 0.0396729 48.6607 2.85675 51.5625 7.39311C52.8915 9.4702 53.5932 11.8296 53.5932 14.2168C53.5932 22.0338 46.1874 28.394 37.0857 28.394C34.7251 28.394 32.4564 27.9781 30.3293 27.1568L26.1937 29.4697C25.9901 29.5814 25.7615 29.6398 25.5293 29.6393ZM37.0868 2.36303C29.2664 2.36303 22.9039 7.68005 22.9039 14.2157C22.9039 16.9921 24.0795 19.693 26.2147 21.8212C26.4365 22.0419 26.5597 22.3428 26.5562 22.6564L26.512 26.6294L29.6823 24.8567C29.9959 24.6824 30.3712 24.6615 30.7022 24.8009C32.7234 25.649 34.895 26.0805 37.0868 26.0695C44.9073 26.0695 51.271 20.7524 51.271 14.2168C51.271 12.2745 50.6959 10.3484 49.6051 8.64657C47.1261 4.7712 42.3295 2.36303 37.0868 2.36303Z" fill="black"/>
</g>
<defs>
<clipPath id="clip0_3_2164">
<rect width="53.6188" height="54" fill="white"/>
</clipPath>
</defs>
</svg>
