<svg width="128" height="128" viewBox="0 0 128 128" fill="none" xmlns="http://www.w3.org/2000/svg">
<g clip-path="url(#clip0_65_1064)">
<path d="M104 128H24C17.6348 128 11.5303 125.471 7.02944 120.971C2.52856 116.47 0 110.365 0 104L0 24C0 17.6348 2.52856 11.5303 7.02944 7.02944C11.5303 2.52856 17.6348 0 24 0L104 0C110.365 0 116.47 2.52856 120.971 7.02944C125.471 11.5303 128 17.6348 128 24V104C128 110.365 125.471 116.47 120.971 120.971C116.47 125.471 110.365 128 104 128Z" fill="white"/>
<path d="M64 41.216C63.4696 41.216 62.9609 41.0053 62.5858 40.6302C62.2107 40.2551 62 39.7464 62 39.216V34C62 33.4696 62.2107 32.9609 62.5858 32.5858C62.9609 32.2107 63.4696 32 64 32C64.5304 32 65.0391 32.2107 65.4142 32.5858C65.7893 32.9609 66 33.4696 66 34V39.216C66 39.7464 65.7893 40.2551 65.4142 40.6302C65.0391 41.0053 64.5304 41.216 64 41.216ZM81.524 48.476C81.1287 48.4759 80.7424 48.3587 80.4137 48.1392C80.085 47.9197 79.8287 47.6077 79.6772 47.2426C79.5257 46.8775 79.4857 46.4758 79.5624 46.088C79.6391 45.7003 79.8289 45.3439 80.108 45.064L83.8 41.372C84.1772 41.0077 84.6824 40.8061 85.2068 40.8107C85.7312 40.8152 86.2328 41.0255 86.6036 41.3964C86.9745 41.7672 87.1848 42.2688 87.1893 42.7932C87.1939 43.3176 86.9923 43.8228 86.628 44.2L82.936 47.892C82.7507 48.0775 82.5305 48.2246 82.2882 48.3248C82.0459 48.425 81.7862 48.4764 81.524 48.476ZM94 66H88.784C88.2536 66 87.7449 65.7893 87.3698 65.4142C86.9947 65.0391 86.784 64.5304 86.784 64C86.784 63.4696 86.9947 62.9609 87.3698 62.5858C87.7449 62.2107 88.2536 62 88.784 62H94C94.5304 62 95.0391 62.2107 95.4142 62.5858C95.7893 62.9609 96 63.4696 96 64C96 64.5304 95.7893 65.0391 95.4142 65.4142C95.0391 65.7893 94.5304 66 94 66ZM85.212 87.212C84.6814 87.2121 84.1723 87.0021 83.796 86.628L80.104 82.936C79.7397 82.5588 79.5381 82.0536 79.5426 81.5292C79.5472 81.0048 79.7575 80.5032 80.1284 80.1324C80.4992 79.7615 81.0008 79.5512 81.5252 79.5467C82.0496 79.5421 82.5548 79.7437 82.932 80.108L86.624 83.8C86.9028 84.0797 87.0926 84.4357 87.1694 84.823C87.2462 85.2104 87.2066 85.6119 87.0556 85.9768C86.9046 86.3417 86.6489 86.6537 86.3208 86.8735C85.9927 87.0934 85.6069 87.2111 85.212 87.212ZM42.788 87.212C42.3927 87.2119 42.0064 87.0947 41.6777 86.8752C41.349 86.6557 41.0927 86.3437 40.9412 85.9786C40.7897 85.6135 40.7497 85.2118 40.8264 84.824C40.9031 84.4363 41.0929 84.0799 41.372 83.8L45.064 80.108C45.4412 79.7437 45.9464 79.5421 46.4708 79.5467C46.9952 79.5512 47.4968 79.7615 47.8676 80.1324C48.2385 80.5032 48.4488 81.0048 48.4533 81.5292C48.4579 82.0536 48.2563 82.5588 47.892 82.936L44.2 86.628C44.0149 86.8138 43.7948 86.9611 43.5525 87.0614C43.3101 87.1616 43.0503 87.2128 42.788 87.212ZM39.216 66H34C33.4696 66 32.9609 65.7893 32.5858 65.4142C32.2107 65.0391 32 64.5304 32 64C32 63.4696 32.2107 62.9609 32.5858 62.5858C32.9609 62.2107 33.4696 62 34 62H39.216C39.7464 62 40.2551 62.2107 40.6302 62.5858C41.0053 62.9609 41.216 63.4696 41.216 64C41.216 64.5304 41.0053 65.0391 40.6302 65.4142C40.2551 65.7893 39.7464 66 39.216 66ZM46.476 48.476C45.9454 48.4761 45.4363 48.2661 45.06 47.892L41.368 44.2C41.0037 43.8228 40.8021 43.3176 40.8067 42.7932C40.8112 42.2688 41.0215 41.7672 41.3924 41.3964C41.7632 41.0255 42.2648 40.8152 42.7892 40.8107C43.3136 40.8061 43.8188 41.0077 44.196 41.372L47.888 45.064C48.1668 45.3437 48.3566 45.6997 48.4334 46.087C48.5102 46.4744 48.4706 46.8759 48.3196 47.2408C48.1686 47.6057 47.9129 47.9177 47.5848 48.1375C47.2567 48.3574 46.8709 48.4751 46.476 48.476Z" fill="#FD907E"/>
<path d="M72.0001 88V91.332C72.0001 93.892 69.8921 96 67.3321 96H60.6641C58.4281 96 56.0001 94.292 56.0001 90.56V88H72.0001ZM75.7601 49.492C73.5799 47.7301 71.032 46.4802 68.3043 45.8342C65.5767 45.1883 62.7388 45.163 60.0001 45.76C52.9321 47.228 47.2001 52.988 45.7321 60.052C44.2401 67.304 46.9601 74.504 52.7721 78.904C54.3441 80.076 55.4401 81.892 55.8121 83.996V84.024C55.8681 84 55.9481 84 56.0001 84H72.0001C72.0521 84 72.0801 84 72.1321 84.028V84C72.5041 81.972 73.7041 80.108 75.5441 78.668C77.7655 76.9231 79.561 74.6958 80.7945 72.1545C82.0281 69.6133 82.6674 66.8248 82.6641 64C82.6717 61.2193 82.0554 58.4724 80.8606 55.9615C79.6657 53.4506 77.9227 51.2398 75.7601 49.492ZM74.0001 65.332C73.4709 65.3278 72.9646 65.1157 72.5905 64.7416C72.2163 64.3674 72.0042 63.8611 72.0001 63.332C72.0001 59.28 68.7201 56 64.6681 56C63.5761 56 62.6681 55.092 62.6681 54C62.6681 52.908 63.5761 52 64.6681 52C67.6715 52.0063 70.5502 53.2023 72.674 55.326C74.7978 57.4498 75.9937 60.3285 76.0001 63.332C76.0001 64.428 75.0921 65.332 74.0001 65.332Z" fill="#FC573B"/>
<path d="M55.812 84H56C55.948 84 55.868 84 55.812 84.028V84ZM72.132 84V84.028C72.08 84 72.052 84 72 84H72.132Z" fill="black"/>
</g>
<defs>
<clipPath id="clip0_65_1064">
<rect width="128" height="128" fill="white"/>
</clipPath>
</defs>
</svg>
