<svg width="64" height="64" viewBox="0 0 64 64" fill="none" xmlns="http://www.w3.org/2000/svg">
<path d="M57.7262 6.72625C57.705 6.62367 57.6548 6.52929 57.5818 6.45422C57.5087 6.37915 57.4157 6.32651 57.3137 6.3025C50.5162 4.64 34.8137 10.5638 26.2975 19.0738C24.7797 20.5791 23.3958 22.2136 22.1612 23.9588C19.5362 23.7213 16.9112 23.9213 14.6762 24.8963C8.36497 27.6713 6.52872 34.9188 6.01622 38.03C5.98845 38.2005 6.00031 38.3751 6.05088 38.5402C6.10145 38.7054 6.18937 38.8567 6.30782 38.9824C6.42628 39.1081 6.57209 39.2048 6.73396 39.2651C6.89582 39.3254 7.06939 39.3476 7.24122 39.33L17.375 38.2175C17.3819 38.9818 17.4278 39.7453 17.5125 40.505C17.5654 41.0301 17.7996 41.5203 18.175 41.8913L22.0987 45.815C22.47 46.1906 22.9607 46.4249 23.4862 46.4775C24.2413 46.5617 25.0002 46.6076 25.76 46.615L24.6487 56.74C24.6314 56.9116 24.6537 57.0849 24.714 57.2465C24.7743 57.4081 24.871 57.5537 24.9965 57.6719C25.122 57.7902 25.2731 57.8781 25.438 57.9287C25.6029 57.9793 25.7772 57.9913 25.9475 57.9638C29.06 57.4638 36.3225 55.6275 39.0812 49.3175C40.0562 47.08 40.2562 44.4688 40.0312 41.8563C41.7815 40.6228 43.4207 39.2388 44.93 37.72C53.4775 29.22 59.3637 13.8625 57.7262 6.72625ZM37.3325 26.7088C36.5859 25.9623 36.0774 25.0113 35.8714 23.9759C35.6653 22.9405 35.7709 21.8672 36.1749 20.8918C36.5788 19.9165 37.263 19.0828 38.1407 18.4963C39.0185 17.9097 40.0505 17.5966 41.1062 17.5966C42.1619 17.5966 43.1939 17.9097 44.0717 18.4963C44.9495 19.0828 45.6336 19.9165 46.0375 20.8918C46.4415 21.8672 46.5471 22.9405 46.3411 23.9759C46.135 25.0113 45.6266 25.9623 44.88 26.7088C44.3848 27.205 43.7966 27.5987 43.149 27.8673C42.5015 28.136 41.8073 28.2742 41.1062 28.2742C40.4052 28.2742 39.711 28.136 39.0634 27.8673C38.4159 27.5987 37.8277 27.205 37.3325 26.7088Z" stroke="black" stroke-linecap="round" stroke-linejoin="round"/>
<path d="M13.705 44C12.4589 44.153 11.2996 44.7179 10.4113 45.605C8.20875 47.815 8 56 8 56C8 56 16.19 55.7913 18.3937 53.5863C19.2845 52.6993 19.8503 51.5381 20 50.29" stroke="black" stroke-linecap="round" stroke-linejoin="round"/>
</svg>
