<?xml version="1.0" encoding="UTF-8"?>
<svg id="_Слой_2" data-name="Слой 2" xmlns="http://www.w3.org/2000/svg" xmlns:xlink="http://www.w3.org/1999/xlink" viewBox="0 0 226.33 226.33">
  <defs>
    <style>
      .cls-1 {
        fill: url(#_Безымянный_градиент_27);
      }
    </style>
    <linearGradient id="_Безымянный_градиент_27" data-name="Безымянный градиент 27" x1="169.14" y1="1.95" x2="169.93" y2="310" gradientTransform="translate(101.72 -115.12) rotate(45)" gradientUnits="userSpaceOnUse">
      <stop offset="0" stop-color="#b53b68"/>
      <stop offset="1" stop-color="#f69010"/>
    </linearGradient>
  </defs>
  <g id="_Слой_2-2" data-name="Слой 2">
    <path class="cls-1" d="M169.46,158.86l-.26-32.35c2.39-2.24,4.76-4.53,7.11-6.88,23.55-23.55,35.88-53.42,42.09-74.34,6.7-22.6,7.87-39.5,7.92-40.21.09-1.37-.42-2.71-1.39-3.68s-2.31-1.48-3.68-1.39c-.71.05-17.61,1.21-40.21,7.92-20.92,6.2-50.8,18.54-74.34,42.09-2.35,2.35-4.64,4.72-6.88,7.11l-32.35-.26c-1.32-.01-2.59.53-3.5,1.49l-47.1,49.71c-1.31,1.38-1.67,3.4-.93,5.15.24.57.59,1.08,1.02,1.5.87.87,2.06,1.39,3.34,1.4l38.38.3c-.41.91-.8,1.83-1.18,2.73-.75,1.78-.34,3.84,1.03,5.21l18.34,18.34-13.85,13.85c-1.86,1.86-1.86,4.88,0,6.75s4.88,1.86,6.75,0l13.85-13.85,18.34,18.34c1.37,1.37,3.43,1.77,5.21,1.03.91-.38,1.82-.78,2.73-1.18l.3,38.38c0,1.28.53,2.47,1.4,3.34.42.42.93.77,1.5,1.02,1.75.74,3.77.38,5.15-.93l49.71-47.1c.96-.91,1.5-2.18,1.49-3.5ZM31.34,106.67l38.12-40.24,21.86.17c-11.48,13.41-21.03,27.14-28.02,40.32l-31.97-.25ZM90.37,142.71l19.87-19.87c1.86-1.86,1.86-4.88,0-6.75s-4.88-1.86-6.75,0l-19.87,19.87-16.05-16.05c.97-2.17,2.04-4.37,3.19-6.6.28-.54.56-1.09.85-1.63,9.48-17.87,24.24-37.34,41.83-54.93,22.07-22.07,50.29-33.72,70.07-39.62,14.08-4.19,26.02-6.15,32.68-7.01-.86,6.66-2.81,18.6-7.01,32.68-5.89,19.79-17.55,48-39.62,70.07-17.61,17.61-37.08,32.38-54.97,41.85-.51.27-1.02.54-1.53.8-2.25,1.16-4.48,2.24-6.66,3.22l-16.05-16.05ZM119.66,194.99l-.25-31.97c13.18-6.99,26.91-16.53,40.32-28.02l.17,21.86-40.24,38.12ZM173.55,52.78c-8.33-8.33-21.88-8.33-30.21,0s-8.33,21.88,0,30.21,21.88,8.33,30.21,0c8.33-8.33,8.33-21.88,0-30.21ZM150.08,76.25c-4.61-4.61-4.61-12.11,0-16.72s12.11-4.61,16.72,0,4.61,12.11,0,16.72c-4.61,4.61-12.11,4.61-16.72,0ZM58.66,174.41l-44.55,44.55c-1.86,1.86-4.88,1.86-6.75,0s-1.86-4.88,0-6.75l44.55-44.55c1.86-1.86,4.88-1.86,6.75,0s1.86,4.88,0,6.75ZM93.58,180.39l-44.55,44.55c-1.86,1.86-4.88,1.86-6.75,0s-1.86-4.88,0-6.75l44.55-44.55c1.86-1.86,4.88-1.86,6.75,0s1.86,4.88,0,6.75ZM52.69,139.49l-44.55,44.55c-1.86,1.86-4.88,1.86-6.75,0s-1.86-4.88,0-6.75l44.55-44.55c1.86-1.86,4.88-1.86,6.75,0s1.86,4.88,0,6.75Z"/>
  </g>
</svg>