<svg width="40" height="40" viewBox="0 0 40 40" fill="none" xmlns="http://www.w3.org/2000/svg">
<rect width="40" height="40" rx="10" fill="white"/>
<path fill-rule="evenodd" clip-rule="evenodd" d="M23.7701 27.9994C22.6161 27.9569 19.3458 27.5049 15.9208 24.0807C12.4966 20.6557 12.0455 17.3862 12.0022 16.2315C11.9381 14.4717 13.286 12.7624 14.843 12.0949C15.0305 12.0139 15.2358 11.9831 15.4388 12.0054C15.6418 12.0278 15.8355 12.1025 16.001 12.2223C17.2831 13.1567 18.1678 14.5703 18.9275 15.6817C19.0947 15.9259 19.1661 16.2231 19.1283 16.5166C19.0905 16.8101 18.946 17.0794 18.7224 17.2732L17.1589 18.4344C17.0834 18.4889 17.0302 18.569 17.0093 18.6598C16.9884 18.7506 17.0011 18.8459 17.0451 18.928C17.3993 19.5715 18.0292 20.5299 18.7504 21.2511C19.4716 21.9724 20.4757 22.6439 21.1641 23.0382C21.2504 23.0866 21.352 23.1002 21.448 23.076C21.544 23.0519 21.627 22.9919 21.6802 22.9083L22.6979 21.3593C22.885 21.1108 23.161 20.9443 23.4681 20.8947C23.7752 20.8451 24.0896 20.9163 24.3455 21.0933C25.473 21.8738 26.7888 22.7433 27.752 23.9766C27.8815 24.1432 27.9639 24.3415 27.9906 24.5508C28.0172 24.7602 27.9871 24.9728 27.9035 25.1666C27.2327 26.7316 25.5355 28.0643 23.7701 27.9994Z" fill="#F25237"/>
</svg>
