<svg width="51" height="54" viewBox="0 0 51 54" fill="none" xmlns="http://www.w3.org/2000/svg">
<path d="M25.2789 40.4577C17.8787 40.4577 11.8572 34.4213 11.8572 27.0004C11.8572 19.5796 17.8787 13.542 25.2789 13.542C32.6791 13.542 38.6994 19.5796 38.6994 27.0004C38.6994 34.4213 32.6791 40.4577 25.2789 40.4577ZM25.2789 15.8214C19.131 15.8214 14.1298 20.8365 14.1298 27.0004C14.1298 33.1644 19.131 38.1794 25.2789 38.1794C31.4256 38.1794 36.428 33.1644 36.428 27.0004C36.428 20.8353 31.4256 15.8214 25.2789 15.8214Z" fill="black"/>
<path d="M33.4419 37.3258H31.1694V35.399C31.1697 34.5851 30.8471 33.8043 30.2725 33.2279C29.6978 32.6515 28.918 32.3266 28.1041 32.3245H22.4548C21.6409 32.3266 20.8611 32.6515 20.2864 33.2279C19.7118 33.8043 19.3892 34.5851 19.3895 35.399V37.3258H17.117V35.399C17.117 32.4475 19.5113 30.0462 22.4548 30.0462H28.1041C31.0476 30.0462 33.4419 32.4475 33.4419 35.399V37.3258ZM24.9503 29.2902C22.2722 29.2902 20.0927 27.105 20.0927 24.4188C20.0927 21.7326 22.2722 19.5486 24.9503 19.5486C27.6284 19.5486 29.8068 21.7326 29.8068 24.4188C29.8068 27.105 27.6273 29.2902 24.9503 29.2902ZM24.9503 21.8269C24.2627 21.8269 23.6033 22.1 23.1171 22.5862C22.6309 23.0724 22.3578 23.7318 22.3578 24.4194C22.3578 25.107 22.6309 25.7664 23.1171 26.2526C23.6033 26.7388 24.2627 27.0119 24.9503 27.0119C25.6379 27.0119 26.2973 26.7388 26.7835 26.2526C27.2697 25.7664 27.5428 25.107 27.5428 24.4194C27.5428 23.7318 27.2697 23.0724 26.7835 22.5862C26.2973 22.1 25.6379 21.8269 24.9503 21.8269ZM25.2789 54C24.4877 54.0013 23.7042 53.8459 22.9734 53.5428C22.2426 53.2397 21.579 52.7949 21.021 52.2341C20.4597 51.6739 20.0148 51.0082 19.7122 50.2752C19.4095 49.5422 19.2549 48.7566 19.2574 47.9636C19.2574 46.3505 19.8836 44.8351 21.021 43.6942C22.1584 42.5533 23.6704 41.9249 25.2789 41.9249C26.8874 41.9249 28.4005 42.5533 29.5368 43.6942C30.6644 44.829 31.2973 46.3638 31.2973 47.9636C31.2973 49.5633 30.6644 51.0982 29.5368 52.233C28.979 52.7942 28.3155 53.2393 27.5847 53.5426C26.8538 53.8459 26.0702 54.0014 25.2789 54ZM22.6272 50.6233C23.3306 51.3263 24.2844 51.7212 25.2789 51.7212C26.2734 51.7212 27.2272 51.3263 27.9306 50.6233C28.6327 49.9167 29.0268 48.9609 29.0268 47.9647C29.0268 46.9685 28.6327 46.0128 27.9306 45.3061C26.5128 43.8861 24.0449 43.8861 22.6272 45.3061C22.2779 45.6548 22.0011 46.0691 21.8126 46.5251C21.624 46.9812 21.5276 47.4701 21.5288 47.9636C21.53 48.9689 21.9194 49.9121 22.6272 50.6233ZM25.2789 12.0714C24.4877 12.0727 23.7042 11.9173 22.9734 11.6142C22.2426 11.3111 21.579 10.8664 21.021 10.3055C19.8933 9.17052 19.2604 7.63553 19.2604 6.03557C19.2604 4.43561 19.8933 2.90061 21.021 1.76562C21.5798 1.2059 22.2435 0.761867 22.9742 0.458904C23.7048 0.155942 24.4879 0 25.2789 0C26.0698 0 26.853 0.155942 27.5836 0.458904C28.3142 0.761867 28.9779 1.2059 29.5368 1.76562C30.6644 2.90061 31.2974 4.43561 31.2974 6.03557C31.2974 7.63553 30.6644 9.17052 29.5368 10.3055C28.9788 10.8664 28.3152 11.3112 27.5844 11.6143C26.8536 11.9174 26.07 12.0728 25.2789 12.0714ZM25.2789 2.27803C24.7862 2.2773 24.2983 2.37408 23.8431 2.56279C23.388 2.7515 22.9748 3.0284 22.6272 3.37755C21.925 4.08421 21.5309 5.03995 21.5309 6.03614C21.5309 7.03233 21.925 7.98807 22.6272 8.69474C22.9753 9.0431 23.3887 9.31945 23.8437 9.50799C24.2987 9.69654 24.7864 9.79358 25.2789 9.79358C25.7714 9.79358 26.2591 9.69654 26.7141 9.50799C27.1691 9.31945 27.5824 9.0431 27.9306 8.69474C28.6327 7.98807 29.0268 7.03233 29.0268 6.03614C29.0268 5.03995 28.6327 4.08421 27.9306 3.37755C27.583 3.02835 27.1698 2.75141 26.7146 2.5627C26.2595 2.37399 25.7716 2.27724 25.2789 2.27803Z" fill="black"/>
<path d="M24.1426 39.4249H26.4152V43.2197H24.1426V39.4249ZM24.1426 10.6123H26.4152V14.4072H24.1426V10.6123ZM6.01958 43.2462C5.45909 43.2458 4.90142 43.1669 4.36284 43.0118C1.17115 42.0938 -0.680909 38.7424 0.23363 35.5427C1.14932 32.3418 4.48807 30.4817 7.68206 31.4031C10.8738 32.3211 12.7258 35.6725 11.8113 38.8722C11.4507 40.1307 10.6908 41.2379 9.64618 42.0268C8.60151 42.8158 7.32868 43.2437 6.01958 43.2462ZM6.02417 33.447C5.20906 33.4485 4.41655 33.7151 3.7662 34.2065C3.11586 34.6979 2.64296 35.3874 2.41887 36.1711C2.14539 37.1289 2.26238 38.1561 2.74424 39.0279C3.2261 39.8997 4.03362 40.5451 4.99015 40.8231C6.97777 41.3964 9.05731 40.2371 9.62718 38.2449C10.197 36.2527 9.04467 34.1651 7.0559 33.5929C6.72063 33.4957 6.37325 33.4466 6.02417 33.447Z" fill="black"/>
<path d="M10.7071 35.9056L9.61682 33.9076L13.7966 31.6155L14.8869 33.6135L10.7071 35.9056ZM44.5267 22.8137C43.9662 22.8133 43.4085 22.7344 42.8699 22.5793C39.6782 21.6613 37.8262 18.3099 38.7419 15.1102C39.6587 11.9104 42.9986 10.0549 46.1903 10.9706C49.382 11.8886 51.234 15.24 50.3184 18.4397C49.9578 19.6982 49.1979 20.8054 48.1533 21.5943C47.1086 22.3833 45.8358 22.8112 44.5267 22.8137ZM40.926 15.7386C40.6531 16.6963 40.7704 17.723 41.2522 18.5944C41.734 19.4659 42.5411 20.1112 43.4972 20.3895C43.9711 20.5254 44.4672 20.5664 44.957 20.5104C45.4468 20.4543 45.9207 20.3022 46.3517 20.0627C46.7826 19.8232 47.1621 19.5011 47.4684 19.1148C47.7746 18.7284 48.0017 18.2855 48.1366 17.8113C48.4097 16.8538 48.2925 15.8271 47.8106 14.9557C47.3288 14.0844 46.5215 13.4393 45.5653 13.1616C44.6084 12.8887 43.5822 13.0068 42.7123 13.49C41.8424 13.9732 41.1999 14.782 40.926 15.7386Z" fill="black"/>
<path d="M36.7657 22.385L35.6674 20.3905L39.9896 17.9962L41.0891 19.9907L36.7657 22.385ZM6.01842 22.8343C4.99948 22.8333 3.99769 22.5719 3.10822 22.0748C2.4145 21.6915 1.80373 21.1743 1.31128 20.5533C0.818838 19.9323 0.4545 19.2197 0.239371 18.4569C-0.204111 16.907 -0.019135 15.2755 0.76098 13.8658C1.54109 12.4561 2.82214 11.4335 4.36858 10.9889C5.12857 10.7689 5.92465 10.7018 6.71074 10.7915C7.49683 10.8813 8.25731 11.126 8.94816 11.5117C9.64145 11.8953 10.2519 12.4124 10.7443 13.0332C11.2367 13.6539 11.6013 14.3661 11.817 15.1285C12.037 15.8905 12.1042 16.6885 12.0147 17.4767C11.9252 18.2648 11.6807 19.0274 11.2954 19.7207C10.9141 20.4149 10.3989 21.0266 9.77971 21.5204C9.16047 22.0142 8.44946 22.3803 7.6878 22.5976C7.13632 22.7561 6.57565 22.8343 6.01842 22.8343ZM6.03336 13.0328C5.68639 13.0328 5.33712 13.0811 4.99474 13.1799C4.03195 13.4568 3.2346 14.0921 2.74861 14.9711C2.26261 15.85 2.14772 16.8645 2.42461 17.8296C2.70035 18.7958 3.33455 19.5955 4.21003 20.0814C4.63986 20.3225 5.11345 20.4754 5.60309 20.5312C6.09272 20.5871 6.58858 20.5447 7.06164 20.4066C7.77432 20.1992 8.4098 19.7857 8.8882 19.2182C9.3666 18.6507 9.66657 17.9544 9.75043 17.2169C9.83428 16.4794 9.69827 15.7336 9.35949 15.0732C9.02071 14.4127 8.49428 13.8672 7.84635 13.505C7.29212 13.1957 6.66805 13.0332 6.03336 13.0328Z" fill="black"/>
<path d="M13.7966 22.3841L9.62143 20.0943L10.7118 18.0952L14.8869 20.385L13.7966 22.3841ZM44.5175 43.2657C43.4985 43.2649 42.4967 43.0034 41.6073 42.5063C40.9136 42.1231 40.3029 41.6061 39.8105 40.9853C39.318 40.3645 38.9536 39.6521 38.7384 38.8895C37.8228 35.6897 39.6748 32.3383 42.8665 31.4215C46.0547 30.5012 49.4004 32.3602 50.3149 35.5611C51.2306 38.7619 49.3774 42.1122 46.1869 43.029C45.6443 43.1861 45.0823 43.2658 44.5175 43.2657ZM43.4915 33.6113C43.0174 33.7468 42.5748 33.9748 42.1893 34.2823C41.8038 34.5897 41.483 34.9704 41.2454 35.4025C41.0058 35.8344 40.8538 36.3093 40.798 36.7999C40.7422 37.2906 40.7838 37.7875 40.9202 38.2622C41.196 39.2284 41.8313 40.028 42.7079 40.514C43.138 40.7546 43.6115 40.9073 44.101 40.9634C44.5905 41.0194 45.0863 40.9776 45.5596 40.8403C46.5158 40.5624 47.3231 39.9171 47.805 39.0455C48.2868 38.174 48.404 37.1472 48.1308 36.1895C47.8561 35.2334 47.2135 34.4251 46.3439 33.9418C45.4743 33.4586 44.4486 33.3397 43.4915 33.6113Z" fill="black"/>
<path d="M39.9862 36.0047L35.6674 33.6115L36.7658 31.6182L41.0845 34.0114L39.9862 36.0047Z" fill="black"/>
</svg>
