<svg width="128" height="128" viewBox="0 0 128 128" fill="none" xmlns="http://www.w3.org/2000/svg">
<g clip-path="url(#clip0_65_1024)">
<path d="M104 128H24C17.6348 128 11.5303 125.471 7.02944 120.971C2.52856 116.47 0 110.365 0 104L0 24C0 17.6348 2.52856 11.5303 7.02944 7.02944C11.5303 2.52856 17.6348 0 24 0L104 0C110.365 0 116.47 2.52856 120.971 7.02944C125.471 11.5303 128 17.6348 128 24V104C128 110.365 125.471 116.47 120.971 120.971C116.47 125.471 110.365 128 104 128Z" fill="#FFE6E2"/>
<path d="M60.6679 32C60.2938 31.9952 59.9262 32.0983 59.6092 32.297C59.2921 32.4956 59.0389 32.7813 58.8799 33.12C58.7114 33.4539 58.6397 33.8283 58.673 34.2008C58.7062 34.5733 58.843 34.9292 59.0679 35.228L66.8279 45.336L59.0679 55.444C58.8447 55.7436 58.709 56.0992 58.6758 56.4714C58.6426 56.8435 58.7132 57.2176 58.8799 57.552C59.1999 58.244 59.8919 58.672 60.6679 58.672H87.9999V34C87.9999 33.308 88.1319 32.612 88.3479 32H60.6679Z" fill="#FD907E"/>
<path d="M46.668 78.668C51.0862 78.668 54.668 75.0862 54.668 70.668C54.668 66.2497 51.0862 62.668 46.668 62.668C42.2497 62.668 38.668 66.2497 38.668 70.668C38.668 75.0862 42.2497 78.668 46.668 78.668Z" fill="#FD6844"/>
<path d="M77.332 82.664C80.2768 82.664 82.664 80.2768 82.664 77.332C82.664 74.3872 80.2768 72 77.332 72C74.3872 72 72 74.3872 72 77.332C72 80.2768 74.3872 82.664 77.332 82.664Z" fill="#FD6844"/>
<path d="M80.668 85.332H74C72.0561 85.3341 70.1924 86.1072 68.8178 87.4818C67.4433 88.8564 66.6701 90.7201 66.668 92.664V94C66.668 94.5304 66.8787 95.0391 67.2538 95.4142C67.6289 95.7893 68.1376 96 68.668 96H86C86.5304 96 87.0391 95.7893 87.4142 95.4142C87.7893 95.0391 88 94.5304 88 94V92.668C87.9979 90.7237 87.2249 88.8596 85.8504 87.4844C84.476 86.1092 82.6123 85.3351 80.668 85.332ZM54 82.668H39.332C37.3881 82.6701 35.5244 83.4432 34.1498 84.8178C32.7753 86.1924 32.0021 88.0561 32 90V94C32 94.5304 32.2107 95.0391 32.5858 95.4142C32.9609 95.7893 33.4696 96 34 96H59.332C59.8624 96 60.3711 95.7893 60.7462 95.4142C61.1213 95.0391 61.332 94.5304 61.332 94V90C61.3299 88.0561 60.5567 86.1924 59.1822 84.8178C57.8076 83.4432 55.9439 82.6701 54 82.668Z" fill="#FD6844"/>
<path d="M94 96C93.4696 96 92.9609 95.7893 92.5858 95.4142C92.2107 95.0391 92 94.5304 92 94V34C92 33.4696 92.2107 32.9609 92.5858 32.5858C92.9609 32.2107 93.4696 32 94 32C94.5304 32 95.0391 32.2107 95.4142 32.5858C95.7893 32.9609 96 33.4696 96 34V94C96 94.5304 95.7893 95.0391 95.4142 95.4142C95.0391 95.7893 94.5304 96 94 96Z" fill="#FD907E"/>
</g>
<defs>
<clipPath id="clip0_65_1024">
<rect width="128" height="128" fill="white"/>
</clipPath>
</defs>
</svg>
