<svg width="128" height="128" viewBox="0 0 128 128" fill="none" xmlns="http://www.w3.org/2000/svg">
<g clip-path="url(#clip0_65_1034)">
<path d="M104 128H24C17.6348 128 11.5303 125.471 7.02944 120.971C2.52856 116.47 0 110.365 0 104L0 24C0 17.6348 2.52856 11.5303 7.02944 7.02944C11.5303 2.52856 17.6348 0 24 0L104 0C110.365 0 116.47 2.52856 120.971 7.02944C125.471 11.5303 128 17.6348 128 24V104C128 110.365 125.471 116.47 120.971 120.971C116.47 125.471 110.365 128 104 128Z" fill="#FFE6E2"/>
<path d="M44 48.668V36.668C44 35.976 44.08 35.308 44.268 34.668H36.668C34.108 34.668 32 36.772 32 39.332V51.332C32 53.892 34.108 56 36.668 56H37.656L41.068 60.532C41.44 61.012 42 61.304 42.588 61.332H42.668C43.256 61.332 43.788 61.092 44.16 60.64L48.16 56.08C46.8945 55.2992 45.8486 54.2091 45.1208 52.9123C44.393 51.6156 44.0073 50.155 44 48.668ZM91.332 34.668H83.732C83.92 35.308 84 35.972 84 36.668V48.668C84 51.788 82.32 54.536 79.84 56.08L83.84 60.64C84.021 60.8597 84.249 61.036 84.5072 61.1558C84.7655 61.2756 85.0474 61.3358 85.332 61.332H85.412C85.708 61.3159 85.997 61.2361 86.2594 61.098C86.5217 60.9599 86.7511 60.7669 86.932 60.532L90.32 56H91.332C93.892 56 96 53.892 96 51.332V39.332C96 36.772 93.892 34.668 91.332 34.668ZM64 58.668H63.924C63.6264 58.6568 63.335 58.5791 63.0713 58.4407C62.8076 58.3023 62.5782 58.1066 62.4 57.868L59 53.336H52.668C51.4303 53.3349 50.2436 52.8428 49.3684 51.9676C48.4932 51.0924 48.0011 49.9057 48 48.668V36.668C48 34.092 50.092 32 52.668 32H75.336C77.908 32 80 34.092 80 36.668V48.668C80 51.24 77.908 53.336 75.332 53.336H69.572L65.504 57.984C65.3162 58.1982 65.0849 58.3699 64.8256 58.4879C64.5663 58.6058 64.2849 58.6672 64 58.668Z" fill="#FD907E"/>
<path d="M42.6679 77.332C45.6127 77.332 47.9999 74.9448 47.9999 72C47.9999 69.0552 45.6127 66.668 42.6679 66.668C39.7232 66.668 37.3359 69.0552 37.3359 72C37.3359 74.9448 39.7232 77.332 42.6679 77.332Z" fill="#FD6844"/>
<path d="M49.788 81.068C48.4048 82.1103 47.2826 83.4596 46.51 85.0097C45.7374 86.5597 45.3355 88.2681 45.336 90V90.668H34C33.4709 90.6638 32.9646 90.4518 32.5904 90.0776C32.2162 89.7034 32.0042 89.1971 32 88.668V87.336C32 83.28 35.28 80 39.332 80H46C47.388 80 48.692 80.4 49.788 81.068Z" fill="#FD6844"/>
<path d="M85.332 77.332C88.2768 77.332 90.664 74.9448 90.664 72C90.664 69.0552 88.2768 66.668 85.332 66.668C82.3872 66.668 80 69.0552 80 72C80 74.9448 82.3872 77.332 85.332 77.332Z" fill="#FD6844"/>
<path d="M96.0001 87.332V88.664C96.0001 89.756 95.0921 90.664 94.0001 90.664H82.6681V90C82.6681 86.348 80.9081 83.092 78.2161 81.068C79.3081 80.4 80.6121 80 82.0001 80H88.6681C92.7201 80 96.0001 83.28 96.0001 87.332Z" fill="#FD6844"/>
<path d="M64 78.668C68.4183 78.668 72 75.0862 72 70.668C72 66.2497 68.4183 62.668 64 62.668C59.5817 62.668 56 66.2497 56 70.668C56 75.0862 59.5817 78.668 64 78.668Z" fill="#FD6844"/>
<path d="M71.332 82.668H56.664C54.7201 82.6701 52.8564 83.4432 51.4819 84.8178C50.1073 86.1924 49.3341 88.0561 49.332 90V94C49.332 94.5304 49.5427 95.0391 49.9178 95.4142C50.2929 95.7893 50.8016 96 51.332 96H76.664C77.1945 96 77.7032 95.7893 78.0782 95.4142C78.4533 95.0391 78.664 94.5304 78.664 94V90C78.663 88.0557 77.8902 86.1914 76.5154 84.8166C75.1406 83.4418 73.2763 82.669 71.332 82.668Z" fill="#FD6844"/>
</g>
<defs>
<clipPath id="clip0_65_1034">
<rect width="128" height="128" fill="white"/>
</clipPath>
</defs>
</svg>
