<svg width="128" height="128" viewBox="0 0 128 128" fill="none" xmlns="http://www.w3.org/2000/svg">
<g clip-path="url(#clip0_67_1094)">
<path d="M104 128H24C17.6348 128 11.5303 125.471 7.02944 120.971C2.52856 116.47 0 110.365 0 104L0 24C0 17.6348 2.52856 11.5303 7.02944 7.02944C11.5303 2.52856 17.6348 0 24 0L104 0C110.365 0 116.47 2.52856 120.971 7.02944C125.471 11.5303 128 17.6348 128 24V104C128 110.365 125.471 116.47 120.971 120.971C116.47 125.471 110.365 128 104 128Z" fill="#FFE6E2"/>
<path d="M69.332 69.332H45.332C44.6428 69.3053 43.9907 69.0128 43.5125 68.5157C43.0344 68.0187 42.7673 67.3557 42.7673 66.666C42.7673 65.9763 43.0344 65.3134 43.5125 64.8163C43.9907 64.3193 44.6428 64.0267 45.332 64H69.332C69.6908 63.9861 70.0487 64.0448 70.3842 64.1725C70.7198 64.3002 71.0262 64.4944 71.2849 64.7433C71.5437 64.9922 71.7496 65.2908 71.8902 65.6212C72.0308 65.9516 72.1033 66.307 72.1033 66.666C72.1033 67.0251 72.0308 67.3805 71.8902 67.7108C71.7496 68.0412 71.5437 68.3398 71.2849 68.5888C71.0262 68.8377 70.7198 69.0318 70.3842 69.1595C70.0487 69.2873 69.6908 69.3459 69.332 69.332ZM58.668 58.668H45.336C44.6284 58.668 43.9498 58.3869 43.4494 57.8866C42.9491 57.3862 42.668 56.7076 42.668 56C42.668 55.2924 42.9491 54.6138 43.4494 54.1135C43.9498 53.6131 44.6284 53.332 45.336 53.332H58.668C59.3756 53.332 60.0542 53.6131 60.5545 54.1135C61.0549 54.6138 61.336 55.2924 61.336 56C61.336 56.7076 61.0549 57.3862 60.5545 57.8866C60.0542 58.3869 59.3756 58.668 58.668 58.668Z" fill="#FD6844"/>
<path d="M81.336 32C73.248 32 66.668 38.58 66.668 46.668C66.668 54.756 73.248 61.336 81.336 61.336C89.424 61.336 96 54.752 96 46.668C96 38.584 89.42 32 81.336 32ZM88.976 44.46L81.704 52.46C81.4621 52.7256 81.1692 52.9397 80.8428 53.0895C80.5163 53.2394 80.163 53.3218 79.804 53.332H79.732C79.0313 53.3317 78.3589 53.0559 77.86 52.564L73.8 48.564C73.344 48.0579 73.0985 47.3968 73.1137 46.7158C73.1289 46.0348 73.4036 45.3853 73.8817 44.9001C74.3598 44.4149 75.0051 44.1306 75.6858 44.1053C76.3665 44.08 77.0312 44.3156 77.544 44.764L79.624 46.816L85.032 40.868C85.5084 40.3456 86.1725 40.0333 86.8788 39.9995C87.5851 39.9658 88.2759 40.2133 88.8 40.688C89.3212 41.1662 89.6321 41.8311 89.6651 42.5377C89.6981 43.2443 89.4504 43.9353 88.976 44.46Z" fill="#FD907E"/>
<path d="M90.668 64.32V77.332H37.332V48H61.412C61.3594 47.5579 61.3327 47.1131 61.332 46.668C61.332 45.308 61.464 43.948 61.732 42.668H36.664C34.104 42.668 32 44.772 32 47.332V83.332C32 85.892 34.104 88 36.664 88H57.088C56.776 89.336 55.944 91.504 53.724 93.724C53.5369 93.9103 53.4093 94.148 53.3576 94.4069C53.3058 94.6659 53.3322 94.9344 53.4334 95.1783C53.5345 95.4222 53.7059 95.6306 53.9257 95.7769C54.1456 95.9232 54.4039 96.0008 54.668 96H73.336C73.5992 95.9989 73.8563 95.9201 74.0749 95.7735C74.2934 95.6269 74.4639 95.419 74.5647 95.1758C74.6655 94.9327 74.6923 94.6652 74.6417 94.4069C74.591 94.1486 74.4652 93.911 74.28 93.724C72.064 91.508 71.212 89.34 70.88 88H91.336C93.896 88 96 85.892 96 83.332V60.212C94.508 61.892 92.696 63.28 90.668 64.32Z" fill="#FD6844"/>
</g>
<defs>
<clipPath id="clip0_67_1094">
<rect width="128" height="128" fill="white"/>
</clipPath>
</defs>
</svg>
