<svg width="57" height="54" viewBox="0 0 57 54" fill="none" xmlns="http://www.w3.org/2000/svg">
<g clip-path="url(#clip0_8_1122)">
<path d="M29.1339 24.8476C28.912 24.8469 28.6941 24.7884 28.5016 24.6777C28.3092 24.5671 28.149 24.4082 28.0367 24.2168C27.9244 24.0253 27.864 23.8079 27.8614 23.586C27.8588 23.364 27.9141 23.1452 28.0218 22.9512C28.0472 22.907 28.0605 22.8569 28.0604 22.8059V22.5771C28.0604 22.2466 27.4612 22.2453 27.4625 22.5771V22.8059C27.4625 22.8573 27.4754 22.9049 27.4998 22.9486C27.665 23.2439 27.7061 23.5928 27.6142 23.9184C27.5222 24.244 27.3046 24.5198 27.0093 24.685C26.714 24.8502 26.3652 24.8913 26.0395 24.7993C25.7139 24.7074 25.4381 24.4898 25.2729 24.1945C25.0357 23.7697 24.9113 23.2912 24.9117 22.8046V22.5771C24.9275 21.8314 25.2348 21.1216 25.7678 20.5998C26.3007 20.0781 27.0169 19.7859 27.7627 19.7859C28.5086 19.7859 29.2247 20.0781 29.7577 20.5998C30.2906 21.1216 30.598 21.8314 30.6138 22.5771V22.8059C30.6138 23.2919 30.4878 23.7715 30.2512 24.1958C30.1393 24.3935 29.9769 24.5581 29.7806 24.6726C29.5843 24.7871 29.3612 24.8475 29.1339 24.8476Z" fill="url(#paint0_linear_8_1122)"/>
<path d="M32.7468 26.5152C32.4388 26.5118 32.1424 26.3971 31.9123 26.1923C31.6822 25.9875 31.5339 25.7064 31.4947 25.4009C31.4556 25.0953 31.5282 24.7859 31.6992 24.5297C31.8703 24.2735 32.1282 24.0878 32.4254 24.0068C32.5387 23.9783 32.6436 23.9232 32.7314 23.8461C32.8445 23.7458 33.0387 23.5195 33.0387 23.157C33.0387 22.7944 32.8445 22.5681 32.7288 22.4665C32.4562 22.2248 31.9908 22.2145 31.6282 22.4447L30.4634 23.1801C30.1775 23.3607 29.8315 23.4202 29.5017 23.3457C29.1718 23.2712 28.8851 23.0687 28.7045 22.7828C28.524 22.4969 28.4644 22.151 28.5389 21.8211C28.6134 21.4913 28.8159 21.2045 29.1018 21.024L30.2667 20.2885C31.5897 19.4541 33.2971 19.5647 34.4195 20.5547C34.7878 20.8805 35.0828 21.2807 35.2849 21.729C35.487 22.1773 35.5916 22.6634 35.5919 23.1551C35.5921 23.6468 35.488 24.133 35.2863 24.5815C35.0847 25.03 34.7901 25.4305 34.4221 25.7567C34.0342 26.0976 33.5719 26.3429 33.0721 26.4728C32.966 26.5013 32.8566 26.5156 32.7468 26.5152ZM22.7697 26.514C22.6603 26.5137 22.5514 26.4994 22.4457 26.4715C21.948 26.3424 21.4877 26.098 21.1021 25.758C20.7336 25.4321 20.4386 25.0317 20.2365 24.5832C20.0344 24.1348 19.9298 23.6485 19.9297 23.1566C19.9295 22.6647 20.0339 22.1784 20.2358 21.7299C20.4377 21.2813 20.7325 20.8807 21.1008 20.5547C22.2258 19.5634 23.9332 19.4541 25.2537 20.2885L26.3864 20.934C26.5318 21.0171 26.6593 21.1281 26.7618 21.2606C26.8643 21.393 26.9397 21.5444 26.9837 21.7059C27.0277 21.8675 27.0394 22.0362 27.0182 22.2023C26.997 22.3685 26.9433 22.5288 26.8602 22.6742C26.777 22.8196 26.666 22.9471 26.5336 23.0496C26.4011 23.1521 26.2498 23.2275 26.0882 23.2715C25.9266 23.3155 25.7579 23.3272 25.5918 23.306C25.4257 23.2848 25.2653 23.2311 25.12 23.148L23.9384 22.4742C23.5244 22.2158 23.0628 22.2248 22.789 22.4678C22.6732 22.5694 22.4791 22.7957 22.4791 23.1582C22.4791 23.5208 22.6732 23.7471 22.789 23.8487C22.8758 23.9244 22.9794 23.9786 23.0911 24.0068C23.3891 24.0869 23.6479 24.2722 23.8197 24.5285C23.9915 24.7848 24.0645 25.0947 24.0253 25.4008C23.986 25.7068 23.8372 25.9882 23.6063 26.1929C23.3754 26.3976 23.0782 26.5117 22.7697 26.514ZM19.2725 54C19.105 54.0001 18.9391 53.9673 18.7842 53.9032C18.6294 53.8392 18.4888 53.7452 18.3703 53.6268C18.2518 53.5083 18.1579 53.3676 18.0938 53.2128C18.0298 53.058 17.9969 52.8921 17.9971 52.7245V50.3678C17.9971 48.564 19.0527 46.9028 20.6868 46.1391L23.3367 44.8958L23.3971 43.0894C23.3971 42.7511 23.5315 42.4267 23.7707 42.1875C24.0099 41.9483 24.3343 41.814 24.6725 41.814C25.0108 41.814 25.3352 41.9483 25.5744 42.1875C25.8136 42.4267 25.948 42.7511 25.948 43.0894V44.8007C25.948 45.8241 25.3488 46.7665 24.4205 47.2037L21.7694 48.447C21.0262 48.7941 20.548 49.5488 20.548 50.3678V52.7245C20.5483 52.8921 20.5155 53.0581 20.4516 53.213C20.3876 53.3679 20.2937 53.5086 20.1752 53.6272C20.0566 53.7457 19.9159 53.8396 19.761 53.9036C19.6061 53.9675 19.4401 54.0003 19.2725 54ZM36.2478 54C36.0803 54.0001 35.9143 53.9673 35.7595 53.9032C35.6047 53.8392 35.464 53.7452 35.3456 53.6268C35.2271 53.5083 35.1332 53.3676 35.0691 53.2128C35.0051 53.058 34.9722 52.8921 34.9724 52.7245V50.3678C34.9724 49.5488 34.4928 48.7941 33.751 48.447L31.0998 47.2037C30.6443 46.9883 30.259 46.6483 29.9887 46.223C29.7184 45.7977 29.5741 45.3046 29.5724 44.8007V43.0894C29.5724 42.7511 29.7068 42.4267 29.946 42.1875C30.1851 41.9483 30.5096 41.814 30.8478 41.814C31.1861 41.814 31.5105 41.9483 31.7497 42.1875C31.9889 42.4267 32.1232 42.7511 32.1232 43.0894V44.8007L34.8348 46.1391C35.6371 46.5174 36.3156 47.1156 36.7915 47.8641C37.2674 48.6126 37.5211 49.4808 37.5232 50.3678V52.7245C37.5234 52.8921 37.4905 53.058 37.4265 53.2128C37.3625 53.3676 37.2685 53.5083 37.1501 53.6268C37.0316 53.7452 36.8909 53.8392 36.7361 53.9032C36.5813 53.9673 36.4154 54.0001 36.2478 54Z" fill="url(#paint1_linear_8_1122)"/>
<path d="M27.7891 51.1932C23.2647 51.1932 21.6357 47.2178 21.5675 47.0468C21.442 46.7327 21.4465 46.3817 21.5798 46.0709C21.7131 45.7601 21.9645 45.515 22.2785 45.3895C22.5926 45.264 22.9436 45.2684 23.2544 45.4018C23.5652 45.5351 23.8103 45.7864 23.9358 46.1005C23.9885 46.2265 25.0544 48.7362 27.9408 48.6411C30.8864 48.5575 31.726 46.2599 31.735 46.2355C31.855 45.9268 32.0903 45.6768 32.3912 45.5384C32.692 45.3999 33.0349 45.3838 33.3475 45.4934C33.66 45.6031 33.9177 45.8298 34.0662 46.1259C34.2146 46.422 34.2422 46.7642 34.1431 47.0802C34.0865 47.2422 32.6954 51.0582 28.0154 51.1906L27.7891 51.1932ZM27.7634 44.6425C27.568 44.6425 27.3725 44.6348 27.1745 44.6206C23.3007 44.3262 20.2664 40.9345 20.2664 36.9025V33.7101C20.2664 33.2035 20.521 32.7406 20.9491 32.4719C21.1741 32.3331 22.2914 31.5976 23.1348 30.1692C23.4022 29.7192 23.8677 29.4454 24.3807 29.4338C24.895 29.3914 25.3565 29.6639 25.6381 30.0856C25.6574 30.1152 27.5782 32.8666 33.6597 32.3511C33.8621 32.3331 34.0661 32.3574 34.2587 32.4224C34.4513 32.4875 34.6282 32.5919 34.7782 32.729C34.9283 32.8661 35.0482 33.0329 35.1303 33.2189C35.2124 33.4048 35.255 33.6058 35.2552 33.8091V37.1558C35.2552 37.7549 35.1845 38.3515 35.0431 38.9275C34.6496 40.5602 33.717 42.0125 32.396 43.0496C31.075 44.0866 29.4428 44.6479 27.7634 44.6425ZM22.8185 34.2771V36.9012C22.8185 39.6089 24.8178 41.8834 27.37 42.0775C28.541 42.1736 29.7078 41.8483 30.6601 41.1602C31.6125 40.4721 32.2878 39.4664 32.5642 38.3245C32.6568 37.9452 32.7044 37.5505 32.7044 37.1545V34.9572C28.3188 35.0704 25.8078 33.6702 24.5452 32.6018C24.0416 33.2299 23.4615 33.7926 22.8185 34.2771Z" fill="url(#paint2_linear_8_1122)"/>
<path d="M36.9485 37.4078C36.7467 37.4076 36.5478 37.3595 36.3681 37.2676C36.1884 37.1756 36.0331 37.0423 35.9149 36.8787C35.7967 36.7151 35.719 36.5258 35.6881 36.3263C35.6573 36.1269 35.6742 35.9229 35.7374 35.7312C35.9971 34.9521 36.1282 34.137 36.1282 33.3077C36.1282 28.899 32.3739 25.3144 27.7595 25.3144C23.1451 25.3144 19.3908 28.9002 19.3908 33.3077C19.3908 34.1357 19.5219 34.9495 19.7817 35.73C19.8884 36.0512 19.8631 36.4016 19.7115 36.7042C19.5598 37.0068 19.2942 37.2368 18.9729 37.3435C18.6517 37.4503 18.3013 37.425 17.9987 37.2734C17.6961 37.1217 17.4661 36.856 17.3594 36.5348C17.0136 35.494 16.8378 34.4044 16.8387 33.3077C16.8387 27.4937 21.7372 22.7648 27.7595 22.7648C33.7818 22.7648 38.6804 27.495 38.6804 33.3077C38.6804 34.4108 38.5042 35.496 38.1596 36.5361C38.0745 36.79 37.9118 37.0107 37.6945 37.1671C37.4772 37.3235 37.2163 37.4077 36.9485 37.4078ZM50.8201 31.9821C50.5338 31.9843 50.2552 31.8899 50.0293 31.7142C49.8033 31.5386 49.6431 31.2919 49.5746 31.014C49.506 30.736 49.5332 30.4431 49.6517 30.1826C49.7701 29.922 49.9729 29.7089 50.2274 29.5778C51.564 28.8863 52.7864 27.9935 53.8518 26.9305C51.8577 24.6034 51.7278 20.907 51.8448 18.8061C51.907 17.8055 51.8456 16.8011 51.6622 15.8155C51.1544 13.2184 49.8596 11.115 47.8154 9.56825C46.0331 8.22857 43.8639 7.50419 41.6343 7.50419C39.4047 7.50419 37.2355 8.22857 35.4532 9.56825C33.4089 11.115 32.1142 13.2184 31.6064 15.8155C31.5267 16.227 31.4714 16.6422 31.4392 17.0601C31.4276 17.2276 31.3827 17.3911 31.3072 17.541C31.2317 17.691 31.1272 17.8244 30.9996 17.9335C30.872 18.0427 30.724 18.1253 30.5642 18.1767C30.4044 18.228 30.2359 18.2471 30.0687 18.2327C29.9016 18.22 29.7387 18.1745 29.5893 18.0988C29.4398 18.0231 29.3068 17.9186 29.1978 17.7915C29.0887 17.6643 29.0059 17.5168 28.9539 17.3576C28.9019 17.1983 28.8818 17.0304 28.8948 16.8634C28.9347 16.3388 29.0054 15.8233 29.1018 15.3283C29.7331 12.0947 31.3518 9.47311 33.9129 7.53554C38.4567 4.09882 44.8094 4.09754 49.3556 7.53554C51.9168 9.47311 53.5355 12.0947 54.1668 15.3283C54.3879 16.4584 54.4638 17.676 54.3918 18.9475C54.3288 20.0931 54.2632 23.9541 56.1031 25.5908C56.8154 26.2234 56.8925 27.3317 56.2754 28.0607C55.5708 28.8887 54.0022 30.4804 51.4115 31.8355C51.2293 31.9321 51.0262 31.9824 50.8201 31.9821Z" fill="url(#paint3_linear_8_1122)"/>
<path d="M41.599 30.5419C41.3804 30.5419 41.1618 30.5342 40.9407 30.5175C40.7695 30.5105 40.6015 30.4691 40.4467 30.3958C40.2919 30.3224 40.1535 30.2187 40.0397 30.0907C39.9258 29.9627 39.839 29.8131 39.7842 29.6508C39.7295 29.4884 39.708 29.3168 39.721 29.146C39.7341 28.9752 39.7814 28.8088 39.8601 28.6567C39.9389 28.5046 40.0475 28.3699 40.1794 28.2606C40.3114 28.1514 40.464 28.0699 40.6281 28.0209C40.7923 27.9719 40.9646 27.9565 41.1348 27.9756C41.9355 28.0399 42.7409 27.9376 43.5001 27.6753C44.2594 27.413 44.9561 26.9963 45.5463 26.4514C46.1366 25.9066 46.6076 25.2454 46.9298 24.5095C47.2519 23.7737 47.4182 22.9791 47.4181 22.1758V19.4809C42.5992 19.6352 39.5161 18.1451 37.8961 16.7243C36.8058 18.1296 35.6525 18.9088 35.2642 19.1466C35.1218 19.2372 34.9627 19.2986 34.7964 19.3271C34.63 19.3557 34.4596 19.351 34.2951 19.3131C34.1306 19.2753 33.9752 19.2052 33.838 19.1068C33.7009 19.0084 33.5846 18.8837 33.496 18.74C33.4074 18.5963 33.3483 18.4365 33.322 18.2697C33.2957 18.103 33.3029 17.9327 33.343 17.7687C33.3831 17.6047 33.4554 17.4503 33.5556 17.3145C33.6559 17.1787 33.7822 17.0642 33.9271 16.9776C34.1791 16.8221 35.4841 15.9632 36.4702 14.2943C36.7428 13.8353 37.2172 13.5551 37.7405 13.5422C38.2432 13.5036 38.7331 13.7762 39.0211 14.2056C39.0455 14.2416 41.2852 17.4739 48.3425 16.8735C48.7629 16.8452 49.1821 16.9828 49.4881 17.2656C49.7928 17.5459 49.9689 17.9445 49.9689 18.3585V22.1796C49.9689 22.8467 49.8895 23.5113 49.7324 24.1596C49.2918 25.983 48.2494 27.6047 46.7736 28.7627C45.2978 29.9207 43.4748 30.5476 41.599 30.5419Z" fill="url(#paint4_linear_8_1122)"/>
<path d="M54.8032 44.8314C54.6357 44.8316 54.4698 44.7987 54.315 44.7347C54.1601 44.6706 54.0195 44.5767 53.901 44.4582C53.7825 44.3398 53.6886 44.1991 53.6246 44.0443C53.5605 43.8895 53.5276 43.7235 53.5278 43.556V39.8956C53.5287 39.2968 53.3523 38.7112 53.0211 38.2124C52.6898 37.7137 52.2183 37.3241 51.6661 37.0927L45.676 34.5689C45.1358 34.3426 44.6746 33.9616 44.3504 33.4739C44.0262 32.9861 43.8535 32.4134 43.8541 31.8277V28.6983C43.8543 28.3598 43.9889 28.0353 44.2283 27.7961C44.4677 27.557 44.7924 27.4227 45.1308 27.4229C45.4692 27.423 45.7938 27.5576 46.0329 27.7971C46.2721 28.0365 46.4064 28.3611 46.4062 28.6996V31.829C46.4062 32 46.5078 32.1543 46.6672 32.2199L52.6587 34.7437C53.6733 35.1699 54.5393 35.8864 55.148 36.8033C55.7567 37.7201 56.0809 38.7963 56.08 39.8968V43.5573C56.0798 43.7248 56.0466 43.8906 55.9824 44.0453C55.9181 44.1999 55.824 44.3405 55.7055 44.4588C55.5869 44.5771 55.4462 44.6709 55.2914 44.7348C55.1366 44.7988 54.9707 44.8316 54.8032 44.8314Z" fill="url(#paint5_linear_8_1122)"/>
<path d="M41.6324 42.7794C40.4135 42.7794 39.2872 42.5814 38.2857 42.1905C38.1297 42.1297 37.9872 42.0387 37.8663 41.9227C37.7455 41.8068 37.6487 41.6682 37.5814 41.5148C37.5141 41.3615 37.4777 41.1964 37.4742 41.029C37.4708 40.8615 37.5003 40.695 37.5612 40.539C37.622 40.383 37.713 40.2405 37.829 40.1197C37.9449 39.9989 38.0835 39.902 38.2369 39.8348C38.3902 39.7675 38.5553 39.7311 38.7228 39.7276C38.8902 39.7241 39.0567 39.7537 39.2127 39.8145C39.9172 40.0897 40.7311 40.2285 41.6324 40.2285C46.0462 40.2285 47.2998 36.806 47.6534 34.7655C47.6819 34.6005 47.7427 34.4427 47.8322 34.3011C47.9217 34.1596 48.0382 34.037 48.1751 33.9405C48.312 33.844 48.4666 33.7754 48.63 33.7386C48.7934 33.7018 48.9624 33.6975 49.1275 33.726C49.2925 33.7546 49.4503 33.8153 49.5919 33.9049C49.7334 33.9944 49.856 34.1109 49.9525 34.2478C50.049 34.3847 50.1176 34.5392 50.1544 34.7026C50.1912 34.866 50.1955 35.0351 50.167 35.2001C49.8584 36.9795 48.331 42.7794 41.6324 42.7794ZM14.6555 26.1988C14.4247 26.1986 14.194 26.19 13.9638 26.1731C9.4021 25.8247 5.8291 21.8287 5.8291 17.0754V13.2015C5.8291 12.6731 6.09653 12.1935 6.54396 11.9197C6.81139 11.7551 8.2141 10.8345 9.27224 9.04097C9.5461 8.57812 10.027 8.29397 10.558 8.27983C11.0774 8.27597 11.5621 8.51769 11.8514 8.95483C11.8745 8.98826 14.2904 12.4764 21.835 11.8207C22.0431 11.8024 22.2527 11.8274 22.4506 11.8943C22.6485 11.9612 22.8304 12.0684 22.9847 12.2092C23.139 12.35 23.2625 12.5213 23.3472 12.7122C23.4319 12.9032 23.476 13.1096 23.4768 13.3185V16.961C23.4768 17.1285 23.4438 17.2943 23.3797 17.4491C23.3156 17.6038 23.2217 17.7444 23.1032 17.8628C22.9848 17.9813 22.8442 18.0752 22.6895 18.1393C22.5347 18.2034 22.3689 18.2364 22.2014 18.2364C22.0339 18.2364 21.868 18.2034 21.7133 18.1393C21.5586 18.0752 21.418 17.9813 21.2995 17.8628C21.1811 17.7444 21.0871 17.6038 21.023 17.4491C20.9589 17.2943 20.926 17.1285 20.926 16.961V14.4307C15.7355 14.6377 12.4094 12.9907 10.7084 11.4658C10.0466 12.3357 9.26282 13.1057 8.38124 13.7518V17.0728C8.38124 20.5018 10.918 23.3805 14.158 23.6287C15.0111 23.6964 15.869 23.5892 16.6792 23.3137C16.8376 23.2597 17.0051 23.2373 17.1721 23.248C17.3391 23.2587 17.5023 23.3022 17.6525 23.376C17.8027 23.4498 17.9369 23.5524 18.0474 23.6781C18.1579 23.8037 18.2426 23.9499 18.2967 24.1083C18.3507 24.2666 18.373 24.4341 18.3623 24.6011C18.3516 24.7681 18.3081 24.9313 18.2344 25.0815C18.1606 25.2317 18.0579 25.3659 17.9323 25.4764C17.8067 25.587 17.6605 25.6717 17.5021 25.7257C16.586 26.0401 15.624 26.1999 14.6555 26.1988Z" fill="url(#paint6_linear_8_1122)"/>
<path d="M25.4671 16.988C25.2753 16.9882 25.086 16.9451 24.9132 16.862C24.7403 16.7789 24.5884 16.658 24.4687 16.5082C24.349 16.3583 24.2646 16.1835 24.2218 15.9966C24.1789 15.8096 24.1788 15.6155 24.2212 15.4285C24.7715 13.0203 24.6455 11.1457 23.8587 10.0079C23.2145 9.07446 22.3132 8.91246 22.3055 8.91117L21.2037 8.75946V7.6486C21.2037 6.28189 20.7935 5.2186 19.9501 4.3996C17.9881 2.49546 14.3161 2.54946 14.2852 2.55075C10.9771 2.55075 8.5201 3.50989 6.94124 5.3986C3.81824 9.13875 4.91752 15.4195 4.9291 15.4825C4.9784 15.8101 4.89842 16.144 4.70605 16.4138C4.51367 16.6835 4.22397 16.8679 3.89816 16.928C3.57234 16.9881 3.23592 16.9192 2.95998 16.7358C2.68404 16.5524 2.49019 16.269 2.41938 15.9453C2.36281 15.6406 1.0861 8.44574 4.97152 3.77732C7.05695 1.27275 10.1774 0.00245988 14.2467 0.00245988C14.4048 -0.00525441 18.9704 -0.104254 21.727 2.57132C22.861 3.6706 23.5231 5.0566 23.7044 6.69975C24.6153 7.09434 25.3962 7.73838 25.9569 8.5576C27.1797 10.3255 27.4317 12.8275 26.7091 15.9967C26.6446 16.278 26.4867 16.5291 26.2611 16.7092C26.0356 16.8892 25.7557 16.9875 25.4671 16.988ZM1.39595 44.8315C1.22852 44.8316 1.0627 44.7988 0.907966 44.7348C0.753232 44.6709 0.61262 44.5771 0.494169 44.4587C0.375717 44.3404 0.28175 44.1999 0.217637 44.0452C0.153525 43.8905 0.120526 43.7247 0.120526 43.5573V34.2745C0.117829 32.8791 0.55931 31.519 1.38105 30.3912C2.20279 29.2634 3.36214 28.4265 4.69124 28.0015L9.22981 26.5383V24.0376C9.22981 23.6993 9.36419 23.3749 9.60337 23.1357C9.84256 22.8965 10.167 22.7622 10.5052 22.7622C10.8435 22.7622 11.1679 22.8965 11.4071 23.1357C11.6463 23.3749 11.7807 23.6993 11.7807 24.0376V26.6347C11.7807 27.6877 11.107 28.6122 10.1054 28.9349L5.47424 30.4289C4.65931 30.6893 3.94842 31.2024 3.44451 31.8937C2.9406 32.5851 2.66982 33.4189 2.67138 34.2745V43.5573C2.67138 43.7247 2.63838 43.8905 2.57427 44.0452C2.51016 44.1999 2.41619 44.3404 2.29774 44.4587C2.17929 44.5771 2.03868 44.6709 1.88394 44.7348C1.72921 44.7988 1.56339 44.8316 1.39595 44.8315Z" fill="url(#paint7_linear_8_1122)"/>
<path d="M13.7362 34.8259C13.6764 34.8261 13.6167 34.8218 13.5575 34.8131C12.0194 34.6015 10.5787 33.9379 9.41823 32.9065C8.25772 31.8751 7.42963 30.5223 7.03896 29.0196C6.95337 28.6923 7.00133 28.3443 7.17228 28.0523C7.34323 27.7603 7.62318 27.5482 7.95053 27.4626C8.27789 27.377 8.62583 27.425 8.91783 27.596C9.20982 27.7669 9.42194 28.0469 9.50753 28.3742C9.77124 29.3892 10.3304 30.303 11.1142 30.9998C11.8979 31.6966 12.8709 32.1449 13.9098 32.2879C14.2373 32.3227 14.5386 32.483 14.7503 32.7352C14.9621 32.9875 15.0678 33.312 15.0454 33.6405C15.0229 33.9691 14.874 34.2761 14.6298 34.4972C14.3857 34.7182 14.0654 34.8361 13.7362 34.8259Z" fill="url(#paint8_linear_8_1122)"/>
</g>
<defs>
<linearGradient id="paint0_linear_8_1122" x1="27.7627" y1="19.7859" x2="27.7627" y2="24.8476" gradientUnits="userSpaceOnUse">
<stop/>
<stop offset="1" stop-color="#666666"/>
</linearGradient>
<linearGradient id="paint1_linear_8_1122" x1="27.7602" y1="19.7297" x2="27.7602" y2="54" gradientUnits="userSpaceOnUse">
<stop/>
<stop offset="1" stop-color="#666666"/>
</linearGradient>
<linearGradient id="paint2_linear_8_1122" x1="27.7608" y1="29.4294" x2="27.7608" y2="51.1932" gradientUnits="userSpaceOnUse">
<stop/>
<stop offset="1" stop-color="#666666"/>
</linearGradient>
<linearGradient id="paint3_linear_8_1122" x1="36.7654" y1="4.95752" x2="36.7654" y2="37.4086" gradientUnits="userSpaceOnUse">
<stop/>
<stop offset="1" stop-color="#666666"/>
</linearGradient>
<linearGradient id="paint4_linear_8_1122" x1="41.6377" y1="13.5386" x2="41.6377" y2="30.5419" gradientUnits="userSpaceOnUse">
<stop/>
<stop offset="1" stop-color="#666666"/>
</linearGradient>
<linearGradient id="paint5_linear_8_1122" x1="49.967" y1="27.4229" x2="49.967" y2="44.8314" gradientUnits="userSpaceOnUse">
<stop/>
<stop offset="1" stop-color="#666666"/>
</linearGradient>
<linearGradient id="paint6_linear_8_1122" x1="28.0073" y1="8.27979" x2="28.0073" y2="42.7794" gradientUnits="userSpaceOnUse">
<stop/>
<stop offset="1" stop-color="#666666"/>
</linearGradient>
<linearGradient id="paint7_linear_8_1122" x1="13.6158" y1="0.000244141" x2="13.6158" y2="44.8315" gradientUnits="userSpaceOnUse">
<stop/>
<stop offset="1" stop-color="#666666"/>
</linearGradient>
<linearGradient id="paint8_linear_8_1122" x1="11.0229" y1="27.4211" x2="11.0229" y2="34.8265" gradientUnits="userSpaceOnUse">
<stop/>
<stop offset="1" stop-color="#666666"/>
</linearGradient>
<clipPath id="clip0_8_1122">
<rect width="56.8125" height="54" fill="white"/>
</clipPath>
</defs>
</svg>
