<svg width="47" height="54" viewBox="0 0 47 54" fill="none" xmlns="http://www.w3.org/2000/svg">
<g clip-path="url(#clip0_8_1109)">
<path d="M26.2192 31.4951C25.8296 31.4959 25.4436 31.4199 25.0834 31.2714C24.7232 31.1229 24.3958 30.9048 24.12 30.6297L23.1173 29.6282C23.0193 29.5371 22.8966 29.4769 22.7646 29.4552C22.6325 29.4335 22.497 29.4513 22.375 29.5062C22.0783 29.6282 21.9036 29.8709 21.9036 30.136C21.9036 30.442 21.782 30.7355 21.5656 30.9519C21.3492 31.1683 21.0557 31.2899 20.7496 31.2899C20.4436 31.2899 20.1501 31.1683 19.9337 30.9519C19.7172 30.7355 19.5957 30.442 19.5957 30.136C19.5957 28.9316 20.3333 27.8515 21.4744 27.3836C22.6283 26.9075 23.9031 27.1537 24.7486 27.9969L25.7501 28.9972C26.0081 29.2529 26.4279 29.2541 26.6859 28.9972L29.0243 26.6612C29.1481 26.5372 29.2177 26.3691 29.2177 26.1939C29.2177 26.0186 29.1481 25.8505 29.0243 25.7265L28.0216 24.7262C27.6067 24.3075 27.326 23.7746 27.2153 23.1956C27.1045 22.6166 27.1689 22.0177 27.4001 21.4754C27.8762 20.3156 28.9586 19.5791 30.1642 19.5791H31.5738C31.7493 19.5791 31.9177 19.5095 32.0419 19.3855C32.1661 19.2615 32.2361 19.0933 32.2364 18.9177C32.2364 18.6117 32.358 18.3182 32.5744 18.1018C32.7908 17.8854 33.0843 17.7638 33.3904 17.7638C33.6964 17.7638 33.9899 17.8854 34.2063 18.1018C34.4227 18.3182 34.5443 18.6117 34.5443 18.9177C34.5428 19.7044 34.2293 20.4584 33.6727 21.0144C33.1161 21.5704 32.3617 21.8829 31.575 21.8835H30.1654C30.0291 21.888 29.8973 21.9328 29.7866 22.0124C29.676 22.0919 29.5914 22.2026 29.5438 22.3303C29.423 22.6212 29.4723 22.912 29.6552 23.0961L30.6579 24.0965C31.214 24.6528 31.5264 25.4072 31.5264 26.1939C31.5264 26.9805 31.214 27.7349 30.6579 28.2913L28.3195 30.6261C28.0443 30.9027 27.7169 31.1218 27.3564 31.271C26.9959 31.4202 26.6093 31.4963 26.2192 31.4951ZM7.05931 30.9662C6.90774 30.9664 6.75763 30.9366 6.61757 30.8786C6.47751 30.8207 6.35026 30.7357 6.2431 30.6285L3.9047 28.2924C3.34414 27.7331 3.03454 26.9884 3.03454 26.1956C3.03454 25.4029 3.34297 24.6594 3.9047 24.0988L4.9062 23.0985C4.99737 23.001 5.0576 22.8787 5.07931 22.747C5.10102 22.6153 5.08322 22.4801 5.02816 22.3585C4.9062 22.0618 4.66227 21.8859 4.39724 21.8859H2.98763C2.20093 21.8859 1.44638 21.5737 0.889661 21.0178C0.33294 20.462 0.0195534 19.7079 0.0183105 18.9212V15.6189C0.0198626 14.8322 0.333311 14.0782 0.889932 13.5222C1.44655 12.9662 2.20092 12.6537 2.98763 12.6531H4.39724C4.53325 12.649 4.66494 12.6044 4.77546 12.525C4.88598 12.4456 4.97029 12.335 5.01761 12.2074C5.1384 11.9154 5.09032 11.6246 4.9062 11.4417L3.9047 10.4413C3.34414 9.88194 3.03454 9.13726 3.03454 8.3445C3.03454 7.55175 3.34297 6.80824 3.9047 6.24768L6.2431 3.91163C6.80118 3.35699 7.55603 3.04568 8.34285 3.04568C9.12967 3.04568 9.88452 3.35699 10.4426 3.91163L11.4453 4.91313C11.543 5.00426 11.6655 5.06446 11.7974 5.08616C11.9293 5.10786 12.0646 5.0901 12.1864 5.03509C12.4831 4.91313 12.659 4.67038 12.659 4.40417V2.99339C12.66 2.20669 12.9731 1.45251 13.5296 0.896452C14.0861 0.340391 14.8405 0.027898 15.6272 0.0275879H18.9343C19.721 0.0282073 20.4753 0.340762 21.032 0.896723C21.5886 1.45268 21.902 2.20668 21.9036 2.99339V4.40183C21.9036 4.66686 22.0783 4.91079 22.3504 5.02219C22.6447 5.14416 22.9332 5.0949 23.1173 4.91079L24.1188 3.90929C24.6763 3.3535 25.4314 3.0414 26.2186 3.0414C27.0058 3.0414 27.7609 3.3535 28.3183 3.90929C28.5176 4.12886 28.6247 4.41672 28.6174 4.71314C28.6101 5.00956 28.489 5.29181 28.2792 5.50132C28.0694 5.71084 27.7869 5.83155 27.4905 5.83841C27.1941 5.84528 26.9064 5.73777 26.6871 5.53819C26.5627 5.41459 26.3945 5.34521 26.2192 5.34521C26.0438 5.34521 25.8756 5.41459 25.7513 5.53819L24.7498 6.53969C23.9054 7.38522 22.6283 7.62915 21.4955 7.1624C20.3333 6.68628 19.5968 5.60621 19.5968 4.40183V2.99339C19.5965 2.81807 19.5267 2.65002 19.4028 2.52604C19.2788 2.40207 19.1107 2.33229 18.9354 2.33198H15.6284C15.453 2.33229 15.285 2.40207 15.161 2.52604C15.037 2.65002 14.9673 2.81807 14.9669 2.99339V4.40183C14.9669 5.60621 14.2305 6.68628 13.0894 7.1542C11.9366 7.62915 10.6607 7.38522 9.8152 6.54086L8.81135 5.53936C8.68714 5.41547 8.51887 5.3459 8.34344 5.3459C8.168 5.3459 7.99973 5.41547 7.87552 5.53936L5.53712 7.87424C5.41164 7.99973 5.34362 8.16508 5.34362 8.34216C5.34362 8.51924 5.41281 8.68459 5.53712 8.8089L6.53862 9.8104C7.38415 10.6548 7.62925 11.9307 7.16134 13.06C6.68404 14.221 5.60279 14.9563 4.39724 14.9563H2.98763C2.81231 14.9566 2.64426 15.0264 2.52029 15.1504C2.39631 15.2743 2.32653 15.4424 2.32622 15.6177V18.9201C2.32622 19.2848 2.62409 19.5815 2.98881 19.5815H4.39841C5.60397 19.5815 6.68639 20.318 7.1543 21.4578C7.62925 22.6083 7.38532 23.883 6.5398 24.7285L5.53829 25.7289C5.41281 25.8544 5.3448 26.0197 5.3448 26.1968C5.3448 26.3739 5.41399 26.5392 5.53829 26.6635L7.87669 28.9996C8.03877 29.1606 8.14925 29.3662 8.19406 29.5901C8.23887 29.8141 8.21598 30.0464 8.12831 30.2573C8.04064 30.4683 7.89215 30.6484 7.70177 30.7746C7.51139 30.9008 7.28774 30.9676 7.05931 30.9662Z" fill="black"/>
<path d="M10.5505 19.47C10.2756 19.4697 10.0098 19.3712 9.80108 19.1923C9.59232 19.0134 9.45428 18.7659 9.41181 18.4943C9.34947 18.0892 9.3181 17.6799 9.31799 17.27C9.31799 12.8852 12.8901 9.3166 17.2807 9.3166C17.4365 9.30957 17.5921 9.33419 17.7381 9.38895C17.884 9.44371 18.0174 9.52749 18.1301 9.63523C18.2428 9.74297 18.3325 9.87243 18.3938 10.0158C18.4551 10.1592 18.4867 10.3135 18.4867 10.4694C18.4867 10.6253 18.4551 10.7796 18.3938 10.923C18.3325 11.0663 18.2428 11.1958 18.1301 11.3035C18.0174 11.4113 17.884 11.4951 17.7381 11.5498C17.5921 11.6046 17.4365 11.6292 17.2807 11.6222C16.465 11.6226 15.659 11.7994 14.9179 12.1405C14.1769 12.4816 13.5185 12.9789 12.9877 13.5984C12.4569 14.2179 12.0663 14.9448 11.8428 15.7293C11.6193 16.5139 11.5681 17.3375 11.6927 18.1437C11.7178 18.308 11.707 18.4759 11.661 18.6357C11.6151 18.7955 11.5351 18.9435 11.4266 19.0695C11.3181 19.1955 11.1836 19.2965 11.0324 19.3656C10.8812 19.4348 10.7168 19.4704 10.5505 19.47ZM19.7388 24.7672C19.4697 24.7671 19.2091 24.673 19.0021 24.501C18.7952 24.329 18.6549 24.0901 18.6056 23.8255C18.5563 23.561 18.6011 23.2876 18.7323 23.0526C18.8634 22.8176 19.0726 22.6359 19.3236 22.539C20.2295 22.1866 21.0297 21.6076 21.6476 20.8572C22.2654 20.1069 22.6803 19.2105 22.8523 18.2539C22.8785 18.1047 22.9338 17.962 23.0151 17.8342C23.0964 17.7063 23.2021 17.5958 23.3261 17.5087C23.4502 17.4217 23.5901 17.36 23.738 17.3271C23.8859 17.2942 24.0388 17.2907 24.1881 17.3169C24.3373 17.3431 24.4799 17.3984 24.6077 17.4797C24.7356 17.561 24.8462 17.6667 24.9332 17.7907C25.0202 17.9147 25.0819 18.0547 25.1149 18.2026C25.1478 18.3505 25.1512 18.5034 25.1251 18.6526C24.8828 19.9999 24.2987 21.2625 23.4287 22.3193C22.5587 23.3762 21.4319 24.192 20.1563 24.6886C20.0231 24.7401 19.8816 24.7667 19.7388 24.7672Z" fill="black"/>
<path d="M29.0818 44.4303C24.3135 44.4303 19.8302 42.5751 16.4586 39.207C13.0871 35.839 11.2295 31.3616 11.2295 26.598C11.2295 21.8344 13.0871 17.357 16.4586 13.9889C19.8302 10.6209 24.3147 8.76562 29.0818 8.76562C33.8512 8.76562 38.3345 10.6209 41.7061 13.9889C48.6662 20.9408 48.6662 32.254 41.7061 39.2059C40.0514 40.8676 38.0837 42.1849 35.9169 43.0817C33.75 43.9784 31.4269 44.4368 29.0818 44.4303ZM29.0818 11.0712C24.9304 11.0712 21.0252 12.686 18.0899 15.619C15.1546 18.552 13.5362 22.4512 13.5362 26.598C13.5362 30.7447 15.1534 34.644 18.0899 37.577C21.0264 40.5099 24.9304 42.1259 29.0818 42.1259C33.2344 42.1259 37.1384 40.5099 40.0748 37.577C43.0113 34.644 44.6273 30.7447 44.6273 26.598C44.6273 22.4512 43.0102 18.552 40.0748 15.619C37.1395 12.686 33.2355 11.0712 29.0818 11.0712Z" fill="black"/>
<path d="M29.0818 40.9637C25.2399 40.9637 21.628 39.4685 18.912 36.7548C16.1959 34.0412 14.6996 30.4351 14.6996 26.5968C14.6996 22.7596 16.1959 19.1523 18.912 16.4387C21.628 13.725 25.2399 12.231 29.0818 12.231C32.9236 12.231 36.5356 13.725 39.2528 16.4387C40.5922 17.7689 41.6543 19.3517 42.3776 21.0954C43.1009 22.8391 43.4709 24.709 43.4663 26.5968C43.4663 30.4351 41.9688 34.0412 39.2528 36.7548C37.9197 38.0937 36.3344 39.155 34.5886 39.8775C32.8428 40.5999 30.9711 40.9691 29.0818 40.9637ZM29.0818 14.5377C25.8556 14.5377 22.8241 15.7913 20.5432 18.0699C18.2623 20.3485 17.0063 23.3765 17.0063 26.5979C17.0063 29.8194 18.2623 32.8485 20.5432 35.1259C22.8241 37.4045 25.8556 38.6593 29.0818 38.6593C32.3079 38.6593 35.3406 37.4045 37.6203 35.1259C39.9013 32.8485 41.1584 29.8194 41.1584 26.5979C41.1584 23.3765 39.9024 20.3485 37.6203 18.0699C36.5012 16.946 35.1704 16.0551 33.7048 15.4488C32.2391 14.8425 30.6678 14.5328 29.0818 14.5377ZM14.7605 36.3467L16.393 37.9768L14.1789 40.1944L12.5464 38.5643L14.7605 36.3467ZM17.7111 39.2961L19.3435 40.9262L17.1294 43.1426L15.497 41.5126L17.7111 39.2961Z" fill="black"/>
<path d="M6.10236 53.9726C5.52098 53.9743 4.94501 53.8608 4.40776 53.6386C3.87052 53.4164 3.38265 53.0898 2.97238 52.6779C2.13623 51.8429 1.67535 50.7335 1.67535 49.5514C1.67535 48.3693 2.13623 47.26 2.97238 46.425L12.5265 36.8826L18.7865 43.1343L9.23235 52.6767C8.82221 53.0889 8.3344 53.4157 7.79714 53.6381C7.25988 53.8606 6.68385 53.9743 6.10236 53.9726ZM12.5253 40.1416L4.60363 48.0551C4.20256 48.455 3.98326 48.9874 3.98326 49.5514C3.98326 50.1155 4.20373 50.6491 4.60363 51.0478C5.4046 51.85 6.80013 51.85 7.6011 51.0478L15.5228 43.1343L12.5253 40.1416Z" fill="black"/>
</g>
<defs>
<clipPath id="clip0_8_1109">
<rect width="46.9454" height="54" fill="white"/>
</clipPath>
</defs>
</svg>
