<svg width="53" height="54" viewBox="0 0 53 54" fill="none" xmlns="http://www.w3.org/2000/svg">
<g clip-path="url(#clip0_8_1116)">
<path d="M26.3141 43.8002C26.1043 43.8002 25.8956 43.7421 25.7109 43.6281L0.577064 27.9683C0.412831 27.8657 0.277396 27.7231 0.183502 27.5537C0.0896087 27.3844 0.0403442 27.1939 0.0403442 27.0003C0.0403442 26.8066 0.0896087 26.6162 0.183502 26.4468C0.277396 26.2775 0.412831 26.1348 0.577064 26.0322L10.4605 19.8739L11.6668 21.8089L3.33639 27.0003L26.3141 41.3168L49.2917 27.0003L40.9647 21.8123L42.1722 19.8773L52.0511 26.0334C52.2155 26.1357 52.3512 26.2784 52.4453 26.4477C52.5394 26.6171 52.5888 26.8077 52.5888 27.0014C52.5888 27.1952 52.5394 27.3857 52.4453 27.5551C52.3512 27.7245 52.2155 27.8671 52.0511 27.9695L26.9172 43.6281C26.7363 43.7409 26.5273 43.8006 26.3141 43.8002ZM37.9329 19.72C37.7201 19.7199 37.5115 19.6603 37.3308 19.5478L26.3141 12.6826L15.4238 19.468C15.2968 19.552 15.1541 19.6097 15.0044 19.6377C14.8546 19.6657 14.7008 19.6634 14.552 19.6309C14.4031 19.5984 14.2623 19.5365 14.1378 19.4487C14.0133 19.3609 13.9077 19.249 13.8272 19.1197C13.7466 18.9904 13.6928 18.8463 13.6689 18.6958C13.645 18.5454 13.6515 18.3916 13.688 18.2437C13.7245 18.0958 13.7902 17.9567 13.8814 17.8347C13.9725 17.7126 14.0872 17.61 14.2186 17.533L25.712 10.3713C25.893 10.2585 26.102 10.1987 26.3152 10.1987C26.5284 10.1987 26.7374 10.2585 26.9184 10.3713L38.5395 17.6117C38.7501 17.7428 38.9123 17.9391 39.0013 18.1707C39.0903 18.4023 39.1014 18.6566 39.0328 18.895C38.9642 19.1335 38.8196 19.3431 38.6211 19.4919C38.4226 19.6408 38.181 19.7209 37.9329 19.72Z" fill="black"/>
<path d="M38.6934 53.9583H13.9347C12.8712 53.9571 11.8516 53.5341 11.0996 52.7821C10.3476 52.0301 9.92461 51.0105 9.9234 49.947V33.1585H12.2038V49.947C12.2044 50.4059 12.387 50.8458 12.7115 51.1703C13.0359 51.4947 13.4758 51.6773 13.9347 51.6779H38.6945C39.1534 51.6773 39.5933 51.4947 39.9177 51.1703C40.2422 50.8458 40.4248 50.4059 40.4254 49.947V33.1585H42.7058V49.947C42.704 51.0105 42.2806 52.03 41.5285 52.7819C40.7764 53.5338 39.7569 53.9568 38.6934 53.9583ZM11.0636 29.7378C10.7612 29.7378 10.4712 29.6177 10.2574 29.4039C10.0435 29.19 9.9234 28.9 9.9234 28.5976V4.05328C9.92461 2.98979 10.3476 1.9702 11.0996 1.2182C11.8516 0.466203 12.8712 0.0431993 13.9347 0.0419922H38.6945C39.758 0.0431993 40.7776 0.466203 41.5296 1.2182C42.2816 1.9702 42.7046 2.98979 42.7058 4.05328V28.5224C42.7058 28.8248 42.5857 29.1148 42.3718 29.3286C42.158 29.5424 41.868 29.6626 41.5656 29.6626C41.2632 29.6626 40.9732 29.5424 40.7593 29.3286C40.5455 29.1148 40.4254 28.8248 40.4254 28.5224V4.05328C40.4248 3.59441 40.2422 3.15452 39.9177 2.83005C39.5933 2.50558 39.1534 2.32303 38.6945 2.32243H13.9347C13.4758 2.32303 13.0359 2.50558 12.7115 2.83005C12.387 3.15452 12.2044 3.59441 12.2038 4.05328V28.5976C12.2038 28.9 12.0837 29.19 11.8699 29.4039C11.656 29.6177 11.366 29.7378 11.0636 29.7378Z" fill="black"/>
<path d="M28.4474 48.8308H24.1807C23.8783 48.8308 23.5883 48.7106 23.3744 48.4968C23.1606 48.283 23.0405 47.993 23.0405 47.6906C23.0405 47.3881 23.1606 47.0981 23.3744 46.8843C23.5883 46.6705 23.8783 46.5503 24.1807 46.5503H28.4474C28.7498 46.5503 29.0398 46.6705 29.2537 46.8843C29.4675 47.0981 29.5876 47.3881 29.5876 47.6906C29.5876 47.993 29.4675 48.283 29.2537 48.4968C29.0398 48.7106 28.7498 48.8308 28.4474 48.8308ZM26.3141 36.7388C26.1028 36.7385 25.8957 36.6801 25.7154 36.57L18.4237 32.0741C18.2583 31.9717 18.1217 31.8287 18.0269 31.6587C17.9321 31.4887 17.8823 31.2973 17.8821 31.1027V22.9535C17.8823 22.7504 17.9366 22.5509 18.0396 22.3758C18.1426 22.2007 18.2904 22.0562 18.4679 21.9573C18.6453 21.8584 18.846 21.8087 19.0491 21.8132C19.2522 21.8178 19.4504 21.8764 19.6233 21.9832L26.3141 26.1302L33.006 21.9832C33.1788 21.8761 33.3771 21.8171 33.5803 21.8123C33.7835 21.8076 33.9844 21.8573 34.162 21.9562C34.3395 22.0552 34.4874 22.1999 34.5903 22.3752C34.6932 22.5506 34.7473 22.7502 34.7471 22.9535V31.1027C34.7471 31.4983 34.5419 31.8655 34.2044 32.0741L26.9127 36.5689C26.7327 36.6798 26.5255 36.7386 26.3141 36.7388ZM20.1626 30.4664L26.3141 34.2588L32.4667 30.4664V25.0014L26.9149 28.4414C26.5546 28.6649 26.1008 28.6694 25.736 28.4562L20.1626 25.0025V30.4664Z" fill="black"/>
<path d="M25.1738 27.472H27.4543V35.5984H25.1738V27.472ZM33.0026 23.9202L26.314 19.7448L19.6267 23.9202L18.418 21.9864L25.7097 17.4335C25.8911 17.3207 26.1004 17.2608 26.314 17.2608C26.5277 17.2608 26.737 17.3207 26.9184 17.4335L34.21 21.9864L33.0026 23.9202ZM31.5397 7.33122H21.0873C20.7849 7.33122 20.4949 7.21109 20.281 6.99725C20.0672 6.78342 19.9471 6.4934 19.9471 6.191C19.9471 5.88859 20.0672 5.59858 20.281 5.38474C20.4949 5.17091 20.7849 5.05078 21.0873 5.05078H31.5397C31.8421 5.05078 32.1321 5.17091 32.3459 5.38474C32.5597 5.59858 32.6799 5.88859 32.6799 6.191C32.6799 6.4934 32.5597 6.78342 32.3459 6.99725C32.1321 7.21109 31.8421 7.33122 31.5397 7.33122Z" fill="black"/>
</g>
<defs>
<clipPath id="clip0_8_1116">
<rect width="52.6282" height="54" fill="white"/>
</clipPath>
</defs>
</svg>
