<svg width="128" height="128" viewBox="0 0 128 128" fill="none" xmlns="http://www.w3.org/2000/svg">
<g clip-path="url(#clip0_67_1086)">
<path d="M104 128H24C17.6348 128 11.5303 125.471 7.02944 120.971C2.52856 116.47 0 110.365 0 104L0 24C0 17.6348 2.52856 11.5303 7.02944 7.02944C11.5303 2.52856 17.6348 0 24 0L104 0C110.365 0 116.47 2.52856 120.971 7.02944C125.471 11.5303 128 17.6348 128 24V104C128 110.365 125.471 116.47 120.971 120.971C116.47 125.471 110.365 128 104 128Z" fill="#FFE6E2"/>
<path d="M60 90.664C53.384 90.664 48 85.28 48 78.664V57.332H53.332V78.664C53.3919 80.3925 54.1206 82.0302 55.3646 83.2318C56.6085 84.4334 58.2705 85.105 60 85.105C61.7295 85.105 63.3915 84.4334 64.6354 83.2318C65.8794 82.0302 66.6081 80.3925 66.668 78.664V67.332C66.668 61.08 71.752 56 78 56C84.248 56 89.332 61.084 89.332 67.332V74H84V67.332C84 64.024 81.308 61.332 78 61.332C74.692 61.332 72 64.024 72 67.332V78.664C72 85.284 66.616 90.664 60 90.664Z" fill="#FD907E"/>
<path d="M86.6681 96C84.194 95.9968 81.8222 95.0126 80.0728 93.2632C78.3234 91.5138 77.3392 89.142 77.3361 86.668V76.668C77.3361 74.096 79.4281 72 82.0041 72H91.3361C93.9081 72 96.0001 74.092 96.0001 76.664V86.664C95.9979 89.1387 95.0142 91.5115 93.2647 93.2618C91.5152 95.0121 89.1428 95.9968 86.6681 96ZM50.6681 50.656C50.3913 50.6562 50.1175 50.599 49.8641 50.488L33.1961 43.156C32.84 43.0001 32.5371 42.7437 32.3244 42.4184C32.1117 42.093 31.9984 41.7127 31.9984 41.324C31.9984 40.9353 32.1117 40.555 32.3244 40.2296C32.5371 39.9043 32.84 39.648 33.1961 39.492L49.8641 32.16C50.1183 32.0491 50.3927 31.9919 50.6701 31.9919C50.9474 31.9919 51.2218 32.0491 51.4761 32.16L68.1441 39.492C68.4987 39.6493 68.8001 39.9061 69.0116 40.2313C69.2232 40.5565 69.3358 40.9361 69.3358 41.324C69.3358 41.712 69.2232 42.0916 69.0116 42.4168C68.8001 42.742 68.4987 42.9988 68.1441 43.156L51.4761 50.488C51.2209 50.5983 50.946 50.6554 50.6681 50.656Z" fill="#FD6844"/>
<path d="M53.084 54.148C52.3245 54.4843 51.5031 54.6584 50.6725 54.6591C49.8418 54.6598 49.0201 54.4871 48.26 54.152L37.332 49.344V51.18C37.332 52.808 38.184 54.336 39.548 55.168C43.392 57.5 47.028 58.664 50.664 58.664C54.3 58.664 57.936 57.496 61.78 55.168C63.148 54.336 64 52.808 64 51.18V49.344L53.084 54.148Z" fill="#FD6844"/>
</g>
<defs>
<clipPath id="clip0_67_1086">
<rect width="128" height="128" fill="white"/>
</clipPath>
</defs>
</svg>
